<svg width="44" height="44" viewBox="0 0 44 44" fill="none" xmlns="http://www.w3.org/2000/svg">
<path d="M8.11559 37.4014L5.02734 2.75H38.9733L35.881 37.3959L21.9797 41.25L8.11559 37.4014Z" fill="#1572B6"/>
<path d="M22 38.3049L33.2338 35.1905L35.8765 5.58398H22V38.3049Z" fill="#33A9DC"/>
<path d="M22 18.1376H27.6238L28.0115 13.7858H22V9.53564H32.6562L32.5545 10.6755L31.5109 22.3878H22V18.1376Z" fill="white"/>
<path d="M22.0262 29.1748L22.007 29.1803L17.2742 27.9016L16.9717 24.5122H12.7051L13.3005 31.1851L22.0056 33.6023L22.0262 33.5968V29.1748Z" fill="#EBEBEB"/>
<path d="M27.2619 22.2075L26.7504 27.8986L22.0107 29.1774V33.5994L30.7227 31.1849L30.7874 30.4671L31.5257 22.2075H27.2619Z" fill="white"/>
<path d="M22.0148 9.53564V13.7858H11.749L11.6638 12.8301L11.4699 10.6755L11.3682 9.53564H22.0148ZM21.9997 18.1376V22.3878H17.326L17.2408 21.4321L17.0483 19.2775L16.9465 18.1376H21.9997Z" fill="#EBEBEB"/>
</svg>
