<svg width="51" height="44" viewBox="0 0 51 44" fill="none" xmlns="http://www.w3.org/2000/svg">
<g clip-path="url(#clip0_264_1579)">
<path d="M25.4988 26.4075C28.0093 26.4075 30.0444 24.434 30.0444 21.9996C30.0444 19.5653 28.0093 17.5918 25.4988 17.5918C22.9883 17.5918 20.9531 19.5653 20.9531 21.9996C20.9531 24.434 22.9883 26.4075 25.4988 26.4075Z" fill="#61DAFB"/>
<path fill-rule="evenodd" clip-rule="evenodd" d="M3.7684 19.2832C2.67119 20.2436 2.21739 21.1636 2.21739 22.0003C2.21739 22.837 2.67119 23.757 3.7684 24.7175C4.86548 25.6778 6.51525 26.5919 8.64822 27.3817C12.9065 28.9583 18.8642 29.956 25.5 29.956C32.1358 29.956 38.0935 28.9583 42.3518 27.3817C44.4848 26.5919 46.1345 25.6778 47.2316 24.7175C48.3288 23.757 48.7826 22.837 48.7826 22.0003C48.7826 21.1636 48.3288 20.2436 47.2316 19.2832C46.1345 18.3229 44.4848 17.4087 42.3518 16.619C38.0935 15.0424 32.1358 14.0447 25.5 14.0447C18.8642 14.0447 12.9065 15.0424 8.64822 16.619C6.51525 17.4087 4.86548 18.3229 3.7684 19.2832ZM7.85727 14.6103C12.4269 12.9184 18.6648 11.8945 25.5 11.8945C32.3352 11.8945 38.5731 12.9184 43.1427 14.6103C45.4237 15.4548 47.346 16.4866 48.7174 17.6871C50.0888 18.8875 51 20.3433 51 22.0003C51 23.6574 50.0888 25.1131 48.7174 26.3135C47.346 27.514 45.4237 28.5459 43.1427 29.3904C38.5731 31.0822 32.3352 32.1061 25.5 32.1061C18.6648 32.1061 12.4269 31.0822 7.85727 29.3904C5.57628 28.5459 3.65402 27.514 2.28257 26.3135C0.911241 25.1131 0 23.6574 0 22.0003C0 20.3433 0.911241 18.8875 2.28257 17.6871C3.65402 16.4866 5.57628 15.4548 7.85727 14.6103Z" fill="#61DAFB"/>
<path fill-rule="evenodd" clip-rule="evenodd" d="M17.0627 2.39213C15.6564 1.95095 14.6078 2.02986 13.8606 2.44821C13.1133 2.86656 12.5185 3.70765 12.2094 5.10927C11.9002 6.51074 11.9087 8.35323 12.2699 10.5393C12.991 14.9036 15.0788 20.4056 18.3967 25.9781C21.7146 31.5507 25.5845 36.0549 29.1217 38.8426C30.8935 40.239 32.5348 41.1673 33.941 41.6085C35.3474 42.0496 36.3959 41.9707 37.1432 41.5524C37.8904 41.134 38.4852 40.2929 38.7943 38.8913C39.1035 37.4898 39.095 35.6474 38.7338 33.4613C38.0127 29.097 35.9249 23.595 32.607 18.0225C29.2891 12.4499 25.4192 7.94569 21.882 5.15798C20.1102 3.76163 18.4689 2.83327 17.0627 2.39213ZM23.2805 3.4894C27.0763 6.48089 31.1098 11.2074 34.5273 16.9474C37.9449 22.6874 40.1495 28.4378 40.9233 33.1211C41.3095 35.4589 41.3491 37.5891 40.9627 39.3411C40.5763 41.0929 39.7318 42.586 38.2519 43.4145C36.7719 44.243 35.0162 44.2056 33.2585 43.6542C31.5006 43.1028 29.6179 42.0044 27.7232 40.5112C23.9274 37.5197 19.894 32.7932 16.4764 27.0532C13.0588 21.3132 10.8542 15.5628 10.0804 10.8794C9.69419 8.54168 9.65459 6.4115 10.041 4.65954C10.4274 2.90774 11.2719 1.41464 12.7519 0.586107C14.2318 -0.242428 15.9875 -0.205053 17.7452 0.346352C19.5031 0.897805 21.3858 1.99615 23.2805 3.4894Z" fill="#61DAFB"/>
<path fill-rule="evenodd" clip-rule="evenodd" d="M38.7943 5.10893C38.4852 3.70731 37.8904 2.86622 37.1432 2.44787C36.3959 2.02952 35.3474 1.95061 33.941 2.3918C32.5348 2.83293 30.8935 3.76129 29.1217 5.15764C25.5845 7.94535 21.7146 12.4496 18.3967 18.0221C15.0788 23.5947 12.991 29.0966 12.2699 33.461C11.9087 35.647 11.9002 37.4895 12.2094 38.891C12.5185 40.2926 13.1133 41.1337 13.8606 41.552C14.6078 41.9704 15.6564 42.0493 17.0627 41.6081C18.469 41.167 20.1102 40.2386 21.882 38.8423C25.4192 36.0546 29.2891 31.5503 32.607 25.9778C35.9249 20.4052 38.0127 14.9033 38.7338 10.539C39.095 8.35289 39.1035 6.5104 38.7943 5.10893ZM40.9233 10.8791C40.1495 15.5625 37.9449 21.3129 34.5273 27.0529C31.1098 32.7928 27.0763 37.5194 23.2805 40.5109C21.3858 42.0041 19.5031 43.1024 17.7452 43.6539C15.9875 44.2053 14.2318 44.2427 12.7519 43.4141C11.2719 42.5856 10.4274 41.0925 10.041 39.3407C9.65459 37.5888 9.69419 35.4586 10.0804 33.1208C10.8542 28.4375 13.0588 22.687 16.4764 16.9471C19.894 11.2071 23.9274 6.48055 27.7232 3.48906C29.6179 1.99581 31.5006 0.897467 33.2585 0.346013C35.0162 -0.205392 36.7719 -0.242767 38.2519 0.585768C39.7318 1.4143 40.5763 2.9074 40.9627 4.6592C41.3491 6.41116 41.3095 8.54134 40.9233 10.8791Z" fill="#61DAFB"/>
</g>
<defs>
<clipPath id="clip0_264_1579">
<rect width="51" height="44" fill="white"/>
</clipPath>
</defs>
</svg>
