<svg width="88" height="37" viewBox="0 0 88 37" fill="none" xmlns="http://www.w3.org/2000/svg">
<g clip-path="url(#clip0_264_1581)">
<path d="M52.5899 12.7494C50.6659 12.7494 49.2332 13.6909 49.2332 15.9568C49.2332 17.6639 50.1774 18.8493 52.4861 18.8493C54.443 18.8493 55.7723 17.6999 55.7723 15.8859C55.7723 13.8303 54.5829 12.7494 52.5899 12.7494ZM48.7433 28.7489C48.2878 29.3056 47.8341 29.8976 47.8341 30.5954C47.8341 31.9887 49.6168 32.4081 52.0657 32.4081C54.0938 32.4081 56.8568 32.2662 56.8568 30.3868C56.8568 29.2696 55.5276 29.2007 53.848 29.0959L48.7433 28.7489ZM59.0947 12.8546C59.723 13.6563 60.3885 14.7721 60.3885 16.3751C60.3885 20.2436 57.346 22.5089 52.9405 22.5089C51.8202 22.5089 50.8062 22.3698 50.1774 22.1957L49.0228 24.0423L52.4496 24.2513C58.5003 24.6357 62.066 24.8104 62.066 29.444C62.066 33.453 58.535 35.7172 52.4496 35.7172C46.1202 35.7172 43.707 34.1138 43.707 31.3608C43.707 29.7924 44.4066 28.9575 45.6307 27.8054C44.4763 27.3192 44.092 26.4483 44.092 25.5066C44.092 24.7391 44.4763 24.0427 45.1068 23.3797C45.7358 22.7185 46.435 22.0556 47.2745 21.2889C45.5612 20.4523 44.2667 18.64 44.2667 16.0602C44.2667 12.0529 46.9249 9.30055 52.2743 9.30055C53.7786 9.30055 54.6881 9.43828 55.4925 9.64897H62.3125V12.6103L59.0947 12.8546ZM68.4649 6.5211C66.4712 6.5211 65.3172 5.36999 65.3172 3.38261C65.3172 1.39797 66.4708 0.316406 68.4649 0.316406C70.4931 0.316406 71.6474 1.39797 71.6474 3.38261C71.6474 5.36999 70.4934 6.5211 68.4649 6.5211ZM63.9529 27.4662V24.7141L65.7369 24.4709C66.2268 24.4007 66.2962 24.2965 66.2962 23.7727V13.5257C66.2962 13.1434 66.1917 12.8981 65.8408 12.7947L63.9529 12.1317L64.3372 9.30946H71.5769V23.7727C71.5769 24.3311 71.6106 24.4007 72.1369 24.4712L73.9203 24.7145V27.4662H63.9529ZM87.7497 26.115C86.2454 26.8464 84.0423 27.5087 82.0482 27.5087C77.8868 27.5087 76.3138 25.8375 76.3138 21.897V12.7666C76.3138 12.5576 76.3138 12.4181 76.0329 12.4181H73.5854V9.31529C76.6637 8.96584 77.8868 7.4324 78.2714 3.63339H81.5941V8.58385C81.5941 8.82709 81.5941 8.93227 81.8743 8.93227H86.8047V12.4175H81.5941V20.7469C81.5941 22.8032 82.0843 23.6041 83.9718 23.6041C84.9522 23.6041 85.9653 23.3609 86.8043 23.0471L87.7497 26.115Z" fill="#2F2707"/>
<path d="M35.9316 16.9693L19.9417 1.03431C19.7227 0.816001 19.4627 0.642823 19.1766 0.52467C18.8904 0.406516 18.5837 0.345703 18.274 0.345703C17.9643 0.345703 17.6576 0.406516 17.3714 0.52467C17.0853 0.642823 16.8253 0.816001 16.6063 1.03431L13.286 4.34376L17.498 8.5412C17.9931 8.37339 18.5254 8.34713 19.0347 8.46538C19.544 8.58364 20.0099 8.84168 20.3796 9.21028C20.7513 9.58121 21.0109 10.0489 21.1285 10.5598C21.2462 11.0707 21.2173 11.6044 21.0451 12.0997L25.1038 16.1454C26.0859 15.8083 27.2192 16.0265 28.0033 16.8093C28.264 17.069 28.4708 17.3773 28.6119 17.7166C28.753 18.0559 28.8256 18.4196 28.8256 18.7869C28.8256 19.1543 28.753 19.518 28.6119 19.8573C28.4708 20.1966 28.264 20.5049 28.0033 20.7646C27.5447 21.2221 26.9411 21.5071 26.2954 21.571C25.6496 21.6349 25.0016 21.4738 24.4616 21.1152C23.9216 20.7565 23.5231 20.2224 23.3337 19.6038C23.1444 18.9852 23.176 18.3203 23.4232 17.7223L19.6378 13.9497L19.6375 23.878C19.9119 24.0133 20.1625 24.1919 20.3796 24.407C20.6403 24.6667 20.8471 24.9751 20.9882 25.3145C21.1292 25.6539 21.2019 26.0176 21.2019 26.385C21.2019 26.7523 21.1292 27.1161 20.9882 27.4555C20.8471 27.7948 20.6403 28.1032 20.3796 28.3629C19.2831 29.4558 17.5059 29.4558 16.4111 28.3629C16.084 28.0372 15.8427 27.6359 15.7087 27.1949C15.5748 26.7538 15.5522 26.2865 15.6431 25.8347C15.734 25.3828 15.9355 24.9604 16.2297 24.6048C16.524 24.2493 16.9018 23.9718 17.3296 23.7968V13.776C16.9854 13.636 16.6731 13.4283 16.4111 13.1655C15.5806 12.3388 15.3808 11.1243 15.8064 10.1079L11.6546 5.96936L0.691024 16.8953C0.471943 17.1137 0.298158 17.3729 0.179592 17.6581C0.0610254 17.9434 0 18.2491 0 18.5579C0 18.8667 0.0610254 19.1725 0.179592 19.4577C0.298158 19.743 0.471943 20.0022 0.691024 20.2205L16.6809 36.1559C17.1232 36.5966 17.7231 36.8442 18.3486 36.8442C18.9741 36.8442 19.574 36.5966 20.0163 36.1559L35.9316 20.2949C36.3739 19.8538 36.6224 19.2557 36.6224 18.6321C36.6224 18.0085 36.3739 17.4104 35.9316 16.9693Z" fill="#DE4C36"/>
</g>
<defs>
<clipPath id="clip0_264_1581">
<rect width="88" height="37" fill="white"/>
</clipPath>
</defs>
</svg>
