<svg width="44" height="44" viewBox="0 0 44 44" fill="none" xmlns="http://www.w3.org/2000/svg">
<path d="M22.0013 3.66602C19.5937 3.66602 17.2097 4.14022 14.9854 5.06156C12.7611 5.98289 10.7401 7.33332 9.03768 9.03572C5.59951 12.4739 3.66797 17.137 3.66797 21.9993C3.66797 30.1027 8.92964 36.9777 16.208 39.416C17.1246 39.5627 17.418 38.9943 17.418 38.4993V35.401C12.3396 36.501 11.258 32.9443 11.258 32.9443C10.4146 30.8177 9.22297 30.2493 9.22297 30.2493C7.55464 29.1127 9.3513 29.1493 9.3513 29.1493C11.1846 29.2777 12.1563 31.0377 12.1563 31.0377C13.7513 33.8243 16.4463 32.9993 17.4913 32.5593C17.6563 31.3677 18.133 30.561 18.6463 30.1027C14.5763 29.6443 10.3046 28.0677 10.3046 21.0827C10.3046 19.0477 11.0013 17.416 12.193 16.1143C12.0096 15.656 11.368 13.7493 12.3763 11.2743C12.3763 11.2743 13.9163 10.7793 17.418 13.1443C18.8663 12.741 20.443 12.5393 22.0013 12.5393C23.5596 12.5393 25.1363 12.741 26.5846 13.1443C30.0863 10.7793 31.6263 11.2743 31.6263 11.2743C32.6346 13.7493 31.993 15.656 31.8096 16.1143C33.0013 17.416 33.698 19.0477 33.698 21.0827C33.698 28.086 29.408 29.626 25.3196 30.0843C25.9796 30.6527 26.5846 31.771 26.5846 33.476V38.4993C26.5846 38.9943 26.878 39.581 27.813 39.416C35.0913 36.9593 40.3346 30.1027 40.3346 21.9993C40.3346 19.5918 39.8604 17.2078 38.9391 14.9835C38.0178 12.7592 36.6673 10.7381 34.9649 9.03572C33.2625 7.33332 31.2415 5.98289 29.0172 5.06156C26.7929 4.14022 24.4089 3.66602 22.0013 3.66602Z" fill="black"/>
</svg>
