<svg width="44" height="44" viewBox="0 0 44 44" fill="none" xmlns="http://www.w3.org/2000/svg">
<path d="M8.11599 37.4014L5.02637 2.75H38.9751L35.8814 37.3959L21.9801 41.25L8.11599 37.4014Z" fill="#E44F26"/>
<path d="M22 38.3049L33.2338 35.1905L35.8765 5.58398H22V38.3049Z" fill="#F1662A"/>
<path d="M22 18.4345H16.3762L15.9885 14.0826H22V9.83252H11.3438L11.4455 10.9738L12.4891 22.6846H22V18.4345ZM22 29.4716L21.9808 29.4771L17.248 28.1998L16.9455 24.8104H12.6789L13.2743 31.4819L21.9808 33.8991L22 33.8936V29.4716Z" fill="#EBEBEB"/>
<path d="M21.9854 18.4345V22.6846H27.2186L26.7264 28.197L21.9854 29.4758V33.8978L30.6987 31.4819L30.762 30.7641L31.7602 19.5758L31.8647 18.4345H30.7193H21.9854ZM21.9854 9.83252V14.0826H32.2511L32.3364 13.1284L32.5302 10.9738L32.632 9.83252H21.9854Z" fill="white"/>
</svg>
