<svg width="45" height="44" viewBox="0 0 45 44" fill="none" xmlns="http://www.w3.org/2000/svg">
<path fill-rule="evenodd" clip-rule="evenodd" d="M22.5 2.75C26.3938 2.75 30.2002 3.87899 33.4378 5.99421C36.6754 8.10943 39.1988 11.1159 40.6889 14.6333C42.179 18.1508 42.5689 22.0214 41.8092 25.7555C41.0496 29.4896 39.1745 32.9196 36.4212 35.6118C33.6678 38.304 30.1598 40.1374 26.3408 40.8801C22.5218 41.6229 18.5633 41.2417 14.9659 39.7847C11.3685 38.3277 8.29373 35.8604 6.13044 32.6947C3.96715 29.5291 2.8125 25.8073 2.8125 22C2.8125 16.8946 4.88671 11.9983 8.57883 8.38819C12.271 4.77812 17.2786 2.75 22.5 2.75Z" fill="#CC6699"/>
<path d="M34.8491 10.9896C33.9576 7.57136 28.1596 6.45211 22.6724 8.35236C19.236 9.48145 16.061 11.2621 13.3293 13.5925C10.3073 16.3562 9.82491 18.7625 10.0232 19.7676C10.7263 23.3151 15.6946 25.6334 17.7379 27.3535V27.3631C17.136 27.6532 12.726 29.8381 11.691 32.0656C10.6026 34.4196 11.864 36.1081 12.7007 36.335C13.9569 36.6307 15.2763 36.5345 16.4738 36.0598C17.6712 35.5851 18.6866 34.7557 19.3776 33.6881C19.9486 32.8231 20.3058 31.84 20.421 30.8167C20.5362 29.7934 20.4062 28.7578 20.0413 27.7921C21.0255 27.5476 22.0486 27.4902 23.0549 27.623C26.5087 28.0176 27.1865 30.1255 27.0571 31.0082C26.9963 31.3225 26.8669 31.6202 26.6779 31.8812C26.4889 32.1422 26.2446 32.3603 25.9616 32.5207C25.7198 32.6679 25.6452 32.7174 25.6663 32.8274C25.6959 32.9855 25.8069 32.98 26.0137 32.9456C26.5327 32.7858 26.99 32.476 27.3254 32.057C27.6607 31.638 27.8584 31.1295 27.8924 30.5985C27.9754 28.536 25.949 26.2177 22.3602 26.2769C21.3179 26.2478 20.2778 26.3871 19.2819 26.6894C19.2321 26.6337 19.1815 26.5787 19.1301 26.5244C16.911 24.2102 12.8104 22.5726 12.9834 19.461C13.0466 18.3294 13.4488 15.3511 20.8584 11.7376C26.9334 8.77724 31.7962 9.59261 32.6371 11.398C33.838 13.9775 30.0384 18.7694 23.7299 19.461C23.0327 19.5994 22.3125 19.5825 21.6228 19.4116C20.9331 19.2407 20.2917 18.9202 19.746 18.4737C19.4141 18.1162 19.3649 18.1011 19.2412 18.1671C19.0401 18.2757 19.168 18.592 19.2412 18.779C19.4827 19.2047 19.8088 19.5789 20.2002 19.8797C20.5917 20.1805 21.0406 20.4018 21.5207 20.5307C24.001 21.0577 26.5881 20.8075 28.9148 19.8157C32.7412 18.3734 35.7252 14.3515 34.8491 10.9896ZM18.5873 28.4122C18.8666 29.3537 18.8524 30.3552 18.5465 31.2887C18.5137 31.3859 18.4776 31.4822 18.4382 31.5775C18.3988 31.6728 18.3562 31.7645 18.3102 31.8525C18.0736 32.326 17.767 32.7628 17.4004 33.1491C16.2571 34.3687 14.6582 34.8307 13.9734 34.4416C13.2337 34.0222 13.6035 32.3021 14.9296 30.9312C15.9485 29.946 17.1233 29.128 18.4087 28.5085L18.5873 28.4122Z" fill="white"/>
</svg>
