<svg width="100" height="100" viewBox="0 0 100 100" fill="none" xmlns="http://www.w3.org/2000/svg">
<path d="M24 100V0H53.0939V49.8542L85.5903 0H99.3044L73.0687 40.2332L100 100H86.8822L65.5161 51.7493L53.0939 68.5131V100H24Z" fill="#FF5824"/>
<path d="M5 100V0H24V100H5Z" fill="#FF5824"/>
<path d="M43 89.775L13.459 89.775L13.459 77.434C13.459 74.2233 13.9893 71.5143 15.05 69.307C16.1107 67.071 17.7303 65.3797 19.909 64.233C22.059 63.0577 24.8253 62.47 28.208 62.47C31.562 62.47 34.3427 63.0577 36.55 64.233C38.7287 65.3797 40.3483 67.071 41.409 69.307C42.4697 71.5143 43 74.2233 43 77.434L43 89.775ZM36.98 82.078L36.98 77.52C36.98 76.316 36.808 75.2697 36.464 74.381C36.12 73.4923 35.6183 72.747 34.959 72.145C34.2997 71.543 33.4827 71.0987 32.508 70.812C31.5333 70.5253 30.4153 70.382 29.154 70.382L27.348 70.382C26.058 70.382 24.9257 70.5253 23.951 70.812C22.9763 71.0987 22.1593 71.543 21.5 72.145C20.8407 72.747 20.339 73.4923 19.995 74.381C19.651 75.2697 19.479 76.316 19.479 77.52L19.479 82.078L36.98 82.078ZM43.516 46.78C43.516 49.36 43.1003 51.553 42.269 53.359C41.409 55.165 40.1047 56.5554 38.356 57.53C36.6073 58.476 34.3713 58.949 31.648 58.949C28.982 58.949 26.7747 58.476 25.026 57.53C23.2773 56.584 21.973 55.2224 21.113 53.445C20.253 51.6677 19.823 49.532 19.823 47.038C19.823 44.5727 20.2387 42.4944 21.07 40.803C21.9013 39.083 23.177 37.7787 24.897 36.89C26.617 36.0014 28.8387 35.557 31.562 35.557L33.067 35.557L33.067 51.811C34.271 51.811 35.2887 51.639 36.12 51.295C36.9513 50.951 37.582 50.4207 38.012 49.704C38.442 48.9874 38.657 48.027 38.657 46.823C38.657 46.1064 38.571 45.4757 38.399 44.931C38.227 44.3864 37.9833 43.9277 37.668 43.555C37.324 43.1824 36.9227 42.8957 36.464 42.695C36.0053 42.4944 35.4893 42.394 34.916 42.394L34.916 35.557C36.292 35.557 37.5247 35.815 38.614 36.331C39.6747 36.8184 40.5777 37.5494 41.323 38.524C42.0397 39.4987 42.5843 40.6884 42.957 42.093C43.3297 43.469 43.516 45.0314 43.516 46.78ZM29.154 51.768L29.154 42.738C28.4087 42.738 27.7637 42.8384 27.219 43.039C26.6457 43.211 26.1727 43.4834 25.8 43.856C25.4273 44.2 25.155 44.63 24.983 45.146C24.7823 45.6334 24.682 46.2067 24.682 46.866C24.682 47.898 24.854 48.758 25.198 49.446C25.542 50.134 26.0437 50.6644 26.703 51.037C27.3623 51.4097 28.1793 51.6534 29.154 51.768ZM43 25.317L20.339 33.831L20.339 26.306L28.982 23.425C29.412 23.2817 30.0427 23.0953 30.874 22.866C31.6767 22.6367 32.5223 22.393 33.411 22.135C34.271 21.877 35.0737 21.6477 35.819 21.447L35.819 21.189C35.131 20.9883 34.357 20.7733 33.497 20.544C32.637 20.286 31.8057 20.0423 31.003 19.813C30.1717 19.5837 29.498 19.383 28.982 19.211L20.339 16.373L20.339 9.36399L43 17.921L43 25.317Z" fill="black"/>
</svg>
