<svg aria-hidden="true" style="position: absolute; width: 0; height: 0; overflow: hidden;" version="1.1" xmlns="http://www.w3.org/2000/svg" xmlns:xlink="http://www.w3.org/1999/xlink">
<defs>
<symbol id="icon-logo-white" viewBox="0 0 164 32">
      <path fill="#e9e9e9" style="fill: var(--color1, #e9e9e9)" d="M0 26.466v-26.466h12.875v13.195l8.7-13.195h3.671l-7.024 10.648 7.21 15.818h-3.512l-5.72-12.77-3.326 4.437v8.333h-12.875z"></path>
      <path fill="#1d1f20" style="fill: var(--color2, #1d1f20)" d="M10.174 6.7l-6.067 2.253v-1.992l2.314-0.763c0.115-0.038 0.284-0.087 0.506-0.148 0.215-0.061 0.441-0.125 0.679-0.193 0.23-0.068 0.445-0.129 0.645-0.182v-0.068c-0.184-0.053-0.391-0.11-0.622-0.171-0.23-0.068-0.453-0.133-0.668-0.193-0.223-0.061-0.403-0.114-0.541-0.159l-2.314-0.751v-1.855l6.067 2.265v1.957z"></path>
      <path fill="#1d1f20" style="fill: var(--color2, #1d1f20)" d="M10.312 12.381c0 0.683-0.111 1.263-0.334 1.741-0.23 0.478-0.579 0.846-1.048 1.104-0.468 0.25-1.067 0.376-1.796 0.376-0.714 0-1.305-0.125-1.773-0.376s-0.817-0.611-1.048-1.081c-0.23-0.47-0.345-1.036-0.345-1.696 0-0.652 0.111-1.203 0.334-1.65 0.223-0.455 0.564-0.8 1.025-1.036s1.055-0.353 1.784-0.353h0.403v4.302c0.322 0 0.595-0.045 0.817-0.137s0.391-0.231 0.506-0.421 0.173-0.444 0.173-0.762c0-0.19-0.023-0.357-0.069-0.501s-0.111-0.266-0.196-0.364c-0.092-0.099-0.2-0.175-0.322-0.228s-0.261-0.080-0.414-0.080v-1.81c0.368 0 0.698 0.068 0.99 0.205 0.284 0.129 0.526 0.322 0.725 0.58 0.192 0.258 0.338 0.573 0.437 0.945 0.1 0.364 0.15 0.778 0.15 1.24zM6.467 13.701v-2.39c-0.2 0-0.372 0.027-0.518 0.080-0.154 0.046-0.28 0.118-0.38 0.216-0.1 0.091-0.173 0.205-0.219 0.341-0.054 0.129-0.081 0.281-0.081 0.455 0 0.273 0.046 0.501 0.138 0.683s0.226 0.322 0.403 0.421c0.176 0.099 0.395 0.163 0.656 0.193z"></path>
      <path fill="#1d1f20" style="fill: var(--color2, #1d1f20)" d="M10.173 23.76h-7.908v-3.266c0-0.85 0.142-1.567 0.426-2.151 0.284-0.592 0.718-1.039 1.301-1.343 0.576-0.311 1.316-0.467 2.222-0.467 0.898 0 1.642 0.156 2.233 0.467 0.583 0.303 1.017 0.751 1.301 1.343 0.284 0.584 0.426 1.301 0.426 2.151v3.266zM8.561 21.723v-1.206c0-0.319-0.046-0.596-0.138-0.831s-0.226-0.432-0.403-0.592c-0.177-0.159-0.395-0.277-0.656-0.353s-0.56-0.114-0.898-0.114h-0.484c-0.345 0-0.648 0.038-0.909 0.114s-0.48 0.194-0.656 0.353-0.311 0.357-0.403 0.592c-0.092 0.235-0.138 0.512-0.138 0.831v1.206h4.685z"></path>
    <path fill="#e9e9e9" style="fill: var(--color1, #e9e9e9)" d="M154.678 26.64c-0.424 0-0.882-0.051-1.374-0.153s-0.958-0.288-1.398-0.559c-0.424-0.271-0.772-0.644-1.043-1.119-0.272-0.492-0.407-1.128-0.407-1.907 0-0.916 0.212-1.67 0.636-2.264s1.017-1.060 1.78-1.399c0.764-0.339 1.671-0.576 2.721-0.712 1.068-0.136 2.23-0.203 3.484-0.203v-1.323c0-0.441-0.076-0.831-0.229-1.17-0.135-0.339-0.398-0.602-0.788-0.788-0.373-0.187-0.915-0.28-1.628-0.28s-1.272 0.093-1.679 0.28c-0.39 0.17-0.67 0.39-0.839 0.661-0.153 0.254-0.229 0.534-0.229 0.839v0.381h-2.543c-0.017-0.085-0.026-0.17-0.026-0.254s0-0.186 0-0.305c0-0.797 0.221-1.467 0.662-2.009 0.458-0.559 1.093-0.983 1.907-1.272s1.755-0.432 2.823-0.432c1.154 0 2.111 0.17 2.874 0.509 0.78 0.322 1.365 0.788 1.755 1.399s0.585 1.348 0.585 2.213v6.79c0 0.322 0.077 0.551 0.229 0.687 0.17 0.136 0.365 0.203 0.585 0.203h0.915v1.78c-0.203 0.085-0.458 0.17-0.763 0.254s-0.662 0.127-1.068 0.127c-0.458 0-0.848-0.085-1.17-0.254-0.306-0.153-0.56-0.373-0.764-0.661-0.186-0.305-0.313-0.644-0.381-1.017h-0.153c-0.306 0.39-0.679 0.738-1.119 1.043-0.424 0.288-0.915 0.509-1.475 0.661-0.56 0.17-1.187 0.254-1.882 0.254zM155.415 24.453c0.525 0 1.009-0.076 1.45-0.229 0.458-0.17 0.848-0.398 1.17-0.687 0.322-0.305 0.577-0.661 0.763-1.068 0.187-0.424 0.28-0.882 0.28-1.373v-0.89c-1.17 0-2.195 0.068-3.077 0.203s-1.569 0.39-2.060 0.763c-0.492 0.356-0.738 0.856-0.738 1.5 0 0.39 0.085 0.721 0.254 0.992 0.17 0.254 0.424 0.449 0.764 0.585s0.738 0.203 1.195 0.203z"></path>
    <path fill="#e9e9e9" style="fill: var(--color1, #e9e9e9)" d="M136.716 26.335v-13.377h2.187l0.229 1.908h0.178c0.322-0.492 0.703-0.899 1.145-1.221s0.924-0.568 1.45-0.738c0.542-0.17 1.136-0.254 1.78-0.254 0.848 0 1.593 0.153 2.238 0.458 0.644 0.288 1.145 0.763 1.501 1.424 0.373 0.661 0.559 1.551 0.559 2.67v9.13h-2.645v-8.723c0-0.509-0.068-0.932-0.203-1.272-0.119-0.339-0.297-0.61-0.534-0.814s-0.517-0.348-0.839-0.432c-0.322-0.085-0.678-0.127-1.068-0.127-0.61 0-1.17 0.153-1.679 0.458-0.491 0.288-0.89 0.695-1.195 1.221s-0.458 1.144-0.458 1.857v7.833h-2.645z"></path>
    <path fill="#e9e9e9" style="fill: var(--color1, #e9e9e9)" d="M125.052 30.964c-0.509 0-0.933-0.042-1.272-0.127-0.339-0.068-0.551-0.11-0.636-0.127v-1.907h1.272c0.373 0 0.746-0.085 1.119-0.254 0.39-0.17 0.737-0.441 1.043-0.814s0.56-0.839 0.763-1.399l-5.214-13.377h2.772l2.594 6.663c0.119 0.305 0.246 0.687 0.382 1.144 0.153 0.458 0.297 0.924 0.432 1.399 0.153 0.475 0.28 0.899 0.382 1.272h0.126c0.085-0.254 0.17-0.543 0.255-0.865 0.102-0.339 0.204-0.687 0.305-1.043s0.204-0.695 0.305-1.017c0.102-0.339 0.187-0.627 0.255-0.865l2.162-6.689h2.695l-4.527 12.869c-0.254 0.712-0.534 1.382-0.839 2.009s-0.662 1.17-1.069 1.628c-0.39 0.475-0.856 0.839-1.398 1.094-0.543 0.271-1.179 0.407-1.907 0.407z"></path>
    <path fill="#e9e9e9" style="fill: var(--color1, #e9e9e9)" d="M114.81 26.335v-13.377h2.187l0.229 2.162h0.153c0.153-0.424 0.348-0.822 0.585-1.195 0.254-0.373 0.577-0.678 0.967-0.916 0.406-0.237 0.898-0.356 1.475-0.356 0.271 0 0.508 0.025 0.712 0.076 0.22 0.051 0.39 0.093 0.508 0.127v2.492h-0.89c-0.543 0-1.025 0.085-1.45 0.254-0.407 0.17-0.755 0.424-1.043 0.763-0.272 0.322-0.475 0.721-0.61 1.195-0.119 0.475-0.178 1.009-0.178 1.602v7.172h-2.646z"></path>
    <path fill="#e9e9e9" style="fill: var(--color1, #e9e9e9)" d="M108.188 26.335v-17.447h2.849v17.447h-2.849z"></path>
    <path fill="#e9e9e9" style="fill: var(--color1, #e9e9e9)" d="M92.016 26.64c-0.424 0-0.882-0.051-1.374-0.153s-0.958-0.288-1.398-0.559c-0.424-0.271-0.772-0.644-1.043-1.119-0.271-0.492-0.406-1.128-0.406-1.907 0-0.916 0.211-1.67 0.636-2.264s1.017-1.060 1.78-1.399c0.764-0.339 1.67-0.576 2.722-0.712 1.068-0.136 2.23-0.203 3.484-0.203v-1.323c0-0.441-0.077-0.831-0.229-1.17-0.135-0.339-0.398-0.602-0.788-0.788-0.373-0.187-0.915-0.28-1.628-0.28s-1.272 0.093-1.679 0.28c-0.39 0.17-0.67 0.39-0.839 0.661-0.153 0.254-0.228 0.534-0.228 0.839v0.381h-2.544c-0.016-0.085-0.025-0.17-0.025-0.254s0-0.186 0-0.305c0-0.797 0.22-1.467 0.662-2.009 0.458-0.559 1.093-0.983 1.907-1.272s1.755-0.432 2.823-0.432c1.153 0 2.111 0.17 2.874 0.509 0.78 0.322 1.365 0.788 1.755 1.399s0.585 1.348 0.585 2.213v6.79c0 0.322 0.077 0.551 0.229 0.687 0.17 0.136 0.365 0.203 0.585 0.203h0.915v1.78c-0.203 0.085-0.458 0.17-0.763 0.254s-0.662 0.127-1.069 0.127c-0.458 0-0.848-0.085-1.17-0.254-0.305-0.153-0.559-0.373-0.763-0.661-0.187-0.305-0.313-0.644-0.382-1.017h-0.153c-0.305 0.39-0.678 0.738-1.118 1.043-0.424 0.288-0.916 0.509-1.475 0.661-0.56 0.17-1.187 0.254-1.882 0.254zM92.753 24.453c0.525 0 1.008-0.076 1.45-0.229 0.458-0.17 0.848-0.398 1.17-0.687 0.322-0.305 0.576-0.661 0.763-1.068 0.187-0.424 0.28-0.882 0.28-1.373v-0.89c-1.17 0-2.196 0.068-3.077 0.203s-1.569 0.39-2.060 0.763c-0.492 0.356-0.737 0.856-0.737 1.5 0 0.39 0.084 0.721 0.254 0.992 0.17 0.254 0.424 0.449 0.764 0.585s0.737 0.203 1.195 0.203z"></path>
    <path fill="#e9e9e9" style="fill: var(--color1, #e9e9e9)" d="M79.177 26.335l-4.96-13.377h2.772l2.314 6.384c0.102 0.305 0.229 0.704 0.382 1.195 0.153 0.475 0.305 0.966 0.458 1.475s0.289 0.966 0.407 1.373h0.127c0.102-0.39 0.22-0.831 0.356-1.323 0.153-0.509 0.305-1.009 0.458-1.5s0.289-0.899 0.407-1.221l2.289-6.384h2.696l-4.985 13.377h-2.721z"></path>
    <path fill="#e9e9e9" style="fill: var(--color1, #e9e9e9)" d="M66.612 26.64c-1.39 0-2.569-0.246-3.535-0.738-0.95-0.509-1.67-1.28-2.162-2.314-0.475-1.034-0.712-2.348-0.712-3.942 0-1.611 0.237-2.925 0.712-3.942 0.492-1.034 1.212-1.797 2.162-2.289 0.966-0.509 2.145-0.763 3.535-0.763 1.424 0 2.611 0.254 3.561 0.763 0.949 0.492 1.662 1.255 2.136 2.289 0.492 1.017 0.738 2.331 0.738 3.942 0 1.594-0.246 2.908-0.738 3.942-0.475 1.034-1.187 1.806-2.136 2.314-0.95 0.492-2.136 0.738-3.561 0.738zM66.612 24.453c0.848 0 1.543-0.161 2.085-0.483 0.543-0.339 0.941-0.848 1.195-1.526 0.271-0.678 0.407-1.534 0.407-2.569v-0.458c0-1.034-0.136-1.89-0.407-2.569-0.254-0.678-0.653-1.178-1.195-1.501-0.543-0.339-1.238-0.509-2.085-0.509-0.831 0-1.517 0.17-2.060 0.509-0.543 0.322-0.949 0.822-1.221 1.501-0.254 0.678-0.381 1.534-0.381 2.569v0.458c0 1.034 0.127 1.89 0.381 2.569 0.271 0.678 0.678 1.187 1.221 1.526 0.543 0.322 1.229 0.483 2.060 0.483z"></path>
    <path fill="#e9e9e9" style="fill: var(--color1, #e9e9e9)" d="M54.855 26.335v-18.388h2.645v18.388h-2.645z"></path>
    <path fill="#e9e9e9" style="fill: var(--color1, #e9e9e9)" d="M41.073 26.335v-1.322l7.121-9.868h-6.638v-2.187h10.453v1.297l-7.146 9.893h7.502v2.187h-11.292z"></path>
    <path fill="#e9e9e9" style="fill: var(--color1, #e9e9e9)" d="M33.431 26.64c-1.39 0-2.569-0.246-3.535-0.738-0.95-0.509-1.67-1.28-2.162-2.314-0.475-1.034-0.712-2.348-0.712-3.942 0-1.611 0.237-2.925 0.712-3.942 0.492-1.034 1.212-1.797 2.162-2.289 0.966-0.509 2.145-0.763 3.535-0.763 1.424 0 2.611 0.254 3.561 0.763 0.949 0.492 1.662 1.255 2.136 2.289 0.492 1.017 0.737 2.331 0.737 3.942 0 1.594-0.246 2.908-0.737 3.942-0.475 1.034-1.187 1.806-2.136 2.314-0.95 0.492-2.136 0.738-3.561 0.738zM33.431 24.453c0.848 0 1.543-0.161 2.085-0.483 0.543-0.339 0.941-0.848 1.195-1.526 0.271-0.678 0.407-1.534 0.407-2.569v-0.458c0-1.034-0.136-1.89-0.407-2.569-0.254-0.678-0.653-1.178-1.195-1.501-0.542-0.339-1.238-0.509-2.085-0.509-0.831 0-1.517 0.17-2.060 0.509-0.543 0.322-0.949 0.822-1.221 1.501-0.254 0.678-0.381 1.534-0.381 2.569v0.458c0 1.034 0.127 1.89 0.381 2.569 0.271 0.678 0.678 1.187 1.221 1.526 0.543 0.322 1.229 0.483 2.060 0.483z"></path>
    <path fill="#e9e9e9" style="fill: var(--color1, #e9e9e9)" d="M157.127 0.103h1.804c0.355 0 0.649 0.050 0.882 0.151 0.234 0.095 0.416 0.217 0.548 0.366 0.138 0.143 0.234 0.299 0.286 0.469 0.058 0.17 0.087 0.326 0.087 0.469 0 0.159-0.026 0.323-0.080 0.493-0.053 0.164-0.138 0.318-0.254 0.461s-0.268 0.262-0.453 0.358c-0.18 0.095-0.397 0.151-0.652 0.167v0.032l0.080 0.040c0.063 0.032 0.117 0.072 0.159 0.119 0.048 0.048 0.106 0.124 0.175 0.23 0.074 0.106 0.172 0.257 0.294 0.453 0.121 0.191 0.294 0.448 0.516 0.771 0.074 0.111 0.146 0.212 0.214 0.302 0.069 0.085 0.141 0.159 0.215 0.223 0.074 0.058 0.153 0.103 0.238 0.135s0.183 0.048 0.294 0.048c0.027 0 0.053 0 0.080 0 0.026-0.005 0.053-0.011 0.080-0.016v0.294c-0.074 0.042-0.149 0.069-0.222 0.079s-0.17 0.016-0.286 0.016c-0.159 0-0.297-0.021-0.413-0.064-0.112-0.042-0.212-0.098-0.302-0.167-0.090-0.074-0.175-0.162-0.255-0.262-0.074-0.101-0.151-0.212-0.23-0.334l-0.628-0.93c-0.095-0.148-0.178-0.273-0.246-0.374s-0.143-0.183-0.222-0.246-0.17-0.109-0.27-0.135c-0.095-0.026-0.217-0.040-0.366-0.040h-0.35v2.456h-0.723v-5.563zM157.85 0.453v2.4h0.819c0.212 0 0.397-0.037 0.557-0.111 0.164-0.074 0.302-0.17 0.413-0.286 0.112-0.122 0.194-0.254 0.246-0.397 0.059-0.148 0.088-0.294 0.088-0.437 0-0.17-0.032-0.326-0.095-0.469-0.059-0.143-0.146-0.265-0.263-0.366-0.116-0.106-0.257-0.188-0.421-0.246-0.159-0.058-0.339-0.087-0.54-0.087h-0.803z"></path>
    <path fill="#e9e9e9" style="fill: var(--color1, #e9e9e9)" d="M151.075 0.103h3.592v0.437h-2.869v1.995h2.463v0.366h-2.463v2.329h2.869v0.437h-3.592v-5.563z"></path>
    <path fill="#e9e9e9" style="fill: var(--color1, #e9e9e9)" d="M145.654 3.346v2.321h-0.723v-5.563h1.86c0.307 0 0.575 0.045 0.803 0.135s0.416 0.212 0.564 0.366c0.153 0.148 0.267 0.326 0.342 0.533 0.074 0.201 0.112 0.413 0.112 0.636 0 0.233-0.042 0.453-0.127 0.66-0.085 0.201-0.212 0.381-0.382 0.54-0.164 0.154-0.371 0.276-0.62 0.366s-0.535 0.135-0.858 0.135c-0.191 0-0.366-0.011-0.525-0.032-0.159-0.026-0.307-0.058-0.445-0.095zM145.654 0.453v2.567c0.111 0.042 0.236 0.072 0.374 0.087 0.138 0.011 0.289 0.016 0.453 0.016 0.238 0 0.442-0.040 0.612-0.119s0.31-0.183 0.421-0.31c0.111-0.127 0.19-0.268 0.238-0.421 0.053-0.159 0.080-0.315 0.080-0.469 0-0.159-0.029-0.318-0.087-0.477-0.054-0.164-0.135-0.31-0.246-0.437-0.112-0.132-0.252-0.238-0.422-0.318s-0.365-0.119-0.588-0.119h-0.834z"></path>
    <path fill="#e9e9e9" style="fill: var(--color1, #e9e9e9)" d="M136.225 2.885c0-0.302 0.056-0.623 0.167-0.962 0.117-0.339 0.297-0.649 0.54-0.93 0.244-0.286 0.554-0.522 0.93-0.707s0.826-0.278 1.351-0.278c0.53 0 0.988 0.095 1.375 0.286 0.392 0.185 0.715 0.421 0.97 0.707s0.442 0.599 0.564 0.938c0.122 0.334 0.183 0.649 0.183 0.946 0 0.196-0.029 0.403-0.088 0.62-0.053 0.217-0.135 0.434-0.246 0.652-0.106 0.212-0.243 0.416-0.413 0.612-0.17 0.191-0.371 0.36-0.604 0.509-0.228 0.148-0.487 0.268-0.778 0.358-0.286 0.085-0.607 0.127-0.962 0.127-0.525 0-0.975-0.093-1.351-0.278-0.377-0.191-0.686-0.429-0.93-0.715s-0.423-0.596-0.54-0.93c-0.111-0.339-0.167-0.657-0.167-0.954zM137.003 2.885c0 0.371 0.056 0.713 0.167 1.025 0.116 0.307 0.272 0.572 0.469 0.795 0.201 0.223 0.437 0.397 0.707 0.525 0.27 0.122 0.564 0.183 0.883 0.183 0.313 0 0.607-0.061 0.882-0.183 0.281-0.127 0.525-0.302 0.732-0.525 0.211-0.223 0.379-0.487 0.5-0.795 0.122-0.313 0.183-0.654 0.183-1.025s-0.061-0.71-0.183-1.017c-0.121-0.313-0.289-0.58-0.5-0.803-0.207-0.223-0.451-0.395-0.732-0.517-0.275-0.127-0.569-0.191-0.882-0.191-0.319 0-0.612 0.064-0.883 0.191-0.27 0.122-0.506 0.294-0.707 0.517-0.196 0.223-0.353 0.49-0.469 0.803-0.112 0.307-0.167 0.646-0.167 1.017z"></path>
    <path fill="#e9e9e9" style="fill: var(--color1, #e9e9e9)" d="M130.728 5.667v-5.563h0.723v5.126h2.869v0.437h-3.592z"></path>
    <path fill="#e9e9e9" style="fill: var(--color1, #e9e9e9)" d="M124.674 0.103h3.592v0.437h-2.869v1.995h2.464v0.366h-2.464v2.329h2.869v0.437h-3.592v-5.563z"></path>
  <path fill="#e9e9e9" style="fill: var(--color1, #e9e9e9)" d="M117.146 0.103h0.858l1.908 4.578h0.031l1.852-4.578h0.413l-2.257 5.563h-0.477l-2.329-5.563z"></path>
  <path fill="#e9e9e9" style="fill: var(--color1, #e9e9e9)" d="M111.81 0.103h3.592v0.437h-2.869v1.995h2.464v0.366h-2.464v2.329h2.869v0.437h-3.592v-5.563z"></path>
  <path fill="#e9e9e9" style="fill: var(--color1, #e9e9e9)" d="M104.54 5.667v-5.563h1.828c0.44 0 0.842 0.072 1.208 0.215 0.365 0.138 0.679 0.331 0.938 0.58 0.265 0.244 0.469 0.535 0.612 0.874 0.148 0.339 0.222 0.705 0.222 1.097 0 0.408-0.077 0.784-0.231 1.129-0.148 0.339-0.355 0.633-0.62 0.882-0.26 0.249-0.564 0.442-0.914 0.58s-0.723 0.207-1.121 0.207h-1.923zM105.263 5.317h0.874c0.435 0 0.803-0.072 1.105-0.215 0.307-0.148 0.559-0.339 0.755-0.572s0.339-0.493 0.429-0.779c0.090-0.291 0.135-0.58 0.135-0.866 0-0.318-0.053-0.623-0.159-0.914-0.106-0.297-0.263-0.556-0.469-0.779-0.202-0.228-0.453-0.408-0.755-0.54s-0.649-0.199-1.041-0.199h-0.874v4.864z"></path>
  <path fill="#e9e9e9" style="fill: var(--color1, #e9e9e9)" d="M96.612 5.19c-0.324 0.238-0.615 0.392-0.874 0.461-0.254 0.069-0.49 0.103-0.708 0.103-0.323 0-0.609-0.042-0.858-0.127-0.244-0.090-0.45-0.207-0.62-0.35-0.164-0.148-0.289-0.315-0.374-0.501s-0.127-0.374-0.127-0.564c0-0.201 0.037-0.387 0.112-0.556 0.079-0.17 0.185-0.326 0.318-0.469 0.138-0.148 0.297-0.281 0.477-0.397 0.18-0.122 0.376-0.233 0.588-0.334-0.17-0.238-0.316-0.456-0.437-0.652-0.117-0.201-0.175-0.413-0.175-0.636 0-0.132 0.021-0.268 0.063-0.405 0.048-0.143 0.119-0.27 0.214-0.381 0.101-0.111 0.225-0.201 0.374-0.27 0.154-0.074 0.336-0.111 0.548-0.111 0.164 0 0.318 0.026 0.461 0.079s0.267 0.13 0.374 0.23c0.106 0.101 0.191 0.223 0.254 0.366 0.064 0.138 0.095 0.294 0.095 0.469 0 0.223-0.077 0.442-0.23 0.66-0.149 0.212-0.408 0.405-0.779 0.58l1.581 2.082c0.159-0.212 0.281-0.453 0.366-0.723 0.085-0.276 0.135-0.625 0.151-1.049h0.62c-0.027 0.286-0.083 0.543-0.167 0.771-0.080 0.228-0.17 0.429-0.27 0.604-0.095 0.175-0.191 0.321-0.286 0.437-0.090 0.111-0.159 0.193-0.207 0.246l0.723 0.914h-0.842l-0.365-0.477zM95.173 0.35c-0.117 0-0.217 0.021-0.302 0.064-0.080 0.037-0.146 0.087-0.199 0.151s-0.093 0.135-0.119 0.215c-0.022 0.079-0.032 0.159-0.032 0.238 0 0.185 0.058 0.368 0.175 0.548 0.116 0.175 0.26 0.368 0.429 0.58 0.069-0.037 0.144-0.087 0.223-0.151 0.084-0.069 0.162-0.146 0.23-0.23 0.069-0.090 0.125-0.191 0.167-0.302 0.048-0.111 0.071-0.233 0.071-0.366 0-0.069-0.011-0.146-0.032-0.23-0.022-0.090-0.056-0.172-0.103-0.246s-0.114-0.138-0.199-0.191c-0.080-0.053-0.183-0.079-0.31-0.079zM94.744 2.734c-0.387 0.201-0.654 0.4-0.803 0.596-0.143 0.196-0.214 0.413-0.214 0.652 0 0.217 0.045 0.411 0.135 0.58 0.090 0.164 0.207 0.305 0.35 0.421 0.149 0.117 0.31 0.207 0.485 0.27 0.18 0.058 0.357 0.087 0.532 0.087 0.042 0 0.106-0.003 0.191-0.008 0.090-0.011 0.191-0.029 0.301-0.056s0.225-0.066 0.342-0.119c0.121-0.053 0.238-0.127 0.35-0.223l-1.669-2.201z"></path>
  <path fill="#e9e9e9" style="fill: var(--color1, #e9e9e9)" d="M82.501 0.103h1.805c0.355 0 0.649 0.050 0.882 0.151 0.233 0.095 0.416 0.217 0.548 0.366 0.138 0.143 0.233 0.299 0.286 0.469 0.059 0.17 0.088 0.326 0.088 0.469 0 0.159-0.027 0.323-0.080 0.493-0.053 0.164-0.138 0.318-0.254 0.461s-0.267 0.262-0.452 0.358c-0.18 0.095-0.397 0.151-0.652 0.167v0.032l0.080 0.040c0.063 0.032 0.116 0.072 0.159 0.119 0.048 0.048 0.106 0.124 0.175 0.23 0.074 0.106 0.173 0.257 0.294 0.453 0.122 0.191 0.294 0.448 0.517 0.771 0.074 0.111 0.145 0.212 0.214 0.302 0.068 0.085 0.141 0.159 0.214 0.223 0.074 0.058 0.154 0.103 0.239 0.135s0.182 0.048 0.294 0.048c0.026 0 0.053 0 0.080 0 0.026-0.005 0.053-0.011 0.079-0.016v0.294c-0.074 0.042-0.148 0.069-0.222 0.079s-0.17 0.016-0.286 0.016c-0.159 0-0.297-0.021-0.413-0.064-0.112-0.042-0.212-0.098-0.302-0.167-0.090-0.074-0.175-0.162-0.254-0.262-0.074-0.101-0.151-0.212-0.231-0.334l-0.627-0.93c-0.096-0.148-0.178-0.273-0.247-0.374s-0.143-0.183-0.222-0.246c-0.079-0.064-0.169-0.109-0.27-0.135-0.095-0.026-0.217-0.040-0.365-0.040h-0.35v2.456h-0.723v-5.563zM83.225 0.453v2.4h0.819c0.212 0 0.397-0.037 0.557-0.111 0.164-0.074 0.302-0.17 0.413-0.286 0.112-0.122 0.194-0.254 0.246-0.397 0.058-0.148 0.088-0.294 0.088-0.437 0-0.17-0.032-0.326-0.096-0.469-0.058-0.143-0.145-0.265-0.262-0.366-0.117-0.106-0.257-0.188-0.421-0.246-0.159-0.058-0.339-0.087-0.54-0.087h-0.803z"></path>
  <path fill="#e9e9e9" style="fill: var(--color1, #e9e9e9)" d="M76.449 0.103h3.592v0.437h-2.87v1.995h2.464v0.366h-2.464v2.329h2.87v0.437h-3.592v-5.563z"></path>
  <path fill="#e9e9e9" style="fill: var(--color1, #e9e9e9)" d="M72.905 0.103h0.366v5.659h-0.040l-4.411-4.347h-0.032v4.252h-0.366v-5.659h0.040l4.411 4.347h0.032v-4.252z"></path>
  <path fill="#e9e9e9" style="fill: var(--color1, #e9e9e9)" d="M65.72 3.187v2.48h-0.684v-0.326c-0.201 0.106-0.456 0.204-0.763 0.294-0.307 0.085-0.66 0.127-1.057 0.127-0.53 0-0.986-0.082-1.367-0.246-0.381-0.17-0.697-0.392-0.946-0.668-0.244-0.281-0.426-0.596-0.548-0.946-0.117-0.355-0.175-0.721-0.175-1.097 0-0.44 0.077-0.832 0.23-1.176 0.154-0.35 0.368-0.644 0.644-0.882s0.601-0.421 0.978-0.548c0.382-0.127 0.797-0.191 1.248-0.191 0.392 0 0.731 0.045 1.017 0.135 0.291 0.085 0.535 0.191 0.731 0.318s0.35 0.265 0.461 0.413c0.117 0.143 0.199 0.273 0.246 0.389h-0.572c-0.032-0.111-0.103-0.22-0.215-0.326-0.106-0.111-0.244-0.209-0.413-0.294s-0.363-0.154-0.58-0.207-0.45-0.079-0.699-0.079c-0.376 0-0.707 0.061-0.993 0.183-0.281 0.122-0.519 0.294-0.715 0.517s-0.344 0.487-0.445 0.795c-0.095 0.307-0.143 0.644-0.143 1.009 0 0.371 0.050 0.713 0.151 1.025 0.106 0.307 0.262 0.575 0.469 0.803 0.207 0.223 0.466 0.397 0.779 0.525s0.678 0.191 1.097 0.191c0.318 0 0.601-0.037 0.85-0.111s0.493-0.188 0.731-0.342v-1.439h-0.89v-0.326h1.574z"></path>
  <path fill="#e9e9e9" style="fill: var(--color1, #e9e9e9)" d="M56.435 0.103h0.723v5.563h-0.723v-5.563z"></path>
  <path fill="#e9e9e9" style="fill: var(--color1, #e9e9e9)" d="M49.219 4.26h0.54c0.005 0.090 0.026 0.201 0.064 0.334 0.037 0.127 0.109 0.252 0.215 0.374s0.26 0.228 0.461 0.318c0.201 0.085 0.469 0.127 0.803 0.127 0.419 0 0.752-0.079 1.001-0.238 0.254-0.159 0.381-0.411 0.381-0.755 0-0.276-0.079-0.495-0.238-0.66s-0.36-0.302-0.604-0.413c-0.238-0.117-0.498-0.22-0.779-0.31s-0.543-0.199-0.787-0.326c-0.238-0.127-0.437-0.286-0.596-0.477s-0.238-0.442-0.238-0.755c0-0.238 0.048-0.45 0.143-0.636 0.101-0.185 0.233-0.339 0.397-0.461 0.17-0.122 0.363-0.215 0.58-0.278 0.223-0.064 0.456-0.095 0.699-0.095 0.233 0 0.456 0.029 0.668 0.087 0.217 0.053 0.411 0.135 0.58 0.246 0.17 0.106 0.31 0.238 0.421 0.397 0.111 0.154 0.183 0.329 0.215 0.525h-0.54c-0.042-0.313-0.185-0.54-0.429-0.683-0.238-0.148-0.53-0.223-0.874-0.223-0.207 0-0.389 0.027-0.548 0.079-0.159 0.048-0.294 0.114-0.405 0.199-0.106 0.079-0.188 0.175-0.246 0.286-0.053 0.111-0.079 0.23-0.079 0.358 0 0.228 0.082 0.411 0.246 0.548s0.368 0.26 0.612 0.366c0.249 0.106 0.517 0.207 0.803 0.302 0.291 0.095 0.559 0.215 0.803 0.358 0.249 0.138 0.456 0.313 0.62 0.525 0.164 0.207 0.246 0.474 0.246 0.803 0 0.238-0.048 0.456-0.143 0.652s-0.23 0.363-0.405 0.501c-0.175 0.138-0.387 0.244-0.636 0.318-0.244 0.074-0.519 0.111-0.827 0.111-0.302 0-0.58-0.034-0.834-0.103-0.254-0.074-0.477-0.175-0.668-0.302-0.185-0.132-0.334-0.291-0.445-0.477-0.106-0.185-0.164-0.392-0.175-0.62z"></path>
  <path fill="#e9e9e9" style="fill: var(--color1, #e9e9e9)" d="M43.825 0.103h3.592v0.437h-2.869v1.995h2.464v0.366h-2.464v2.329h2.869v0.437h-3.592v-5.563z"></path>
  <path fill="#e9e9e9" style="fill: var(--color1, #e9e9e9)" d="M36.557 5.667v-5.563h1.828c0.44 0 0.843 0.072 1.208 0.215 0.366 0.138 0.678 0.331 0.938 0.58 0.265 0.244 0.469 0.535 0.612 0.874 0.148 0.339 0.222 0.705 0.222 1.097 0 0.408-0.077 0.784-0.23 1.129-0.148 0.339-0.355 0.633-0.62 0.882-0.26 0.249-0.564 0.442-0.914 0.58s-0.723 0.207-1.121 0.207h-1.923zM37.281 5.317h0.874c0.434 0 0.803-0.072 1.105-0.215 0.307-0.148 0.559-0.339 0.755-0.572s0.339-0.493 0.429-0.779c0.090-0.291 0.135-0.58 0.135-0.866 0-0.318-0.053-0.623-0.159-0.914-0.106-0.297-0.262-0.556-0.469-0.779-0.201-0.228-0.453-0.408-0.755-0.54s-0.649-0.199-1.041-0.199h-0.874v4.864z"></path>
</symbol>
</defs>
</svg>
