<svg width="100" height="100" viewBox="0 0 100 100" fill="none" xmlns="http://www.w3.org/2000/svg">
<path d="M19 99V39H39.672V68.9125L62.7615 39H72.5057L53.8646 63.1399L73 99H63.6795L48.4983 70.0496L39.672 80.1079V99H19Z" fill="#FF5824"/>
<g clip-path="url(#clip0_237_167)">
<path d="M26.9077 1.91306C28.0633 0.757538 29.9367 0.757538 31.0923 1.91306L46.0868 16.9076C47.2423 18.0631 47.2423 19.9366 46.0868 21.0921L31.0923 36.0867C29.9367 37.2422 28.0633 37.2422 26.9077 36.0867L11.9132 21.0921C10.7577 19.9366 10.7577 18.0631 11.9132 16.9076L26.9077 1.91306Z" fill="#FF5824"/>
</g>
<path d="M13.64 81.64L0 72.092V66.548L13.64 57V63.204L5.148 69.32L13.64 75.436V81.64Z" fill="#FF5824"/>
<path d="M87.3154 81.4V75.76L95.0754 70.16L87.3154 64.64V59L99.7154 67.68V72.72L87.3154 81.4Z" fill="#FF5824"/>
<path d="M73 85.4L82.92 53H86.44L76.48 85.4H73Z" fill="#FF5824"/>
<defs>
<clipPath id="clip0_237_167">
<rect width="36" height="36" fill="white" transform="translate(11 1)"/>
</clipPath>
</defs>
</svg>
