<svg width="32" height="32" viewBox="0 0 32 32" fill="none" xmlns="http://www.w3.org/2000/svg">
<path d="M29.1321 15.1653L17.5031 3.50393C17.3438 3.34417 17.1547 3.21743 16.9466 3.13097C16.7385 3.0445 16.5154 3 16.2902 3C16.0649 3 15.8419 3.0445 15.6338 3.13097C15.4257 3.21743 15.2366 3.34417 15.0773 3.50393L12.6626 5.92581L15.7258 8.99754C16.0859 8.87473 16.473 8.85551 16.8435 8.94205C17.2139 9.02859 17.5527 9.21743 17.8216 9.48718C18.0919 9.75863 18.2806 10.1009 18.3662 10.4748C18.4518 10.8487 18.4308 11.2392 18.3056 11.6017L21.2573 14.5623C21.9716 14.3156 22.7958 14.4753 23.3661 15.0482C23.5557 15.2382 23.7061 15.4639 23.8087 15.7122C23.9113 15.9605 23.9641 16.2267 23.9641 16.4955C23.9641 16.7643 23.9113 17.0304 23.8087 17.2788C23.7061 17.5271 23.5557 17.7527 23.3661 17.9427C23.0325 18.2775 22.5935 18.4861 22.1239 18.5329C21.6543 18.5796 21.183 18.4618 20.7903 18.1993C20.3976 17.9368 20.1077 17.5459 19.97 17.0932C19.8323 16.6405 19.8553 16.154 20.0351 15.7164L17.2821 12.9555L17.2818 20.2212C17.4814 20.3201 17.6637 20.4509 17.8216 20.6083C18.0111 20.7983 18.1615 21.024 18.2641 21.2724C18.3667 21.5207 18.4195 21.7869 18.4195 22.0558C18.4195 22.3246 18.3667 22.5908 18.2641 22.8392C18.1615 23.0875 18.0111 23.3132 17.8216 23.5032C17.0241 24.303 15.7316 24.303 14.9353 23.5032C14.6974 23.2649 14.522 22.9712 14.4245 22.6484C14.3271 22.3257 14.3107 21.9837 14.3768 21.6531C14.4429 21.3224 14.5895 21.0132 14.8034 20.7531C15.0174 20.4929 15.2922 20.2898 15.6033 20.1618V12.8284C15.353 12.7259 15.1259 12.574 14.9353 12.3817C14.3313 11.7767 14.1861 10.8879 14.4956 10.144L11.4761 7.11544L3.50256 15.1112C3.34323 15.2709 3.21684 15.4606 3.13061 15.6694C3.04438 15.8781 3 16.1019 3 16.3279C3 16.5538 3.04438 16.7776 3.13061 16.9863C3.21684 17.1951 3.34323 17.3848 3.50256 17.5446L15.1316 29.2062C15.4533 29.5287 15.8895 29.7099 16.3444 29.7099C16.7993 29.7099 17.2356 29.5287 17.5573 29.2062L29.1321 17.599C29.4537 17.2762 29.6344 16.8385 29.6344 16.3821C29.6344 15.9258 29.4537 15.4881 29.1321 15.1653Z" fill="#DE4C36"/>
</svg>
