<svg width="32" height="32" viewBox="0 0 32 32" fill="none" xmlns="http://www.w3.org/2000/svg">
<path d="M5.90227 27.201L3.65527 2H28.3453L26.0953 27.197L15.9853 30L5.90227 27.201Z" fill="#E44F26"/>
<path d="M16 27.858L24.17 25.593L26.092 4.06104H16V27.858Z" fill="#F1662A"/>
<path d="M16 13.4069H11.91L11.628 10.2419H16V7.15088H8.25L8.324 7.98088L9.083 16.4979H16V13.4069ZM16 21.4339L15.986 21.4379L12.544 20.5089L12.324 18.0439H9.221L9.654 22.8959L15.986 24.6539L16 24.6499V21.4339Z" fill="#EBEBEB"/>
<path d="M15.9893 13.4069V16.4979H19.7953L19.4373 20.5069L15.9893 21.4369V24.6529L22.3263 22.8959L22.3723 22.3739L23.0983 14.2369L23.1743 13.4069H22.3413H15.9893ZM15.9893 7.15088V10.2419H23.4553L23.5173 9.54788L23.6583 7.98088L23.7323 7.15088H15.9893Z" fill="white"/>
</svg>
