<svg width="220" height="43" viewBox="0 0 220 43" fill="none" xmlns="http://www.w3.org/2000/svg">
<path d="M0 35.5642V0H17.301V17.7302L28.9911 0H33.9246L24.4867 14.3086L34.1748 35.5642H29.4559L21.7697 18.4042L17.301 24.3661V35.5642H0Z" fill="#E9E9E9"/>
<path d="M13.6715 9.00329L5.51953 12.0312L5.51953 9.35502L8.62872 8.33041C8.78341 8.27943 9.01028 8.21317 9.30934 8.13161C9.59808 8.05005 9.9023 7.96339 10.222 7.87163C10.5314 7.77988 10.8201 7.69832 11.0882 7.62695L11.0882 7.5352C10.8407 7.46383 10.5623 7.38737 10.2529 7.30581C9.94355 7.21405 9.64449 7.12739 9.35574 7.04583C9.05668 6.96427 8.81434 6.89291 8.62872 6.83174L5.51953 5.82243L5.51953 3.32973L13.6715 6.37296L13.6715 9.00329Z" fill="#1D1F20"/>
<path d="M13.8562 16.6368C13.8562 17.5544 13.7067 18.3343 13.4076 18.9766C13.0982 19.6189 12.629 20.1133 12 20.4599C11.3709 20.7964 10.5665 20.9646 9.58687 20.9646C8.62782 20.9646 7.83376 20.7964 7.20471 20.4599C6.57565 20.1235 6.10644 19.6392 5.79707 19.0071C5.48769 18.3751 5.33301 17.6155 5.33301 16.7286C5.33301 15.8518 5.48254 15.1126 5.7816 14.5111C6.08066 13.8994 6.53956 13.4355 7.1583 13.1195C7.77705 12.8035 8.57626 12.6454 9.55593 12.6454L10.0973 12.6454L10.0973 18.426C10.5305 18.426 10.8965 18.3649 11.1956 18.2425C11.4947 18.1202 11.7215 17.9316 11.8762 17.6767C12.0309 17.4218 12.1083 17.0803 12.1083 16.6521C12.1083 16.3972 12.0773 16.1729 12.0154 15.9792C11.9536 15.7855 11.8659 15.6224 11.7525 15.4899C11.6287 15.3573 11.4844 15.2554 11.3194 15.184C11.1544 15.1126 10.9687 15.077 10.7625 15.077L10.7625 12.6454C11.2575 12.6454 11.7009 12.7372 12.0928 12.9207C12.4743 13.094 12.7992 13.354 13.0673 13.7006C13.3251 14.0472 13.5211 14.4703 13.6551 14.9699C13.7892 15.4593 13.8562 16.0149 13.8562 16.6368ZM8.68969 18.4107L8.68969 15.1993C8.42157 15.1993 8.18954 15.235 7.99361 15.3063C7.78736 15.3675 7.6172 15.4644 7.48314 15.5969C7.34908 15.7192 7.25111 15.8722 7.18924 16.0557C7.11705 16.229 7.08096 16.4329 7.08096 16.6674C7.08096 17.0344 7.14283 17.3403 7.26658 17.5849C7.39033 17.8296 7.5708 18.0182 7.80798 18.1508C8.04517 18.2833 8.33907 18.37 8.68969 18.4107Z" fill="#1D1F20"/>
<path d="M13.6699 31.9274L3.04297 31.9274L3.04297 27.5385C3.04297 26.3966 3.23375 25.4332 3.61531 24.6482C3.99686 23.8529 4.57952 23.2514 5.36326 22.8436C6.13669 22.4256 7.13183 22.2166 8.3487 22.2166C9.55525 22.2166 10.5555 22.4256 11.3496 22.8436C12.1333 23.2514 12.716 23.8529 13.0976 24.6482C13.4791 25.4332 13.6699 26.3966 13.6699 27.5385L13.6699 31.9274ZM11.5043 29.1901L11.5043 27.569C11.5043 27.1408 11.4424 26.7687 11.3187 26.4527C11.1949 26.1366 11.0144 25.8716 10.7773 25.6575C10.5401 25.4434 10.2462 25.2853 9.89555 25.1834C9.54493 25.0814 9.14275 25.0305 8.68901 25.0305L8.03932 25.0305C7.57527 25.0305 7.16793 25.0814 6.8173 25.1834C6.46668 25.2853 6.17278 25.4434 5.9356 25.6575C5.69841 25.8716 5.51794 26.1366 5.39419 26.4527C5.27045 26.7687 5.20857 27.1408 5.20857 27.569L5.20857 29.1901L11.5043 29.1901Z" fill="#1D1F20"/>
<g clip-path="url(#clip0_363_638)">
<path d="M207.848 35.7978C207.278 35.7978 206.663 35.7295 206.002 35.5928C205.342 35.4561 204.715 35.2055 204.123 34.841C203.553 34.4764 203.086 33.9752 202.722 33.3373C202.357 32.6765 202.175 31.8222 202.175 30.7742C202.175 29.5439 202.46 28.53 203.029 27.7326C203.599 26.9352 204.396 26.3086 205.421 25.853C206.447 25.3973 207.666 25.0784 209.078 24.8961C210.513 24.7138 212.074 24.6227 213.76 24.6227V22.8456C213.76 22.2532 213.658 21.7292 213.452 21.2736C213.27 20.8179 212.917 20.4648 212.393 20.2141C211.892 19.9635 211.163 19.8382 210.206 19.8382C209.249 19.8382 208.497 19.9635 207.95 20.2141C207.426 20.442 207.05 20.7382 206.823 21.1027C206.618 21.4444 206.515 21.8204 206.515 22.2305V22.7431H203.098C203.075 22.6292 203.063 22.5152 203.063 22.4013C203.063 22.2874 203.063 22.1507 203.063 21.9912C203.063 20.9204 203.36 20.0205 203.952 19.2914C204.567 18.5396 205.421 17.97 206.515 17.5827C207.609 17.1954 208.873 17.0017 210.308 17.0017C211.858 17.0017 213.145 17.2295 214.17 17.6852C215.218 18.1181 216.004 18.7446 216.528 19.5648C217.052 20.385 217.314 21.3761 217.314 22.538V31.6627C217.314 32.0956 217.417 32.4032 217.622 32.5854C217.85 32.7677 218.112 32.8588 218.408 32.8588H219.638V35.251C219.365 35.365 219.023 35.4789 218.613 35.5928C218.203 35.7067 217.724 35.7637 217.178 35.7637C216.562 35.7637 216.038 35.6498 215.606 35.4219C215.195 35.2169 214.854 34.9207 214.58 34.5334C214.33 34.1233 214.159 33.6676 214.068 33.1664H213.863C213.452 33.6904 212.951 34.1575 212.359 34.5676C211.789 34.9549 211.129 35.251 210.377 35.4561C209.625 35.6839 208.782 35.7978 207.848 35.7978ZM208.839 32.8588C209.545 32.8588 210.195 32.7563 210.787 32.5512C211.402 32.3234 211.926 32.0158 212.359 31.6285C212.792 31.2184 213.134 30.74 213.384 30.1932C213.635 29.6236 213.76 29.0085 213.76 28.3477V27.1516C212.188 27.1516 210.81 27.2428 209.625 27.425C208.44 27.6073 207.517 27.949 206.857 28.4503C206.196 28.9287 205.866 29.6008 205.866 30.4666C205.866 30.9906 205.98 31.4349 206.207 31.7994C206.435 32.1411 206.777 32.4032 207.233 32.5854C207.688 32.7677 208.224 32.8588 208.839 32.8588Z" fill="#E9E9E9"/>
<path d="M183.712 35.3877V17.4117H186.651L186.959 19.9749H187.198C187.631 19.3141 188.143 18.7673 188.736 18.3345C189.328 17.9016 189.977 17.5712 190.684 17.3434C191.413 17.1156 192.21 17.0016 193.076 17.0016C194.215 17.0016 195.217 17.2067 196.083 17.6168C196.949 18.0041 197.621 18.642 198.1 19.5306C198.601 20.4191 198.851 21.6152 198.851 23.1189V35.3877H195.297V23.6657C195.297 22.9822 195.206 22.4127 195.024 21.957C194.864 21.5013 194.625 21.1368 194.306 20.8634C193.987 20.59 193.611 20.3963 193.178 20.2824C192.745 20.1685 192.267 20.1116 191.743 20.1116C190.923 20.1116 190.171 20.3166 189.487 20.7267C188.827 21.114 188.291 21.6608 187.881 22.3671C187.471 23.0734 187.266 23.905 187.266 24.8619V35.3877H183.712Z" fill="#E9E9E9"/>
<path d="M168.038 41.6073C167.354 41.6073 166.784 41.5503 166.329 41.4364C165.873 41.3452 165.588 41.2883 165.474 41.2655V38.7024H167.183C167.684 38.7024 168.186 38.5885 168.687 38.3606C169.211 38.1328 169.678 37.7683 170.088 37.2671C170.498 36.7658 170.84 36.1393 171.113 35.3874L164.107 17.4115H167.832L171.318 26.3653C171.478 26.7754 171.649 27.288 171.831 27.9032C172.036 28.5183 172.23 29.1448 172.412 29.7828C172.617 30.4207 172.788 30.9903 172.925 31.4915H173.095C173.209 31.1498 173.323 30.7625 173.437 30.3296C173.574 29.8739 173.711 29.4069 173.847 28.9284C173.984 28.45 174.121 27.9943 174.257 27.5614C174.394 27.1057 174.508 26.7184 174.599 26.3995L177.504 17.4115H181.126L175.043 34.7039C174.702 35.6608 174.326 36.5608 173.916 37.4038C173.505 38.2467 173.027 38.9758 172.48 39.5909C171.956 40.2289 171.33 40.7187 170.601 41.0605C169.872 41.425 169.017 41.6073 168.038 41.6073Z" fill="#E9E9E9"/>
<path d="M154.276 35.3877V17.4117H157.215L157.523 20.3166H157.728C157.933 19.747 158.195 19.2116 158.514 18.7104C158.856 18.2092 159.289 17.7991 159.813 17.4801C160.359 17.1611 161.02 17.0016 161.795 17.0016C162.159 17.0016 162.478 17.0358 162.752 17.1042C163.048 17.1725 163.276 17.2295 163.435 17.275V20.6242H162.239C161.51 20.6242 160.861 20.7381 160.291 20.9659C159.744 21.1938 159.277 21.5355 158.89 21.9912C158.525 22.424 158.252 22.9595 158.07 23.5974C157.91 24.2353 157.831 24.953 157.831 25.7504V35.3877H154.276Z" fill="#E9E9E9"/>
<path d="M145.377 35.3878V11.9438H149.205V35.3878H145.377Z" fill="#E9E9E9"/>
<path d="M123.646 35.7978C123.076 35.7978 122.461 35.7295 121.8 35.5928C121.14 35.4561 120.513 35.2055 119.921 34.841C119.351 34.4764 118.884 33.9752 118.519 33.3373C118.155 32.6765 117.973 31.8222 117.973 30.7742C117.973 29.5439 118.257 28.53 118.827 27.7326C119.397 26.9352 120.194 26.3086 121.219 25.853C122.245 25.3973 123.463 25.0784 124.876 24.8961C126.311 24.7138 127.872 24.6227 129.558 24.6227V22.8456C129.558 22.2532 129.455 21.7292 129.25 21.2736C129.068 20.8179 128.715 20.4648 128.191 20.2141C127.69 19.9635 126.961 19.8382 126.004 19.8382C125.047 19.8382 124.295 19.9635 123.748 20.2141C123.224 20.442 122.848 20.7382 122.62 21.1027C122.415 21.4444 122.313 21.8204 122.313 22.2305V22.7431H118.895C118.873 22.6292 118.861 22.5152 118.861 22.4013C118.861 22.2874 118.861 22.1507 118.861 21.9912C118.861 20.9204 119.157 20.0205 119.75 19.2914C120.365 18.5396 121.219 17.97 122.313 17.5827C123.406 17.1954 124.671 17.0017 126.106 17.0017C127.656 17.0017 128.943 17.2295 129.968 17.6852C131.016 18.1181 131.802 18.7446 132.326 19.5648C132.85 20.385 133.112 21.3761 133.112 22.538V31.6627C133.112 32.0956 133.215 32.4032 133.42 32.5854C133.648 32.7677 133.91 32.8588 134.206 32.8588H135.436V35.251C135.163 35.365 134.821 35.4789 134.411 35.5928C134.001 35.7067 133.522 35.7637 132.975 35.7637C132.36 35.7637 131.836 35.6498 131.403 35.4219C130.993 35.2169 130.652 34.9207 130.378 34.5334C130.127 34.1233 129.957 33.6676 129.865 33.1664H129.66C129.25 33.6904 128.749 34.1575 128.157 34.5676C127.587 34.9549 126.926 35.251 126.175 35.4561C125.423 35.6839 124.58 35.7978 123.646 35.7978ZM124.637 32.8588C125.343 32.8588 125.992 32.7563 126.585 32.5512C127.2 32.3234 127.724 32.0158 128.157 31.6285C128.59 31.2184 128.931 30.74 129.182 30.1932C129.433 29.6236 129.558 29.0085 129.558 28.3477V27.1516C127.986 27.1516 126.607 27.2428 125.423 27.425C124.238 27.6073 123.315 27.949 122.655 28.4503C121.994 28.9287 121.664 29.6008 121.664 30.4666C121.664 30.9906 121.777 31.4349 122.005 31.7994C122.233 32.1411 122.575 32.4032 123.031 32.5854C123.486 32.7677 124.022 32.8588 124.637 32.8588Z" fill="#E9E9E9"/>
<path d="M106.394 35.3874L99.7295 17.4115H103.455L106.564 25.9894C106.701 26.3995 106.872 26.9349 107.077 27.5956C107.282 28.2335 107.487 28.8942 107.692 29.5777C107.897 30.2612 108.08 30.8764 108.239 31.4232H108.41C108.547 30.8991 108.706 30.3068 108.888 29.6461C109.093 28.9626 109.298 28.2905 109.503 27.6298C109.709 26.969 109.891 26.4223 110.05 25.9894L113.126 17.4115H116.749L110.05 35.3874H106.394Z" fill="#E9E9E9"/>
<path d="M89.5105 35.7978C87.6423 35.7978 86.0588 35.4675 84.7602 34.8068C83.4843 34.1233 82.516 33.0866 81.8553 31.6969C81.2174 30.3071 80.8984 28.5414 80.8984 26.3998C80.8984 24.2354 81.2174 22.4697 81.8553 21.1027C82.516 19.7129 83.4843 18.6877 84.7602 18.027C86.0588 17.3435 87.6423 17.0017 89.5105 17.0017C91.4243 17.0017 93.0191 17.3435 94.295 18.027C95.5708 18.6877 96.5277 19.7129 97.1656 21.1027C97.8264 22.4697 98.1567 24.2354 98.1567 26.3998C98.1567 28.5414 97.8264 30.3071 97.1656 31.6969C96.5277 33.0866 95.5708 34.1233 94.295 34.8068C93.0191 35.4675 91.4243 35.7978 89.5105 35.7978ZM89.5105 32.8588C90.6496 32.8588 91.5838 32.6424 92.3128 32.2095C93.0419 31.7538 93.5773 31.0703 93.919 30.159C94.2836 29.2477 94.4658 28.0971 94.4658 26.7074V26.0922C94.4658 24.7024 94.2836 23.5519 93.919 22.6406C93.5773 21.7292 93.0419 21.0571 92.3128 20.6242C91.5838 20.1686 90.6496 19.9407 89.5105 19.9407C88.3941 19.9407 87.4714 20.1686 86.7423 20.6242C86.0133 21.0571 85.4665 21.7292 85.1019 22.6406C84.7602 23.5519 84.5893 24.7024 84.5893 26.0922V26.7074C84.5893 28.0971 84.7602 29.2477 85.1019 30.159C85.4665 31.0703 86.0133 31.7538 86.7423 32.2095C87.4714 32.6424 88.3941 32.8588 89.5105 32.8588Z" fill="#E9E9E9"/>
<path d="M73.7119 35.3878V10.6794H77.2661V35.3878H73.7119Z" fill="#E9E9E9"/>
<path d="M55.1914 35.3877V33.6107L64.7604 20.3508H55.8407V17.4118H69.8866V19.1547L60.2835 32.4487H70.365V35.3877H55.1914Z" fill="#E9E9E9"/>
<path d="M44.9226 35.7978C43.0544 35.7978 41.4709 35.4675 40.1723 34.8068C38.8964 34.1233 37.9282 33.0866 37.2674 31.6969C36.6295 30.3071 36.3105 28.5414 36.3105 26.3998C36.3105 24.2354 36.6295 22.4697 37.2674 21.1027C37.9282 19.7129 38.8964 18.6877 40.1723 18.027C41.4709 17.3435 43.0544 17.0017 44.9226 17.0017C46.8364 17.0017 48.4312 17.3435 49.7071 18.027C50.9829 18.6877 51.9398 19.7129 52.5778 21.1027C53.2385 22.4697 53.5688 24.2354 53.5688 26.3998C53.5688 28.5414 53.2385 30.3071 52.5778 31.6969C51.9398 33.0866 50.9829 34.1233 49.7071 34.8068C48.4312 35.4675 46.8364 35.7978 44.9226 35.7978ZM44.9226 32.8588C46.0618 32.8588 46.9959 32.6424 47.7249 32.2095C48.454 31.7538 48.9894 31.0703 49.3311 30.159C49.6957 29.2477 49.8779 28.0971 49.8779 26.7074V26.0922C49.8779 24.7024 49.6957 23.5519 49.3311 22.6406C48.9894 21.7292 48.454 21.0571 47.7249 20.6242C46.9959 20.1686 46.0618 19.9407 44.9226 19.9407C43.8062 19.9407 42.8835 20.1686 42.1544 20.6242C41.4254 21.0571 40.8786 21.7292 40.514 22.6406C40.1723 23.5519 40.0014 24.7024 40.0014 26.0922V26.7074C40.0014 28.0971 40.1723 29.2477 40.514 30.159C40.8786 31.0703 41.4254 31.7538 42.1544 32.2095C42.8835 32.6424 43.8062 32.8588 44.9226 32.8588Z" fill="#E9E9E9"/>
</g>
<path d="M211.14 0.138855H213.564C214.041 0.138855 214.436 0.206493 214.749 0.341768C215.063 0.469923 215.308 0.633678 215.486 0.833031C215.671 1.02526 215.8 1.2353 215.871 1.46313C215.949 1.69096 215.988 1.90099 215.988 2.09323C215.988 2.30682 215.953 2.52753 215.881 2.75536C215.81 2.97608 215.696 3.18255 215.54 3.37478C215.383 3.56701 215.18 3.72721 214.931 3.85536C214.689 3.98352 214.397 4.05828 214.055 4.07964V4.12236L214.162 4.17575C214.247 4.21847 214.319 4.27187 214.376 4.33595C214.44 4.40003 214.518 4.50326 214.611 4.64566C214.71 4.78805 214.842 4.99097 215.006 5.2544C215.169 5.51071 215.401 5.85602 215.7 6.29032C215.8 6.43983 215.896 6.57511 215.988 6.69615C216.081 6.81006 216.177 6.90974 216.277 6.99517C216.376 7.07349 216.483 7.13401 216.597 7.17673C216.711 7.21945 216.843 7.24081 216.992 7.24081C217.028 7.24081 217.063 7.24081 217.099 7.24081C217.134 7.23369 217.17 7.22657 217.206 7.21945V7.61459C217.106 7.67155 217.006 7.70715 216.907 7.72139C216.807 7.73563 216.679 7.74275 216.522 7.74275C216.309 7.74275 216.123 7.71427 215.967 7.65731C215.817 7.60035 215.682 7.5256 215.561 7.43304C215.44 7.33336 215.326 7.21589 215.219 7.08061C215.12 6.94534 215.016 6.79582 214.91 6.63207L214.066 5.38255C213.938 5.1832 213.827 5.01588 213.735 4.88061C213.642 4.74533 213.543 4.63498 213.436 4.54954C213.329 4.4641 213.208 4.40359 213.073 4.36799C212.945 4.33239 212.781 4.31459 212.581 4.31459H212.111V7.61459H211.14V0.138855ZM212.111 0.608759V3.83401H213.211C213.496 3.83401 213.745 3.78417 213.959 3.68449C214.18 3.58481 214.365 3.45666 214.514 3.30002C214.664 3.13627 214.774 2.95828 214.845 2.76604C214.924 2.56669 214.963 2.3709 214.963 2.17866C214.963 1.95083 214.92 1.7408 214.835 1.54857C214.756 1.35633 214.639 1.19258 214.482 1.0573C214.326 0.914908 214.137 0.804552 213.916 0.726235C213.703 0.647917 213.461 0.608759 213.19 0.608759H212.111Z" fill="#E9E9E9"/>
<path d="M203.007 0.138855H207.834V0.726235H203.979V3.40682H207.289V3.89808H203.979V7.02721H207.834V7.61459H203.007V0.138855Z" fill="#E9E9E9"/>
<path d="M195.722 4.49614V7.61459H194.75V0.138855H197.249C197.662 0.138855 198.022 0.199373 198.328 0.320409C198.634 0.441445 198.887 0.605199 199.086 0.811671C199.292 1.01102 199.445 1.24954 199.545 1.52721C199.645 1.79776 199.695 2.08255 199.695 2.38158C199.695 2.69485 199.638 2.99031 199.524 3.26799C199.41 3.53854 199.239 3.78061 199.011 3.9942C198.79 4.20067 198.513 4.36443 198.178 4.48546C197.844 4.6065 197.459 4.66702 197.025 4.66702C196.768 4.66702 196.533 4.65278 196.32 4.6243C196.106 4.5887 195.907 4.54598 195.722 4.49614ZM195.722 0.608759V4.05828C195.871 4.11524 196.039 4.15439 196.224 4.17575C196.409 4.18999 196.612 4.19711 196.833 4.19711C197.153 4.19711 197.427 4.14371 197.655 4.03692C197.883 3.93012 198.071 3.79129 198.221 3.62041C198.37 3.44954 198.477 3.26087 198.541 3.05439C198.612 2.8408 198.648 2.63077 198.648 2.42429C198.648 2.2107 198.609 1.99711 198.531 1.78352C198.459 1.56281 198.349 1.36701 198.2 1.19614C198.05 1.01814 197.861 0.875749 197.633 0.768953C197.406 0.662157 197.142 0.608759 196.843 0.608759H195.722Z" fill="#E9E9E9"/>
<path d="M183.052 3.8768C183.052 3.47097 183.127 3.04023 183.276 2.58456C183.433 2.1289 183.675 1.71239 184.002 1.33505C184.33 0.95058 184.746 0.633751 185.252 0.384559C185.757 0.135368 186.362 0.0107727 187.067 0.0107727C187.779 0.0107727 188.395 0.138928 188.915 0.395239C189.442 0.64443 189.876 0.961259 190.218 1.34573C190.56 1.73019 190.812 2.15026 190.976 2.60592C191.14 3.05447 191.222 3.47809 191.222 3.8768C191.222 4.14023 191.183 4.4179 191.104 4.70981C191.033 5.00172 190.923 5.29363 190.773 5.58554C190.631 5.87033 190.446 6.14444 190.218 6.40787C189.99 6.66418 189.719 6.89201 189.406 7.09136C189.1 7.29072 188.751 7.45091 188.36 7.57195C187.975 7.68586 187.544 7.74282 187.067 7.74282C186.362 7.74282 185.757 7.61823 185.252 7.36903C184.746 7.11272 184.33 6.79233 184.002 6.40787C183.675 6.0234 183.433 5.6069 183.276 5.15835C183.127 4.70269 183.052 4.2755 183.052 3.8768ZM184.098 3.8768C184.098 4.37518 184.173 4.8344 184.323 5.25447C184.479 5.66741 184.689 6.0234 184.953 6.32243C185.223 6.62146 185.54 6.85641 185.903 7.02729C186.266 7.19104 186.661 7.27292 187.089 7.27292C187.509 7.27292 187.904 7.19104 188.274 7.02729C188.651 6.85641 188.979 6.62146 189.257 6.32243C189.541 6.0234 189.766 5.66741 189.929 5.25447C190.093 4.8344 190.175 4.37518 190.175 3.8768C190.175 3.37841 190.093 2.92275 189.929 2.5098C189.766 2.08974 189.541 1.73019 189.257 1.43116C188.979 1.13213 188.651 0.900741 188.274 0.736987C187.904 0.566113 187.509 0.480676 187.089 0.480676C186.661 0.480676 186.266 0.566113 185.903 0.736987C185.54 0.900741 185.223 1.13213 184.953 1.43116C184.689 1.73019 184.479 2.08974 184.323 2.5098C184.173 2.92275 184.098 3.37841 184.098 3.8768Z" fill="#E9E9E9"/>
<path d="M175.666 7.61459V0.138855H176.638V7.02721H180.493V7.61459H175.666Z" fill="#E9E9E9"/>
<path d="M167.531 0.138855H172.358V0.726235H168.503V3.40682H171.814V3.89808H168.503V7.02721H172.358V7.61459H167.531V0.138855Z" fill="#E9E9E9"/>
<path d="M157.415 0.138855H158.568L161.132 6.29032H161.174L163.663 0.138855H164.218L161.185 7.61459H160.544L157.415 0.138855Z" fill="#E9E9E9"/>
<path d="M150.245 0.138855H155.072V0.726235H151.217V3.40682H154.528V3.89808H151.217V7.02721H155.072V7.61459H150.245V0.138855Z" fill="#E9E9E9"/>
<path d="M140.476 7.61459V0.138855H142.932C143.523 0.138855 144.064 0.234972 144.555 0.427205C145.046 0.612318 145.467 0.872189 145.815 1.20682C146.171 1.53433 146.445 1.92591 146.638 2.38158C146.837 2.83724 146.937 3.3285 146.937 3.85536C146.937 4.40359 146.834 4.90909 146.627 5.37187C146.428 5.82754 146.15 6.22268 145.794 6.55731C145.445 6.89194 145.036 7.15181 144.566 7.33692C144.096 7.52204 143.594 7.61459 143.06 7.61459H140.476ZM141.447 7.14469H142.622C143.206 7.14469 143.701 7.04857 144.107 6.85634C144.52 6.65699 144.858 6.40067 145.121 6.08741C145.385 5.77414 145.577 5.42527 145.698 5.0408C145.819 4.64922 145.879 4.26119 145.879 3.87672C145.879 3.44954 145.808 3.04015 145.666 2.64857C145.523 2.24986 145.313 1.90099 145.036 1.60196C144.765 1.29581 144.427 1.05374 144.021 0.875749C143.615 0.697756 143.149 0.608759 142.622 0.608759H141.447V7.14469Z" fill="#E9E9E9"/>
<path d="M129.822 6.97379C129.387 7.29418 128.996 7.50066 128.647 7.59321C128.305 7.68577 127.988 7.73205 127.696 7.73205C127.262 7.73205 126.878 7.67509 126.543 7.56117C126.215 7.44014 125.938 7.2835 125.71 7.09127C125.489 6.89192 125.322 6.66765 125.208 6.41845C125.094 6.16926 125.037 5.91651 125.037 5.6602C125.037 5.38965 125.087 5.14046 125.187 4.91263C125.293 4.6848 125.436 4.47476 125.614 4.28253C125.799 4.08318 126.013 3.90518 126.255 3.74855C126.497 3.58479 126.76 3.43528 127.045 3.3C126.817 2.97962 126.621 2.68771 126.458 2.42428C126.301 2.15372 126.223 1.86893 126.223 1.56991C126.223 1.39191 126.251 1.21036 126.308 1.02524C126.372 0.833011 126.468 0.662137 126.596 0.512622C126.732 0.363108 126.899 0.242071 127.098 0.149515C127.305 0.0498381 127.55 0 127.835 0C128.056 0 128.262 0.0355988 128.455 0.106797C128.647 0.177994 128.814 0.281231 128.957 0.416506C129.099 0.551781 129.213 0.715535 129.298 0.907768C129.384 1.09288 129.426 1.30291 129.426 1.53787C129.426 1.8369 129.323 2.13237 129.117 2.42428C128.917 2.70907 128.569 2.96894 128.07 3.20389L130.195 6.00195C130.409 5.71716 130.573 5.39321 130.687 5.0301C130.801 4.65988 130.868 4.18997 130.89 3.62039H131.723C131.687 4.00486 131.612 4.35017 131.498 4.65632C131.391 4.96247 131.27 5.23302 131.135 5.46797C131.007 5.70292 130.879 5.89871 130.751 6.05535C130.63 6.20486 130.537 6.31522 130.473 6.38642L131.445 7.61457H130.313L129.822 6.97379ZM127.889 0.469904C127.732 0.469904 127.597 0.498383 127.483 0.555341C127.376 0.605179 127.287 0.672817 127.216 0.758254C127.145 0.843691 127.091 0.939807 127.056 1.0466C127.027 1.1534 127.013 1.2602 127.013 1.36699C127.013 1.61618 127.091 1.86181 127.248 2.10389C127.404 2.33884 127.597 2.59871 127.824 2.8835C127.917 2.83366 128.017 2.76602 128.124 2.68059C128.237 2.58803 128.341 2.48479 128.433 2.37088C128.526 2.24984 128.601 2.11457 128.658 1.96505C128.722 1.81554 128.754 1.65178 128.754 1.47379C128.754 1.38123 128.739 1.278 128.711 1.16408C128.682 1.04304 128.636 0.932687 128.572 0.833011C128.508 0.733334 128.419 0.647897 128.305 0.5767C128.198 0.505502 128.059 0.469904 127.889 0.469904ZM127.312 3.67379C126.792 3.94434 126.433 4.21133 126.233 4.47476C126.041 4.73819 125.945 5.0301 125.945 5.35049C125.945 5.6424 126.005 5.90227 126.126 6.1301C126.247 6.35082 126.404 6.53949 126.596 6.69613C126.796 6.85276 127.013 6.97379 127.248 7.05923C127.49 7.13755 127.728 7.17671 127.963 7.17671C128.02 7.17671 128.106 7.17315 128.22 7.16603C128.341 7.15179 128.476 7.12687 128.625 7.09127C128.775 7.05567 128.928 7.00227 129.085 6.93108C129.248 6.85988 129.405 6.7602 129.555 6.63205L127.312 3.67379Z" fill="#E9E9E9"/>
<path d="M110.861 0.138855H113.286C113.763 0.138855 114.158 0.206493 114.471 0.341768C114.784 0.469923 115.03 0.633678 115.208 0.833031C115.393 1.02526 115.521 1.2353 115.592 1.46313C115.671 1.69096 115.71 1.90099 115.71 2.09323C115.71 2.30682 115.674 2.52753 115.603 2.75536C115.532 2.97608 115.418 3.18255 115.261 3.37478C115.105 3.56701 114.902 3.72721 114.653 3.85536C114.411 3.98352 114.119 4.05828 113.777 4.07964V4.12236L113.884 4.17575C113.969 4.21847 114.04 4.27187 114.097 4.33595C114.161 4.40003 114.24 4.50326 114.332 4.64566C114.432 4.78805 114.564 4.99097 114.727 5.2544C114.891 5.51071 115.122 5.85602 115.422 6.29032C115.521 6.43983 115.617 6.57511 115.71 6.69615C115.802 6.81006 115.899 6.90974 115.998 6.99517C116.098 7.07349 116.205 7.13401 116.319 7.17673C116.433 7.21945 116.564 7.24081 116.714 7.24081C116.749 7.24081 116.785 7.24081 116.821 7.24081C116.856 7.23369 116.892 7.22657 116.927 7.21945V7.61459C116.828 7.67155 116.728 7.70715 116.628 7.72139C116.529 7.73563 116.4 7.74275 116.244 7.74275C116.03 7.74275 115.845 7.71427 115.689 7.65731C115.539 7.60035 115.404 7.5256 115.283 7.43304C115.162 7.33336 115.048 7.21589 114.941 7.08061C114.841 6.94534 114.738 6.79582 114.631 6.63207L113.788 5.38255C113.659 5.1832 113.549 5.01588 113.456 4.88061C113.364 4.74533 113.264 4.63498 113.157 4.54954C113.051 4.4641 112.93 4.40359 112.794 4.36799C112.666 4.33239 112.502 4.31459 112.303 4.31459H111.833V7.61459H110.861V0.138855ZM111.833 0.608759V3.83401H112.933C113.218 3.83401 113.467 3.78417 113.681 3.68449C113.901 3.58481 114.087 3.45666 114.236 3.30002C114.386 3.13627 114.496 2.95828 114.567 2.76604C114.645 2.56669 114.685 2.3709 114.685 2.17866C114.685 1.95083 114.642 1.7408 114.556 1.54857C114.478 1.35633 114.361 1.19258 114.204 1.0573C114.047 0.914908 113.859 0.804552 113.638 0.726235C113.424 0.647917 113.182 0.608759 112.912 0.608759H111.833Z" fill="#E9E9E9"/>
<path d="M102.728 0.138855H107.555V0.726235H103.699V3.40682H107.01V3.89808H103.699V7.02721H107.555V7.61459H102.728V0.138855Z" fill="#E9E9E9"/>
<path d="M97.9657 0.138928H98.457V7.74282H98.4036L92.4764 1.90107H92.4336V7.61467H91.9424V0.0107727H91.9958L97.923 5.85253H97.9657V0.138928Z" fill="#E9E9E9"/>
<path d="M88.3109 4.28262V7.61467H87.3924V7.1768C87.1219 7.3192 86.7801 7.45091 86.3672 7.57195C85.9543 7.68586 85.4808 7.74282 84.9468 7.74282C84.2348 7.74282 83.6225 7.63247 83.1099 7.41175C82.5973 7.18392 82.1737 6.88489 81.839 6.51466C81.5115 6.13732 81.2659 5.71369 81.1021 5.24379C80.9455 4.76677 80.8672 4.2755 80.8672 3.77C80.8672 3.17906 80.9704 2.6522 81.1769 2.18942C81.3834 1.71951 81.6717 1.32437 82.0419 1.00398C82.4122 0.683589 82.85 0.437958 83.3555 0.267084C83.8682 0.0962098 84.4271 0.0107727 85.0322 0.0107727C85.5591 0.0107727 86.0148 0.0712904 86.3992 0.192326C86.7908 0.306242 87.1183 0.448637 87.3818 0.619511C87.6452 0.790385 87.8517 0.975499 88.0012 1.17485C88.1578 1.36708 88.2682 1.54152 88.3322 1.69815H87.5633C87.5206 1.54864 87.4245 1.40268 87.275 1.26029C87.1326 1.11077 86.9475 0.979058 86.7196 0.865143C86.4918 0.751227 86.2319 0.65867 85.94 0.587472C85.6481 0.516275 85.3348 0.480676 85.0002 0.480676C84.4947 0.480676 84.0497 0.562553 83.6652 0.726307C83.2879 0.890062 82.9675 1.12145 82.7041 1.42048C82.4407 1.71951 82.2413 2.0755 82.106 2.48845C81.9779 2.90139 81.9138 3.3535 81.9138 3.84476C81.9138 4.34314 81.9814 4.80236 82.1167 5.22243C82.2591 5.63538 82.4691 5.99492 82.7468 6.30107C83.0245 6.6001 83.3733 6.83505 83.7934 7.00593C84.2135 7.1768 84.7047 7.26224 85.2672 7.26224C85.6944 7.26224 86.0753 7.2124 86.4099 7.11272C86.7445 7.01305 87.0721 6.85997 87.3924 6.6535V4.72049H86.1963V4.28262H88.3109Z" fill="#E9E9E9"/>
<path d="M75.835 0.138855H76.8068V7.61459H75.835V0.138855Z" fill="#E9E9E9"/>
<path d="M66.1387 5.72437H66.8649C66.872 5.84541 66.9005 5.99492 66.9503 6.17292C67.0002 6.34379 67.0963 6.5111 67.2387 6.67486C67.3811 6.83861 67.5875 6.98101 67.8581 7.10204C68.1286 7.21596 68.4882 7.27292 68.9367 7.27292C69.4992 7.27292 69.9477 7.16612 70.2824 6.95253C70.6241 6.73894 70.795 6.40075 70.795 5.93796C70.795 5.56774 70.6882 5.27227 70.4746 5.05156C70.261 4.83084 69.9905 4.64573 69.6629 4.49622C69.3426 4.33958 68.9937 4.20075 68.6163 4.07971C68.239 3.95867 67.8866 3.81272 67.5591 3.64185C67.2387 3.47097 66.9717 3.25738 66.7581 3.00107C66.5445 2.74476 66.4377 2.40657 66.4377 1.9865C66.4377 1.66611 66.5018 1.38132 66.6299 1.13213C66.7652 0.882942 66.9432 0.676469 67.1639 0.512715C67.3917 0.348961 67.6516 0.224365 67.9435 0.138928C68.2426 0.0534911 68.5558 0.0107727 68.8833 0.0107727C69.1966 0.0107727 69.4956 0.0499314 69.7804 0.128248C70.0723 0.199446 70.3322 0.309802 70.56 0.459317C70.7879 0.601712 70.9765 0.779706 71.1261 0.993298C71.2756 1.19977 71.3717 1.43472 71.4144 1.69815H70.6882C70.6312 1.27809 70.439 0.971939 70.1115 0.779705C69.7911 0.580352 69.3995 0.480676 68.9367 0.480676C68.6591 0.480676 68.4134 0.516275 68.1998 0.587472C67.9862 0.65155 67.8047 0.740547 67.6552 0.854463C67.5128 0.961259 67.4024 1.08941 67.3241 1.23893C67.2529 1.38844 67.2173 1.54864 67.2173 1.71951C67.2173 2.02566 67.3277 2.27129 67.5484 2.45641C67.7691 2.64152 68.0432 2.80527 68.3707 2.94767C68.7053 3.09006 69.0649 3.22534 69.4494 3.3535C69.8409 3.48165 70.2005 3.64185 70.528 3.83408C70.8626 4.01919 71.1403 4.25414 71.361 4.53893C71.5817 4.8166 71.6921 5.17615 71.6921 5.61758C71.6921 5.93796 71.628 6.22987 71.4998 6.4933C71.3717 6.75674 71.1901 6.98101 70.9552 7.16612C70.7202 7.35123 70.4354 7.49363 70.1008 7.59331C69.7733 7.69298 69.4031 7.74282 68.9901 7.74282C68.5843 7.74282 68.2105 7.69654 67.8688 7.60399C67.527 7.50431 67.228 7.36903 66.9717 7.19816C66.7225 7.02017 66.5231 6.80657 66.3736 6.55738C66.2312 6.30819 66.1529 6.03052 66.1387 5.72437Z" fill="#E9E9E9"/>
<path d="M58.8896 0.138855H63.7168V0.726235H59.8615V3.40682H63.1722V3.89808H59.8615V7.02721H63.7168V7.61459H58.8896V0.138855Z" fill="#E9E9E9"/>
<path d="M49.124 7.61459V0.138855H51.5803C52.1713 0.138855 52.7124 0.234972 53.2036 0.427205C53.6949 0.612318 54.115 0.872189 54.4638 1.20682C54.8198 1.53433 55.0939 1.92591 55.2862 2.38158C55.4855 2.83724 55.5852 3.3285 55.5852 3.85536C55.5852 4.40359 55.482 4.90909 55.2755 5.37187C55.0761 5.82754 54.7985 6.22268 54.4425 6.55731C54.0936 6.89194 53.6842 7.15181 53.2143 7.33692C52.7444 7.52204 52.2425 7.61459 51.7085 7.61459H49.124ZM50.0959 7.14469H51.2706C51.8544 7.14469 52.3493 7.04857 52.7551 6.85634C53.168 6.65699 53.5062 6.40067 53.7697 6.08741C54.0331 5.77414 54.2253 5.42527 54.3464 5.0408C54.4674 4.64922 54.5279 4.26119 54.5279 3.87672C54.5279 3.44954 54.4567 3.04015 54.3143 2.64857C54.1719 2.24986 53.9619 1.90099 53.6842 1.60196C53.4137 1.29581 53.0755 1.05374 52.6697 0.875749C52.2638 0.697756 51.7975 0.608759 51.2706 0.608759H50.0959V7.14469Z" fill="#E9E9E9"/>
<defs>
<clipPath id="clip0_363_638">
<rect width="183.69" height="32.0389" fill="white" transform="translate(36.3105 10.6794)"/>
</clipPath>
</defs>
</svg>
