<svg width="150" height="30" viewBox="0 0 150 30" fill="none" xmlns="http://www.w3.org/2000/svg">
<path d="M0 24.2483V0H11.7962V12.0888L19.7667 0H23.1303L16.6954 9.75586L23.301 24.2483H20.0835L14.843 12.5483L11.7962 16.6132V24.2483H0Z" fill="#525759"/>
<path d="M9.32181 6.13863L3.76367 8.20312L3.76367 6.37844L5.88357 5.67985C5.98904 5.64509 6.14372 5.59991 6.34763 5.5443C6.5445 5.48869 6.75192 5.42961 6.96989 5.36705C7.18082 5.30449 7.37769 5.24888 7.5605 5.20022L7.5605 5.13766C7.39176 5.089 7.20191 5.03687 6.99098 4.98126C6.78004 4.9187 6.57614 4.85961 6.37927 4.804C6.17536 4.74839 6.01013 4.69973 5.88357 4.65803L3.76367 3.96986L3.76367 2.2703L9.32181 4.34522L9.32181 6.13863Z" fill="#E9E9E9"/>
<path d="M9.44798 11.3437C9.44798 11.9693 9.34603 12.501 9.14213 12.939C8.93119 13.3769 8.61127 13.714 8.18237 13.9504C7.75347 14.1797 7.20504 14.2944 6.53708 14.2944C5.88318 14.2944 5.34178 14.1797 4.91288 13.9504C4.48397 13.721 4.16406 13.3908 3.95312 12.9598C3.74219 12.5288 3.63672 12.011 3.63672 11.4062C3.63672 10.8084 3.73867 10.3045 3.94257 9.89434C4.14648 9.47727 4.45937 9.16099 4.88124 8.94551C5.30311 8.73002 5.84802 8.62228 6.51598 8.62228L6.88512 8.62228L6.88512 12.5636C7.18043 12.5636 7.43004 12.5219 7.63394 12.4385C7.83784 12.3551 7.99253 12.2265 8.098 12.0527C8.20346 11.8789 8.2562 11.646 8.2562 11.3541C8.2562 11.1803 8.2351 11.0274 8.19292 10.8953C8.15073 10.7632 8.09096 10.652 8.01362 10.5617C7.92925 10.4713 7.83081 10.4018 7.71831 10.3531C7.60581 10.3045 7.47925 10.2801 7.33863 10.2801L7.33863 8.62228C7.67613 8.62228 7.97847 8.68484 8.24565 8.80996C8.5058 8.92813 8.72729 9.10538 8.9101 9.34172C9.08588 9.57806 9.21947 9.86654 9.31087 10.2071C9.40228 10.5408 9.44798 10.9196 9.44798 11.3437ZM5.92536 12.5532L5.92536 10.3635C5.74255 10.3635 5.58435 10.3879 5.45076 10.4365C5.31014 10.4782 5.19412 10.5443 5.10272 10.6346C5.01131 10.7181 4.94452 10.8223 4.90233 10.9474C4.85311 11.0656 4.8285 11.2046 4.8285 11.3645C4.8285 11.6148 4.87069 11.8233 4.95506 11.9901C5.03944 12.1569 5.16248 12.2855 5.3242 12.3759C5.48592 12.4663 5.68631 12.5254 5.92536 12.5532Z" fill="#E9E9E9"/>
<path d="M9.32179 21.769L2.07617 21.769L2.07617 18.7766C2.07617 17.998 2.20625 17.3411 2.4664 16.8059C2.72655 16.2637 3.12382 15.8536 3.65819 15.5756C4.18552 15.2906 4.86403 15.1481 5.69371 15.1481C6.51636 15.1481 7.19838 15.2906 7.73978 15.5756C8.27415 15.8536 8.67141 16.2637 8.93156 16.8059C9.19172 17.3411 9.32179 17.998 9.32179 18.7766L9.32179 21.769ZM7.84525 19.9027L7.84525 18.7974C7.84525 18.5055 7.80306 18.2518 7.71869 18.0363C7.63431 17.8208 7.51127 17.64 7.34955 17.4941C7.18783 17.3481 6.98744 17.2404 6.74838 17.1708C6.50932 17.1013 6.23511 17.0666 5.92574 17.0666L5.48277 17.0666C5.16637 17.0666 4.88864 17.1013 4.64958 17.1708C4.41052 17.2404 4.21013 17.3481 4.04842 17.4941C3.8867 17.64 3.76365 17.8208 3.67928 18.0363C3.5949 18.2518 3.55272 18.5055 3.55272 18.7974L3.55272 19.9027L7.84525 19.9027Z" fill="#E9E9E9"/>
<g clip-path="url(#clip0_351_451)">
<path d="M141.714 24.4073C141.325 24.4073 140.906 24.3607 140.455 24.2675C140.005 24.1743 139.578 24.0034 139.174 23.7549C138.786 23.5064 138.467 23.1646 138.219 22.7297C137.97 22.2792 137.846 21.6967 137.846 20.9821C137.846 20.1433 138.04 19.452 138.428 18.9083C138.817 18.3646 139.36 17.9374 140.059 17.6267C140.758 17.3161 141.589 17.0986 142.553 16.9743C143.531 16.85 144.595 16.7879 145.745 16.7879V15.5763C145.745 15.1724 145.675 14.8151 145.535 14.5044C145.411 14.1937 145.17 13.953 144.813 13.7821C144.471 13.6112 143.974 13.5258 143.321 13.5258C142.669 13.5258 142.156 13.6112 141.784 13.7821C141.426 13.9374 141.17 14.1394 141.015 14.3879C140.875 14.6209 140.805 14.8772 140.805 15.1568V15.5064H138.475C138.459 15.4287 138.452 15.351 138.452 15.2734C138.452 15.1957 138.452 15.1025 138.452 14.9937C138.452 14.2636 138.653 13.65 139.057 13.153C139.477 12.6403 140.059 12.252 140.805 11.9879C141.551 11.7238 142.413 11.5918 143.391 11.5918C144.448 11.5918 145.325 11.7471 146.024 12.0578C146.739 12.353 147.275 12.7801 147.632 13.3394C147.989 13.8986 148.168 14.5743 148.168 15.3666V21.5879C148.168 21.8831 148.238 22.0928 148.378 22.217C148.533 22.3413 148.712 22.4034 148.914 22.4034H149.753V24.0345C149.566 24.1122 149.333 24.1899 149.053 24.2675C148.774 24.3452 148.448 24.384 148.075 24.384C147.655 24.384 147.298 24.3064 147.003 24.151C146.723 24.0112 146.49 23.8093 146.304 23.5452C146.133 23.2656 146.017 22.9549 145.954 22.6132H145.815C145.535 22.9704 145.193 23.2889 144.789 23.5685C144.401 23.8326 143.951 24.0345 143.438 24.1743C142.925 24.3297 142.351 24.4073 141.714 24.4073ZM142.389 22.4034C142.871 22.4034 143.314 22.3335 143.718 22.1937C144.137 22.0384 144.494 21.8287 144.789 21.5646C145.085 21.285 145.318 20.9588 145.488 20.586C145.659 20.1976 145.745 19.7782 145.745 19.3277V18.5122C144.673 18.5122 143.733 18.5743 142.925 18.6986C142.118 18.8229 141.488 19.0559 141.038 19.3976C140.587 19.7238 140.362 20.1821 140.362 20.7724C140.362 21.1297 140.44 21.4326 140.595 21.6811C140.751 21.9141 140.984 22.0928 141.294 22.217C141.605 22.3413 141.97 22.4034 142.389 22.4034Z" fill="#525759"/>
<path d="M125.258 24.1277V11.8714H127.262L127.471 13.619H127.635C127.93 13.1685 128.279 12.7957 128.683 12.5005C129.087 12.2054 129.53 11.9801 130.011 11.8248C130.508 11.6695 131.052 11.5918 131.642 11.5918C132.419 11.5918 133.102 11.7316 133.693 12.0112C134.283 12.2753 134.741 12.7102 135.068 13.3161C135.409 13.9219 135.58 14.7374 135.58 15.7627V24.1277H133.157V16.1355C133.157 15.6695 133.095 15.2811 132.97 14.9704C132.862 14.6598 132.699 14.4112 132.481 14.2248C132.264 14.0384 132.007 13.9064 131.712 13.8287C131.417 13.751 131.091 13.7122 130.734 13.7122C130.174 13.7122 129.662 13.852 129.196 14.1316C128.745 14.3957 128.38 14.7685 128.101 15.25C127.821 15.7316 127.681 16.2986 127.681 16.951V24.1277H125.258Z" fill="#525759"/>
<path d="M114.57 28.3682C114.104 28.3682 113.716 28.3293 113.405 28.2517C113.095 28.1895 112.9 28.1507 112.823 28.1352V26.3876H113.988C114.329 26.3876 114.671 26.3099 115.013 26.1546C115.37 25.9992 115.689 25.7507 115.968 25.409C116.248 25.0672 116.481 24.64 116.667 24.1274L111.891 11.8711H114.43L116.807 17.9759C116.916 18.2556 117.032 18.6051 117.157 19.0245C117.296 19.4439 117.428 19.8711 117.553 20.306C117.693 20.741 117.809 21.1293 117.902 21.4711H118.019C118.096 21.2381 118.174 20.974 118.252 20.6789C118.345 20.3682 118.438 20.0497 118.531 19.7235C118.625 19.3973 118.718 19.0866 118.811 18.7915C118.904 18.4808 118.982 18.2167 119.044 17.9992L121.025 11.8711H123.495L119.347 23.6614C119.114 24.3138 118.858 24.9274 118.578 25.5022C118.298 26.0769 117.972 26.574 117.599 26.9934C117.242 27.4284 116.815 27.7624 116.318 27.9954C115.821 28.2439 115.238 28.3682 114.57 28.3682Z" fill="#525759"/>
<path d="M105.188 24.1277V11.8714H107.192L107.402 13.852H107.542C107.682 13.4636 107.86 13.0986 108.078 12.7568C108.311 12.4151 108.606 12.1355 108.963 11.918C109.336 11.7005 109.787 11.5918 110.315 11.5918C110.563 11.5918 110.781 11.6151 110.967 11.6617C111.169 11.7083 111.324 11.7471 111.433 11.7782V14.0617H110.618C110.121 14.0617 109.678 14.1394 109.289 14.2947C108.917 14.45 108.598 14.6831 108.334 14.9937C108.086 15.2889 107.899 15.6539 107.775 16.0889C107.666 16.5238 107.612 17.0132 107.612 17.5568V24.1277H105.188Z" fill="#525759"/>
<path d="M99.1201 24.128V8.14355H101.73V24.128H99.1201Z" fill="#525759"/>
<path d="M84.3035 24.4073C83.9152 24.4073 83.4957 24.3607 83.0453 24.2675C82.5948 24.1743 82.1676 24.0034 81.7637 23.7549C81.3754 23.5064 81.0569 23.1646 80.8084 22.7297C80.5598 22.2792 80.4355 21.6967 80.4355 20.9821C80.4355 20.1433 80.6297 19.452 81.0181 18.9083C81.4064 18.3646 81.9501 17.9374 82.6491 17.6267C83.3482 17.3161 84.1792 17.0986 85.1423 16.9743C86.121 16.85 87.1851 16.7879 88.3346 16.7879V15.5763C88.3346 15.1724 88.2647 14.8151 88.1249 14.5044C88.0006 14.1937 87.7598 13.953 87.4025 13.7821C87.0608 13.6112 86.5637 13.5258 85.9113 13.5258C85.2589 13.5258 84.7462 13.6112 84.3734 13.7821C84.0161 13.9374 83.7598 14.1394 83.6045 14.3879C83.4647 14.6209 83.3948 14.8772 83.3948 15.1568V15.5064H81.0647C81.0491 15.4287 81.0414 15.351 81.0414 15.2734C81.0414 15.1957 81.0414 15.1025 81.0414 14.9937C81.0414 14.2636 81.2433 13.65 81.6472 13.153C82.0666 12.6403 82.6491 12.252 83.3948 11.9879C84.1404 11.7238 85.0025 11.5918 85.9812 11.5918C87.0375 11.5918 87.9152 11.7471 88.6142 12.0578C89.3288 12.353 89.8647 12.7801 90.222 13.3394C90.5792 13.8986 90.7579 14.5743 90.7579 15.3666V21.5879C90.7579 21.8831 90.8278 22.0928 90.9676 22.217C91.1229 22.3413 91.3016 22.4034 91.5035 22.4034H92.3423V24.0345C92.1559 24.1122 91.9229 24.1899 91.6433 24.2675C91.3637 24.3452 91.0375 24.384 90.6647 24.384C90.2453 24.384 89.888 24.3064 89.5928 24.151C89.3132 24.0112 89.0802 23.8093 88.8938 23.5452C88.7229 23.2656 88.6064 22.9549 88.5443 22.6132H88.4045C88.1249 22.9704 87.7831 23.2889 87.3792 23.5685C86.9909 23.8326 86.5404 24.0345 86.0278 24.1743C85.5152 24.3297 84.9404 24.4073 84.3035 24.4073ZM84.9792 22.4034C85.4608 22.4034 85.9035 22.3335 86.3074 22.1937C86.7268 22.0384 87.0841 21.8287 87.3792 21.5646C87.6744 21.285 87.9074 20.9588 88.0783 20.586C88.2491 20.1976 88.3346 19.7782 88.3346 19.3277V18.5122C87.2627 18.5122 86.3229 18.5743 85.5152 18.6986C84.7074 18.8229 84.0783 19.0559 83.6278 19.3976C83.1773 19.7238 82.9521 20.1821 82.9521 20.7724C82.9521 21.1297 83.0297 21.4326 83.1851 21.6811C83.3404 21.9141 83.5734 22.0928 83.8841 22.217C84.1948 22.3413 84.5598 22.4034 84.9792 22.4034Z" fill="#525759"/>
<path d="M72.5408 24.1274L67.9971 11.8711H70.5369L72.6573 17.7196C72.7505 17.9992 72.867 18.3643 73.0068 18.8148C73.1466 19.2497 73.2864 19.7002 73.4262 20.1662C73.566 20.6323 73.6903 21.0517 73.799 21.4245H73.9155C74.0087 21.0672 74.1175 20.6633 74.2417 20.2128C74.3815 19.7468 74.5213 19.2886 74.6612 18.8381C74.801 18.3876 74.9252 18.0148 75.034 17.7196L77.1311 11.8711H79.601L75.034 24.1274H72.5408Z" fill="#525759"/>
<path d="M61.0291 24.4073C59.7553 24.4073 58.6757 24.1821 57.7902 23.7316C56.9203 23.2656 56.2601 22.5588 55.8097 21.6112C55.3747 20.6636 55.1572 19.4598 55.1572 17.9996C55.1572 16.5238 55.3747 15.32 55.8097 14.3879C56.2601 13.4403 56.9203 12.7413 57.7902 12.2908C58.6757 11.8248 59.7553 11.5918 61.0291 11.5918C62.3339 11.5918 63.4213 11.8248 64.2912 12.2908C65.1611 12.7413 65.8135 13.4403 66.2485 14.3879C66.699 15.32 66.9242 16.5238 66.9242 17.9996C66.9242 19.4598 66.699 20.6636 66.2485 21.6112C65.8135 22.5588 65.1611 23.2656 64.2912 23.7316C63.4213 24.1821 62.3339 24.4073 61.0291 24.4073ZM61.0291 22.4034C61.8058 22.4034 62.4427 22.2559 62.9398 21.9607C63.4368 21.65 63.8019 21.184 64.0349 20.5627C64.2834 19.9413 64.4077 19.1568 64.4077 18.2093V17.7899C64.4077 16.8423 64.2834 16.0578 64.0349 15.4365C63.8019 14.8151 63.4368 14.3568 62.9398 14.0617C62.4427 13.751 61.8058 13.5957 61.0291 13.5957C60.2679 13.5957 59.6388 13.751 59.1417 14.0617C58.6446 14.3568 58.2718 14.8151 58.0232 15.4365C57.7902 16.0578 57.6737 16.8423 57.6737 17.7899V18.2093C57.6737 19.1568 57.7902 19.9413 58.0232 20.5627C58.2718 21.184 58.6446 21.65 59.1417 21.9607C59.6388 22.2559 60.2679 22.4034 61.0291 22.4034Z" fill="#525759"/>
<path d="M50.2578 24.1279V7.28125H52.6811V24.1279H50.2578Z" fill="#525759"/>
<path d="M37.6299 24.1279V22.9162L44.1542 13.8755H38.0726V11.8716H47.6493V13.0599L41.1017 22.124H47.9755V24.1279H37.6299Z" fill="#525759"/>
<path d="M30.6287 24.4073C29.3549 24.4073 28.2753 24.1821 27.3898 23.7316C26.5199 23.2656 25.8597 22.5588 25.4093 21.6112C24.9743 20.6636 24.7568 19.4598 24.7568 17.9996C24.7568 16.5238 24.9743 15.32 25.4093 14.3879C25.8597 13.4403 26.5199 12.7413 27.3898 12.2908C28.2753 11.8248 29.3549 11.5918 30.6287 11.5918C31.9335 11.5918 33.0209 11.8248 33.8908 12.2908C34.7607 12.7413 35.4131 13.4403 35.8481 14.3879C36.2986 15.32 36.5238 16.5238 36.5238 17.9996C36.5238 19.4598 36.2986 20.6636 35.8481 21.6112C35.4131 22.5588 34.7607 23.2656 33.8908 23.7316C33.0209 24.1821 31.9335 24.4073 30.6287 24.4073ZM30.6287 22.4034C31.4054 22.4034 32.0423 22.2559 32.5394 21.9607C33.0364 21.65 33.4015 21.184 33.6345 20.5627C33.883 19.9413 34.0073 19.1568 34.0073 18.2093V17.7899C34.0073 16.8423 33.883 16.0578 33.6345 15.4365C33.4015 14.8151 33.0364 14.3568 32.5394 14.0617C32.0423 13.751 31.4054 13.5957 30.6287 13.5957C29.8675 13.5957 29.2384 13.751 28.7413 14.0617C28.2442 14.3568 27.8714 14.8151 27.6229 15.4365C27.3898 16.0578 27.2733 16.8423 27.2733 17.7899V18.2093C27.2733 19.1568 27.3898 19.9413 27.6229 20.5627C27.8714 21.184 28.2442 21.65 28.7413 21.9607C29.2384 22.2559 29.8675 22.4034 30.6287 22.4034Z" fill="#525759"/>
</g>
<path d="M143.96 0.0947266H145.613C145.938 0.0947266 146.208 0.140843 146.421 0.233076C146.635 0.320455 146.802 0.432105 146.924 0.568028C147.05 0.699096 147.137 0.8423 147.186 0.997639C147.239 1.15298 147.266 1.29618 147.266 1.42725C147.266 1.57288 147.242 1.72337 147.193 1.87871C147.144 2.02919 147.067 2.16997 146.96 2.30104C146.853 2.43211 146.715 2.54133 146.545 2.62871C146.38 2.71609 146.181 2.76706 145.948 2.78162V2.81075L146.021 2.84715C146.079 2.87628 146.127 2.91269 146.166 2.95638C146.21 3.00007 146.263 3.07046 146.326 3.16754C146.394 3.26463 146.484 3.40298 146.596 3.58259C146.708 3.75735 146.865 3.99279 147.069 4.2889C147.137 4.39084 147.203 4.48308 147.266 4.5656C147.329 4.64327 147.394 4.71123 147.462 4.76948C147.53 4.82288 147.603 4.86414 147.681 4.89327C147.759 4.9224 147.848 4.93696 147.95 4.93696C147.975 4.93696 147.999 4.93696 148.023 4.93696C148.047 4.93211 148.072 4.92725 148.096 4.9224V5.19181C148.028 5.23065 147.96 5.25492 147.892 5.26463C147.824 5.27434 147.737 5.27919 147.63 5.27919C147.484 5.27919 147.358 5.25978 147.251 5.22094C147.149 5.18211 147.057 5.13113 146.975 5.06803C146.892 5.00007 146.814 4.91997 146.742 4.82774C146.674 4.7355 146.603 4.63356 146.53 4.52191L145.955 3.66997C145.868 3.53405 145.792 3.41997 145.729 3.32774C145.666 3.2355 145.598 3.16026 145.526 3.10201C145.453 3.04376 145.37 3.00249 145.278 2.97822C145.191 2.95395 145.079 2.94181 144.943 2.94181H144.623V5.19181H143.96V0.0947266ZM144.623 0.415115V2.61414H145.373C145.567 2.61414 145.737 2.58016 145.882 2.5122C146.033 2.44424 146.159 2.35686 146.261 2.25007C146.363 2.13842 146.438 2.01706 146.487 1.88599C146.54 1.75007 146.567 1.61657 146.567 1.4855C146.567 1.33016 146.538 1.18696 146.479 1.05589C146.426 0.924824 146.346 0.813173 146.239 0.72094C146.132 0.623853 146.004 0.54861 145.853 0.495212C145.708 0.441814 145.542 0.415115 145.358 0.415115H144.623Z" fill="black"/>
<path d="M138.415 0.0947266H141.706V0.495212H139.078V2.32288H141.335V2.65783H139.078V4.79133H141.706V5.19181H138.415V0.0947266Z" fill="black"/>
<path d="M133.448 3.0656V5.19181H132.785V0.0947266H134.489C134.771 0.0947266 135.016 0.135989 135.224 0.218513C135.433 0.301037 135.606 0.412688 135.741 0.553464C135.882 0.689387 135.987 0.852008 136.055 1.04133C136.123 1.22579 136.157 1.41997 136.157 1.62385C136.157 1.83745 136.118 2.0389 136.04 2.22822C135.962 2.41269 135.846 2.57774 135.691 2.72337C135.54 2.86414 135.351 2.97579 135.123 3.05832C134.894 3.14084 134.632 3.18211 134.336 3.18211C134.161 3.18211 134.001 3.1724 133.856 3.15298C133.71 3.12871 133.574 3.09958 133.448 3.0656ZM133.448 0.415115V2.76706C133.55 2.80589 133.664 2.83259 133.79 2.84715C133.916 2.85686 134.055 2.86172 134.205 2.86172C134.424 2.86172 134.61 2.82531 134.766 2.75249C134.921 2.67968 135.05 2.58502 135.152 2.46851C135.254 2.35201 135.326 2.22337 135.37 2.08259C135.419 1.93696 135.443 1.79376 135.443 1.65298C135.443 1.50735 135.416 1.36172 135.363 1.21609C135.314 1.0656 135.239 0.932105 135.137 0.815601C135.035 0.694241 134.907 0.597154 134.751 0.524338C134.596 0.451523 134.416 0.415115 134.212 0.415115H133.448Z" fill="black"/>
<path d="M124.81 2.64325C124.81 2.36655 124.861 2.07286 124.962 1.76218C125.069 1.4515 125.234 1.16752 125.458 0.910237C125.681 0.648101 125.965 0.432081 126.31 0.262178C126.654 0.0922756 127.067 0.00732422 127.547 0.00732422C128.033 0.00732422 128.453 0.0947027 128.807 0.26946C129.166 0.439363 129.462 0.655383 129.695 0.917519C129.929 1.17965 130.101 1.46606 130.212 1.77674C130.324 2.08257 130.38 2.3714 130.38 2.64325C130.38 2.82286 130.353 3.01218 130.3 3.21121C130.251 3.41024 130.176 3.60927 130.074 3.80829C129.977 4.00247 129.851 4.18936 129.695 4.36897C129.54 4.54373 129.356 4.69907 129.142 4.83499C128.933 4.97092 128.695 5.08014 128.428 5.16266C128.166 5.24033 127.873 5.27917 127.547 5.27917C127.067 5.27917 126.654 5.19422 126.31 5.02431C125.965 4.84956 125.681 4.63111 125.458 4.36897C125.234 4.10684 125.069 3.82286 124.962 3.51703C124.861 3.20635 124.81 2.91509 124.81 2.64325ZM125.523 2.64325C125.523 2.98305 125.574 3.29616 125.676 3.58257C125.783 3.86412 125.926 4.10684 126.106 4.31072C126.29 4.51461 126.506 4.6748 126.754 4.7913C127.001 4.90295 127.271 4.95878 127.562 4.95878C127.848 4.95878 128.118 4.90295 128.37 4.7913C128.628 4.6748 128.851 4.51461 129.04 4.31072C129.234 4.10684 129.387 3.86412 129.499 3.58257C129.611 3.29616 129.666 2.98305 129.666 2.64325C129.666 2.30344 129.611 1.99276 129.499 1.71121C129.387 1.4248 129.234 1.17965 129.04 0.975771C128.851 0.771887 128.628 0.61412 128.37 0.50247C128.118 0.385965 127.848 0.327712 127.562 0.327712C127.271 0.327712 127.001 0.385965 126.754 0.50247C126.506 0.61412 126.29 0.771887 126.106 0.975771C125.926 1.17965 125.783 1.4248 125.676 1.71121C125.574 1.99276 125.523 2.30344 125.523 2.64325Z" fill="black"/>
<path d="M119.773 5.19181V0.0947266H120.436V4.79133H123.065V5.19181H119.773Z" fill="black"/>
<path d="M114.228 0.0947266H117.519V0.495212H114.89V2.32288H117.147V2.65783H114.89V4.79133H117.519V5.19181H114.228V0.0947266Z" fill="black"/>
<path d="M107.33 0.0947266H108.116L109.864 4.2889H109.893L111.59 0.0947266H111.968L109.9 5.19181H109.464L107.33 0.0947266Z" fill="black"/>
<path d="M102.441 0.0947266H105.733V0.495212H103.104V2.32288H105.361V2.65783H103.104V4.79133H105.733V5.19181H102.441V0.0947266Z" fill="black"/>
<path d="M95.7803 5.19181V0.0947266H97.455C97.8579 0.0947266 98.2269 0.16026 98.5618 0.291328C98.8968 0.417542 99.1832 0.594727 99.4211 0.822882C99.6638 1.04618 99.8507 1.31317 99.9817 1.62385C100.118 1.93453 100.186 2.26948 100.186 2.62871C100.186 3.00249 100.115 3.34715 99.9744 3.66269C99.8385 3.97337 99.6492 4.24279 99.4065 4.47094C99.1686 4.6991 98.8895 4.87628 98.5691 5.00249C98.2487 5.12871 97.9065 5.19181 97.5424 5.19181H95.7803ZM96.4429 4.87143H97.2439C97.6419 4.87143 97.9793 4.80589 98.256 4.67482C98.5376 4.5389 98.7681 4.36414 98.9477 4.15055C99.1274 3.93696 99.2584 3.6991 99.341 3.43696C99.4235 3.16997 99.4647 2.90541 99.4647 2.64327C99.4647 2.35201 99.4162 2.07288 99.3191 1.80589C99.222 1.53405 99.0788 1.29618 98.8895 1.0923C98.705 0.883562 98.4744 0.718513 98.1977 0.597154C97.921 0.475795 97.6031 0.415115 97.2439 0.415115H96.4429V4.87143Z" fill="black"/>
<path d="M88.516 4.75485C88.2199 4.9733 87.9529 5.11408 87.7151 5.17718C87.4821 5.24029 87.266 5.27184 87.067 5.27184C86.7709 5.27184 86.5088 5.23301 86.2806 5.15534C86.0573 5.07282 85.868 4.96602 85.7126 4.83495C85.5622 4.69903 85.4481 4.54612 85.3704 4.37621C85.2927 4.20631 85.2539 4.03398 85.2539 3.85922C85.2539 3.67476 85.2879 3.50485 85.3558 3.34951C85.4287 3.19417 85.5258 3.05097 85.6471 2.9199C85.7733 2.78398 85.919 2.66262 86.084 2.55583C86.2491 2.44417 86.4287 2.34223 86.6228 2.25C86.4675 2.03155 86.334 1.83252 86.2224 1.65291C86.1156 1.46845 86.0622 1.27427 86.0622 1.07039C86.0622 0.949029 86.0816 0.825243 86.1204 0.699029C86.1641 0.567961 86.2296 0.451457 86.317 0.349515C86.4092 0.247573 86.5233 0.165048 86.6592 0.101942C86.8 0.0339805 86.9675 0 87.1617 0C87.3122 0 87.4529 0.0242719 87.584 0.0728158C87.7151 0.121359 87.8291 0.191748 87.9262 0.283981C88.0233 0.376214 88.101 0.487864 88.1593 0.618932C88.2175 0.745146 88.2466 0.88835 88.2466 1.04854C88.2466 1.25243 88.1762 1.45388 88.0355 1.65291C87.8995 1.84709 87.6617 2.02427 87.3219 2.18447L88.7709 4.09223C88.9165 3.89806 89.0282 3.67718 89.1058 3.42961C89.1835 3.17718 89.2296 2.8568 89.2442 2.46845H89.8122C89.7879 2.73058 89.7369 2.96602 89.6592 3.17476C89.5864 3.3835 89.5039 3.56796 89.4117 3.72816C89.3243 3.88835 89.2369 4.02184 89.1495 4.12864C89.067 4.23058 89.0039 4.30583 88.9602 4.35437L89.6228 5.19175H88.851L88.516 4.75485ZM87.1981 0.320389C87.0913 0.320389 86.9991 0.339806 86.9214 0.378641C86.8486 0.412622 86.7879 0.458738 86.7393 0.516991C86.6908 0.575243 86.6544 0.640777 86.6301 0.713593C86.6107 0.786408 86.601 0.859223 86.601 0.932039C86.601 1.10194 86.6544 1.26942 86.7612 1.43447C86.868 1.59466 86.9991 1.77184 87.1544 1.96602C87.2175 1.93204 87.2855 1.88592 87.3583 1.82767C87.4359 1.76456 87.5063 1.69417 87.5694 1.6165C87.6325 1.53398 87.6835 1.44175 87.7224 1.33981C87.766 1.23786 87.7879 1.12621 87.7879 1.00485C87.7879 0.941748 87.7782 0.871359 87.7588 0.793689C87.7393 0.711165 87.7078 0.635922 87.6641 0.567961C87.6204 0.5 87.5597 0.441748 87.4821 0.393204C87.4092 0.34466 87.3146 0.320389 87.1981 0.320389ZM86.8049 2.50485C86.4505 2.68932 86.2054 2.87136 86.0694 3.05097C85.9384 3.23058 85.8728 3.42961 85.8728 3.64806C85.8728 3.84709 85.9141 4.02427 85.9966 4.17961C86.0792 4.3301 86.1859 4.45874 86.317 4.56553C86.4529 4.67233 86.601 4.75485 86.7612 4.81311C86.9262 4.8665 87.0889 4.8932 87.2491 4.8932C87.2879 4.8932 87.3461 4.89078 87.4238 4.88592C87.5063 4.87621 87.5986 4.85922 87.7005 4.83495C87.8025 4.81068 87.9068 4.77427 88.0136 4.72573C88.1253 4.67718 88.2321 4.60922 88.334 4.52184L86.8049 2.50485Z" fill="black"/>
<path d="M75.5889 0.0947266H77.2418C77.567 0.0947266 77.8364 0.140843 78.05 0.233076C78.2636 0.320455 78.4311 0.432105 78.5525 0.568028C78.6787 0.699096 78.7661 0.8423 78.8146 0.997639C78.868 1.15298 78.8947 1.29618 78.8947 1.42725C78.8947 1.57288 78.8704 1.72337 78.8219 1.87871C78.7733 2.02919 78.6957 2.16997 78.5889 2.30104C78.4821 2.43211 78.3437 2.54133 78.1738 2.62871C78.0088 2.71609 77.8097 2.76706 77.5767 2.78162V2.81075L77.6495 2.84715C77.7078 2.87628 77.7563 2.91269 77.7952 2.95638C77.8389 3.00007 77.8923 3.07046 77.9554 3.16754C78.0233 3.26463 78.1131 3.40298 78.2248 3.58259C78.3364 3.75735 78.4942 3.99279 78.6981 4.2889C78.7661 4.39084 78.8316 4.48308 78.8947 4.5656C78.9578 4.64327 79.0233 4.71123 79.0913 4.76948C79.1593 4.82288 79.2321 4.86414 79.3097 4.89327C79.3874 4.9224 79.4772 4.93696 79.5792 4.93696C79.6034 4.93696 79.6277 4.93696 79.652 4.93696C79.6762 4.93211 79.7005 4.92725 79.7248 4.9224V5.19181C79.6568 5.23065 79.5889 5.25492 79.5209 5.26463C79.4529 5.27434 79.3656 5.27919 79.2588 5.27919C79.1131 5.27919 78.9869 5.25978 78.8801 5.22094C78.7782 5.18211 78.686 5.13113 78.6034 5.06803C78.5209 5.00007 78.4432 4.91997 78.3704 4.82774C78.3025 4.7355 78.2321 4.63356 78.1593 4.52191L77.584 3.66997C77.4966 3.53405 77.4214 3.41997 77.3583 3.32774C77.2952 3.2355 77.2272 3.16026 77.1544 3.10201C77.0816 3.04376 76.9991 3.00249 76.9068 2.97822C76.8195 2.95395 76.7078 2.94181 76.5719 2.94181H76.2515V5.19181H75.5889V0.0947266ZM76.2515 0.415115V2.61414H77.0015C77.1957 2.61414 77.3656 2.58016 77.5112 2.5122C77.6617 2.44424 77.7879 2.35686 77.8898 2.25007C77.9918 2.13842 78.067 2.01706 78.1156 1.88599C78.169 1.75007 78.1957 1.61657 78.1957 1.4855C78.1957 1.33016 78.1665 1.18696 78.1083 1.05589C78.0549 0.924824 77.9748 0.813173 77.868 0.72094C77.7612 0.623853 77.6326 0.54861 77.4821 0.495212C77.3364 0.441814 77.1714 0.415115 76.9869 0.415115H76.2515Z" fill="black"/>
<path d="M70.043 0.0947266H73.3342V0.495212H70.7056V2.32288H72.9629V2.65783H70.7056V4.79133H73.3342V5.19181H70.043V0.0947266Z" fill="black"/>
<path d="M66.7972 0.0947026H67.1322V5.27917H67.0958L63.0545 1.29616H63.0254V5.19179H62.6904V0.00732422H62.7268L66.7681 3.99033H66.7972V0.0947026Z" fill="black"/>
<path d="M60.2129 2.91995V5.19179H59.5867V4.89325C59.4023 4.99033 59.1692 5.08014 58.8877 5.16266C58.6061 5.24033 58.2833 5.27917 57.9192 5.27917C57.4338 5.27917 57.0163 5.20393 56.6668 5.05344C56.3173 4.8981 56.0285 4.69422 55.8003 4.44179C55.577 4.18451 55.4095 3.89567 55.2979 3.57528C55.1911 3.25004 55.1377 2.91509 55.1377 2.57043C55.1377 2.16752 55.2081 1.8083 55.3489 1.49276C55.4896 1.17237 55.6862 0.902955 55.9387 0.684509C56.1911 0.466062 56.4896 0.298586 56.8343 0.182082C57.1838 0.0655767 57.5649 0.00732422 57.9775 0.00732422C58.3367 0.00732422 58.6474 0.0485863 58.9095 0.13111C59.1765 0.20878 59.3998 0.305868 59.5794 0.422373C59.7591 0.538877 59.8998 0.665091 60.0018 0.801013C60.1086 0.932081 60.1838 1.05101 60.2275 1.15781H59.7032C59.6741 1.05587 59.6086 0.956353 59.5066 0.859266C59.4095 0.757324 59.2833 0.667518 59.128 0.589848C58.9726 0.512179 58.7955 0.449072 58.5964 0.400528C58.3974 0.351984 58.1838 0.327712 57.9557 0.327712C57.611 0.327712 57.3076 0.383538 57.0455 0.495188C56.7882 0.606839 56.5697 0.764606 56.3901 0.968489C56.2105 1.17237 56.0746 1.41509 55.9824 1.69664C55.895 1.9782 55.8513 2.28645 55.8513 2.6214C55.8513 2.96121 55.8974 3.27431 55.9896 3.56072C56.0867 3.84228 56.2299 4.08742 56.4192 4.29616C56.6086 4.50004 56.8464 4.66024 57.1328 4.77674C57.4192 4.89325 57.7542 4.9515 58.1377 4.9515C58.429 4.9515 58.6887 4.91752 58.9168 4.84956C59.145 4.7816 59.3683 4.67723 59.5867 4.53645V3.21849H58.7712V2.91995H60.2129Z" fill="black"/>
<path d="M51.708 0.0947266H52.3706V5.19181H51.708V0.0947266Z" fill="black"/>
<path d="M45.0957 3.90295H45.5908C45.5957 3.98548 45.6151 4.08742 45.6491 4.20878C45.6831 4.32528 45.7486 4.43936 45.8457 4.55101C45.9428 4.66266 46.0836 4.75975 46.268 4.84228C46.4525 4.91995 46.6976 4.95878 47.0035 4.95878C47.387 4.95878 47.6928 4.88596 47.9209 4.74033C48.154 4.5947 48.2705 4.36412 48.2705 4.04859C48.2705 3.79616 48.1976 3.5947 48.052 3.44422C47.9064 3.29373 47.7219 3.16752 47.4986 3.06558C47.2802 2.95878 47.0423 2.86412 46.785 2.7816C46.5277 2.69907 46.2875 2.59956 46.0641 2.48305C45.8457 2.36655 45.6637 2.22092 45.518 2.04616C45.3724 1.8714 45.2996 1.64082 45.2996 1.35441C45.2996 1.13596 45.3433 0.94179 45.4307 0.771887C45.5229 0.601984 45.6442 0.461208 45.7947 0.349557C45.9501 0.237907 46.1273 0.152955 46.3263 0.0947026C46.5302 0.0364503 46.7438 0.00732422 46.9671 0.00732422C47.1807 0.00732422 47.3845 0.0340233 47.5787 0.0874212C47.7777 0.135965 47.9549 0.211207 48.1103 0.313149C48.2656 0.410237 48.3942 0.531596 48.4962 0.677227C48.5981 0.818004 48.6637 0.978198 48.6928 1.15781H48.1976C48.1588 0.871402 48.0277 0.662664 47.8044 0.531596C47.586 0.395673 47.319 0.327712 47.0035 0.327712C46.8141 0.327712 46.6467 0.351984 46.501 0.400528C46.3554 0.444217 46.2316 0.504897 46.1297 0.582567C46.0326 0.655382 45.9574 0.742761 45.904 0.844703C45.8554 0.946644 45.8311 1.05587 45.8311 1.17237C45.8311 1.38111 45.9064 1.54859 46.0569 1.6748C46.2074 1.80101 46.3942 1.91266 46.6175 2.00975C46.8457 2.10684 47.0908 2.19907 47.353 2.28645C47.62 2.37383 47.8651 2.48305 48.0884 2.61412C48.3166 2.74033 48.5059 2.90053 48.6564 3.0947C48.8069 3.28402 48.8821 3.52917 48.8821 3.83014C48.8821 4.04859 48.8384 4.24762 48.751 4.42723C48.6637 4.60684 48.5399 4.75975 48.3797 4.88596C48.2195 5.01218 48.0253 5.10927 47.7972 5.17723C47.5739 5.24519 47.3214 5.27917 47.0399 5.27917C46.7632 5.27917 46.5083 5.24762 46.2753 5.18451C46.0423 5.11655 45.8384 5.02431 45.6637 4.90781C45.4938 4.78645 45.3578 4.64082 45.2559 4.47092C45.1588 4.30101 45.1054 4.11169 45.0957 3.90295Z" fill="black"/>
<path d="M40.1543 0.0947266H43.4456V0.495212H40.8169V2.32288H43.0742V2.65783H40.8169V4.79133H43.4456V5.19181H40.1543V0.0947266Z" fill="black"/>
<path d="M33.4951 5.19181V0.0947266H35.1699C35.5728 0.0947266 35.9417 0.16026 36.2767 0.291328C36.6116 0.417542 36.898 0.594727 37.1359 0.822882C37.3786 1.04618 37.5655 1.31317 37.6966 1.62385C37.8325 1.93453 37.9005 2.26948 37.9005 2.62871C37.9005 3.00249 37.8301 3.34715 37.6893 3.66269C37.5534 3.97337 37.364 4.24279 37.1213 4.47094C36.8835 4.6991 36.6043 4.87628 36.284 5.00249C35.9636 5.12871 35.6213 5.19181 35.2573 5.19181H33.4951ZM34.1577 4.87143H34.9587C35.3568 4.87143 35.6941 4.80589 35.9708 4.67482C36.2524 4.5389 36.483 4.36414 36.6626 4.15055C36.8422 3.93696 36.9733 3.6991 37.0558 3.43696C37.1383 3.16997 37.1796 2.90541 37.1796 2.64327C37.1796 2.35201 37.131 2.07288 37.034 1.80589C36.9369 1.53405 36.7937 1.29618 36.6043 1.0923C36.4199 0.883562 36.1893 0.718513 35.9126 0.597154C35.6359 0.475795 35.3179 0.415115 34.9587 0.415115H34.1577V4.87143Z" fill="black"/>
<defs>
<clipPath id="clip0_351_451">
<rect width="125.243" height="21.8447" fill="white" transform="translate(24.7568 7.28125)"/>
</clipPath>
</defs>
</svg>
