<svg width="24" height="24" viewBox="0 0 24 24" fill="none" xmlns="http://www.w3.org/2000/svg">
<g clip-path="url(#clip0_296_96)">
<path d="M22.1983 10.6436L19.1016 7.54688L12.3164 14.332C11.1445 15.5039 9.99314 16.2539 8.82422 15.082C7.65234 13.9102 8.40234 12.7617 9.57422 11.5898L16.3594 4.80469L13.3095 1.75341C12.6445 1.08834 13.2158 -0.0234375 14.2002 -0.0234375H22.1982C23.1797 -0.0234375 23.9766 0.771984 23.9766 1.75341V9.75441C23.9766 10.7358 22.8662 11.31 22.1983 10.6436ZM2.97656 20.9766H17.9766V12.1553L20.9766 15.1553V20.9766C20.9766 22.6348 19.6348 23.9766 17.9766 23.9766H2.97656C1.31836 23.9766 -0.0234375 22.6348 -0.0234375 20.9766V5.97656C-0.0234375 4.31981 1.31836 2.97656 2.97656 2.97656H8.79788L11.7979 5.97656H2.97656V20.9766Z" fill="#33A9DC"/>
</g>
<defs>
<clipPath id="clip0_296_96">
<rect width="24" height="24" fill="white"/>
</clipPath>
</defs>
</svg>
