<svg width="32" height="32" viewBox="0 0 32 32" fill="none" xmlns="http://www.w3.org/2000/svg">
<path fill-rule="evenodd" clip-rule="evenodd" d="M3.41406 14.5655C2.77857 15.1048 2.51573 15.6213 2.51573 16.0911C2.51573 16.5609 2.77857 17.0775 3.41406 17.6167C4.04948 18.1559 5.00501 18.6692 6.2404 19.1126C8.70677 19.9978 12.1574 20.558 16.0008 20.558C19.8441 20.558 23.2948 19.9978 25.7611 19.1126C26.9965 18.6692 27.9521 18.1559 28.5875 17.6167C29.223 17.0775 29.4858 16.5609 29.4858 16.0911C29.4858 15.6213 29.223 15.1048 28.5875 14.5655C27.9521 14.0263 26.9965 13.513 25.7611 13.0696C23.2948 12.1844 19.8441 11.6242 16.0008 11.6242C12.1574 11.6242 8.70677 12.1844 6.2404 13.0696C5.00501 13.513 4.04948 14.0263 3.41406 14.5655ZM5.78229 11.9418C8.42896 10.9918 12.0419 10.4169 16.0008 10.4169C19.9596 10.4169 23.5726 10.9918 26.2193 11.9418C27.5404 12.4159 28.6537 12.9953 29.4481 13.6694C30.2423 14.3433 30.7701 15.1607 30.7701 16.0911C30.7701 17.0215 30.2423 17.8389 29.4481 18.5129C28.6537 19.1869 27.5404 19.7663 26.2193 20.2405C23.5726 21.1904 19.9596 21.7653 16.0008 21.7653C12.0419 21.7653 8.42896 21.1904 5.78229 20.2405C4.46117 19.7663 3.34782 19.1869 2.55349 18.5129C1.75923 17.8389 1.23145 17.0215 1.23145 16.0911C1.23145 15.1607 1.75923 14.3433 2.55349 13.6694C3.34782 12.9953 4.46117 12.4159 5.78229 11.9418Z" fill="#61DAFB"/>
<path fill-rule="evenodd" clip-rule="evenodd" d="M11.1128 5.08149C10.2983 4.83377 9.69098 4.87808 9.25818 5.11297C8.82538 5.34787 8.4809 5.82012 8.30184 6.6071C8.12279 7.394 8.1277 8.42851 8.33689 9.65594C8.75454 12.1064 9.96377 15.1956 11.8855 18.3245C13.8071 21.4534 16.0485 23.9824 18.0973 25.5477C19.1235 26.3317 20.0741 26.8529 20.8885 27.1006C21.7031 27.3483 22.3104 27.304 22.7432 27.0691C23.176 26.8342 23.5205 26.362 23.6996 25.575C23.8786 24.7881 23.8737 23.7536 23.6645 22.5262C23.2469 20.0757 22.0376 16.9865 20.1159 13.8576C18.1943 10.7287 15.9529 8.19969 13.9041 6.63445C12.8779 5.85043 11.9273 5.32917 11.1128 5.08149ZM14.7141 5.69758C16.9126 7.37723 19.2487 10.0311 21.2282 13.254C23.2076 16.4768 24.4844 19.7056 24.9326 22.3352C25.1563 23.6478 25.1793 24.8438 24.9554 25.8275C24.7316 26.8111 24.2425 27.6495 23.3854 28.1147C22.5282 28.5799 21.5113 28.5589 20.4932 28.2493C19.4751 27.9396 18.3847 27.323 17.2873 26.4845C15.0888 24.8049 12.7527 22.151 10.7732 18.9281C8.7938 15.7053 7.51695 12.4765 7.06878 9.84693C6.84507 8.53432 6.82213 7.33827 7.04595 6.35459C7.26976 5.37099 7.75887 4.53265 8.61603 4.06744C9.47319 3.60224 10.4901 3.62322 11.5082 3.93282C12.5263 4.24245 13.6167 4.85915 14.7141 5.69758Z" fill="#61DAFB"/>
<path d="M16.0007 18.5658C17.4548 18.5658 18.6335 17.4577 18.6335 16.0908C18.6335 14.724 17.4548 13.6159 16.0007 13.6159C14.5467 13.6159 13.3679 14.724 13.3679 16.0908C13.3679 17.4577 14.5467 18.5658 16.0007 18.5658Z" fill="#61DAFB"/>
<path fill-rule="evenodd" clip-rule="evenodd" d="M23.6997 6.6072C23.5206 5.82022 23.1761 5.34797 22.7433 5.11307C22.3105 4.87818 21.7032 4.83387 20.8887 5.08159C20.0742 5.32927 19.1236 5.85053 18.0974 6.63455C16.0486 8.19979 13.8072 10.7288 11.8856 13.8577C9.96388 16.9866 8.75465 20.0758 8.337 22.5263C8.1278 23.7537 8.12289 24.7882 8.30194 25.5751C8.48101 26.3621 8.82548 26.8343 9.25828 27.0692C9.69108 27.3041 10.2984 27.3484 11.113 27.1007C11.9274 26.853 12.878 26.3318 13.9042 25.5478C15.953 23.9825 18.1944 21.4535 20.116 18.3246C22.0377 15.1957 23.247 12.1065 23.6646 9.65604C23.8738 8.42861 23.8787 7.3941 23.6997 6.6072ZM24.9327 9.84703C24.4845 12.4766 23.2077 15.7054 21.2283 18.9282C19.2488 22.1511 16.9127 24.805 14.7142 26.4846C13.6168 27.3231 12.5264 27.9397 11.5083 28.2494C10.4902 28.559 9.4733 28.58 8.61614 28.1148C7.75898 27.6496 7.26986 26.8112 7.04606 25.8276C6.82224 24.8439 6.84517 23.6479 7.06888 22.3353C7.51706 19.7057 8.7939 16.4769 10.7733 13.2541C12.7528 10.0312 15.0889 7.37733 17.2874 5.69768C18.3848 4.85925 19.4752 4.24255 20.4933 3.93292C21.5114 3.62332 22.5283 3.60234 23.3855 4.06754C24.2426 4.53275 24.7317 5.37109 24.9555 6.35469C25.1794 7.33837 25.1564 8.53442 24.9327 9.84703Z" fill="#61DAFB"/>
</svg>
