<svg width="32" height="32" viewBox="0 0 32 32" fill="none" xmlns="http://www.w3.org/2000/svg">
<rect width="32" height="32" rx="6" fill="#4B4B4B"/>
<path fill-rule="evenodd" clip-rule="evenodd" d="M6.62558 14.8912C6.15228 15.2831 5.95652 15.6586 5.95652 16C5.95652 16.3415 6.15228 16.7169 6.62558 17.1088C7.09884 17.5007 7.8105 17.8738 8.7306 18.196C10.5675 18.8394 13.1375 19.2466 16 19.2466C18.8625 19.2466 21.4325 18.8394 23.2694 18.196C24.1895 17.8738 24.9012 17.5007 25.3744 17.1088C25.8477 16.7169 26.0435 16.3415 26.0435 16C26.0435 15.6586 25.8477 15.2831 25.3744 14.8912C24.9012 14.4993 24.1895 14.1263 23.2694 13.804C21.4325 13.1606 18.8625 12.7535 16 12.7535C13.1375 12.7535 10.5675 13.1606 8.7306 13.804C7.8105 14.1263 7.09884 14.4993 6.62558 14.8912ZM8.38941 12.9843C10.3606 12.2939 13.0515 11.876 16 11.876C18.9485 11.876 21.6394 12.2939 23.6106 12.9843C24.5945 13.3289 25.4238 13.75 26.0154 14.2399C26.6069 14.7297 27 15.3238 27 16C27 16.6762 26.6069 17.2703 26.0154 17.7601C25.4238 18.25 24.5945 18.6711 23.6106 19.0158C21.6394 19.7062 18.9485 20.124 16 20.124C13.0515 20.124 10.3606 19.7062 8.38941 19.0158C7.40546 18.6711 6.57624 18.25 5.98464 17.7601C5.39308 17.2703 5 16.6762 5 16C5 15.3238 5.39308 14.7297 5.98464 14.2399C6.57624 13.75 7.40546 13.3289 8.38941 12.9843Z" fill="#61DAFB"/>
<path fill-rule="evenodd" clip-rule="evenodd" d="M12.3595 7.99824C11.7529 7.8182 11.3005 7.85041 10.9782 8.02112C10.6559 8.19184 10.3993 8.53508 10.2659 9.10705C10.1326 9.67897 10.1362 10.4309 10.292 11.3229C10.6031 13.1039 11.5037 15.3492 12.935 17.6232C14.3662 19.8973 16.0356 21.7354 17.5614 22.873C18.3257 23.4428 19.0337 23.8217 19.6403 24.0017C20.247 24.1817 20.6993 24.1495 21.0217 23.9788C21.344 23.8081 21.6006 23.4648 21.734 22.8929C21.8673 22.321 21.8636 21.5691 21.7078 20.677C21.3968 18.896 20.4962 16.6507 19.0649 14.3767C17.6337 12.1026 15.9643 10.2645 14.4384 9.12693C13.6741 8.55711 12.9661 8.17826 12.3595 7.99824ZM15.0417 8.44601C16.6791 9.66678 18.419 11.5956 19.8933 13.938C21.3675 16.2803 22.3185 18.627 22.6523 20.5382C22.8189 21.4922 22.836 22.3615 22.6693 23.0764C22.5026 23.7913 22.1383 24.4006 21.4999 24.7387C20.8615 25.0768 20.1042 25.0616 19.3459 24.8365C18.5876 24.6115 17.7755 24.1633 16.9582 23.5539C15.3208 22.3331 13.5808 20.4043 12.1066 18.062C10.6323 15.7196 9.68136 13.3729 9.34757 11.4618C9.18095 10.5078 9.16387 9.63847 9.33057 8.92353C9.49726 8.20865 9.86154 7.59934 10.4999 7.26124C11.1383 6.92313 11.8957 6.93838 12.654 7.1634C13.4123 7.38843 14.2244 7.83665 15.0417 8.44601Z" fill="#61DAFB"/>
<path d="M16 17.7986C17.0829 17.7986 17.9608 16.9932 17.9608 15.9998C17.9608 15.0064 17.0829 14.2011 16 14.2011C14.917 14.2011 14.0391 15.0064 14.0391 15.9998C14.0391 16.9932 14.917 17.7986 16 17.7986Z" fill="#61DAFB"/>
<path fill-rule="evenodd" clip-rule="evenodd" d="M21.734 9.10713C21.6007 8.53515 21.3441 8.19192 21.0218 8.0212C20.6994 7.85048 20.2471 7.81828 19.6404 7.99831C19.0338 8.17833 18.3258 8.55718 17.5615 9.127C16.0357 10.2646 14.3663 12.1027 12.935 14.3768C11.5038 16.6508 10.6032 18.8961 10.2921 20.6771C10.1363 21.5691 10.1327 22.321 10.266 22.8929C10.3994 23.4649 10.6559 23.8082 10.9783 23.9789C11.3006 24.1496 11.7529 24.1818 12.3596 24.0018C12.9662 23.8217 13.6742 23.4429 14.4385 22.8731C15.9644 21.7355 17.6338 19.8974 19.065 17.6233C20.4962 15.3493 21.3969 13.104 21.7079 11.323C21.8637 10.4309 21.8674 9.67904 21.734 9.10713ZM22.6524 11.4618C22.3186 13.373 21.3676 15.7197 19.8934 18.062C18.4191 20.4044 16.6792 22.3332 15.0418 23.554C14.2245 24.1634 13.4123 24.6116 12.654 24.8366C11.8958 25.0616 11.1384 25.0769 10.5 24.7388C9.86162 24.4007 9.49733 23.7914 9.33065 23.0765C9.16395 22.3615 9.18103 21.4922 9.34765 20.5382C9.68144 18.6271 10.6324 16.2804 12.1067 13.938C13.5809 11.5957 15.3208 9.66686 16.9582 8.44609C17.7756 7.83672 18.5877 7.38851 19.346 7.16347C20.1042 6.93845 20.8616 6.9232 21.5 7.26131C22.1384 7.59942 22.5027 8.20872 22.6694 8.9236C22.8361 9.63854 22.819 10.5078 22.6524 11.4618Z" fill="#61DAFB"/>
</svg>
