<svg aria-hidden="true" style="position: absolute; width: 0; height: 0; overflow: hidden;" version="1.1" xmlns="http://www.w3.org/2000/svg" xmlns:xlink="http://www.w3.org/1999/xlink">
<defs>
<symbol id="icon-css" viewBox="0 0 32 32">
  <path fill="#1572b6" style="fill: var(--color1, #1572b6)" d="M5.902 27.201l-2.246-25.201h24.688l-2.249 25.197-10.11 2.803-10.083-2.799z"></path>
  <path fill="#33a9dc" style="fill: var(--color2, #33a9dc)" d="M16 27.858l8.17-2.265 1.922-21.532h-10.092v23.797z"></path>
  <path fill="#fff" style="fill: var(--color3, #fff)" d="M16 13.191h4.090l0.282-3.165h-4.372v-3.091h7.75l-0.074 0.829-0.759 8.518h-6.917v-3.091z"></path>
  <path fill="#ebebeb" style="fill: var(--color4, #ebebeb)" d="M16.019 21.218l-0.014 0.004-3.442-0.93-0.22-2.465h-3.103l0.433 4.853 6.331 1.758 0.015-0.004v-3.216z"></path>
  <path fill="#fff" style="fill: var(--color3, #fff)" d="M19.827 16.151l-0.372 4.139-3.447 0.93v3.216l6.336-1.756 0.047-0.522 0.537-6.007h-3.101z"></path>
  <path fill="#ebebeb" style="fill: var(--color4, #ebebeb)" d="M16.011 6.935v3.091h-7.466l-0.062-0.695-0.141-1.567-0.074-0.829h7.743zM16 13.191v3.091h-3.399l-0.062-0.695-0.14-1.567-0.074-0.829h3.675z"></path>
</symbol>
<symbol id="icon-git" viewBox="0 0 32 32">
  <path fill="#de4c36" style="fill: var(--color5, #de4c36)" d="M29.132 15.165l-11.629-11.661c-0.159-0.16-0.348-0.287-0.556-0.373s-0.431-0.131-0.656-0.131c-0.225 0-0.448 0.045-0.656 0.131s-0.397 0.213-0.556 0.373l-2.415 2.422 3.063 3.072c0.36-0.123 0.747-0.142 1.118-0.056s0.709 0.275 0.978 0.545c0.27 0.271 0.459 0.614 0.545 0.988s0.065 0.764-0.061 1.127l2.952 2.961c0.714-0.247 1.538-0.087 2.109 0.486 0.19 0.19 0.34 0.416 0.443 0.664s0.155 0.514 0.155 0.783c0 0.269-0.053 0.535-0.155 0.783s-0.253 0.474-0.443 0.664c-0.334 0.335-0.773 0.543-1.242 0.59s-0.941-0.071-1.334-0.334-0.683-0.653-0.82-1.106c-0.138-0.453-0.115-0.939 0.065-1.377l-2.753-2.761-0 7.266c0.2 0.099 0.382 0.23 0.54 0.387 0.189 0.19 0.34 0.416 0.442 0.664s0.155 0.514 0.155 0.783c0 0.269-0.053 0.535-0.155 0.783s-0.253 0.474-0.442 0.664c-0.797 0.8-2.090 0.8-2.886 0-0.238-0.238-0.413-0.532-0.511-0.855s-0.114-0.665-0.048-0.995c0.066-0.331 0.213-0.64 0.427-0.9s0.489-0.463 0.8-0.591v-7.333c-0.25-0.102-0.477-0.254-0.668-0.447-0.604-0.605-0.749-1.494-0.44-2.238l-3.019-3.029-7.974 7.996c-0.159 0.16-0.286 0.349-0.372 0.558s-0.131 0.432-0.131 0.658c0 0.226 0.044 0.45 0.131 0.658s0.213 0.398 0.372 0.558l11.629 11.662c0.322 0.323 0.758 0.504 1.213 0.504s0.891-0.181 1.213-0.504l11.575-11.607c0.322-0.323 0.502-0.761 0.502-1.217s-0.181-0.894-0.502-1.217z"></path>
</symbol>
<symbol id="icon-github" viewBox="0 0 32 32">
  <path d="M16 2.667c-1.751 0-3.485 0.345-5.102 1.015s-3.088 1.652-4.326 2.89c-2.5 2.5-3.905 5.892-3.905 9.428 0 5.893 3.827 10.893 9.12 12.667 0.667 0.107 0.88-0.307 0.88-0.667v-2.253c-3.693 0.8-4.48-1.787-4.48-1.787-0.613-1.547-1.48-1.96-1.48-1.96-1.213-0.827 0.093-0.8 0.093-0.8 1.333 0.093 2.040 1.373 2.040 1.373 1.16 2.027 3.12 1.427 3.88 1.107 0.12-0.867 0.467-1.453 0.84-1.787-2.96-0.333-6.067-1.48-6.067-6.56 0-1.48 0.507-2.667 1.373-3.613-0.133-0.333-0.6-1.72 0.133-3.52 0 0 1.12-0.36 3.667 1.36 1.053-0.293 2.2-0.44 3.333-0.44s2.28 0.147 3.333 0.44c2.547-1.72 3.667-1.36 3.667-1.36 0.733 1.8 0.267 3.187 0.133 3.52 0.867 0.947 1.373 2.133 1.373 3.613 0 5.093-3.12 6.213-6.093 6.547 0.48 0.413 0.92 1.227 0.92 2.467v3.653c0 0.36 0.213 0.787 0.893 0.667 5.293-1.787 9.107-6.773 9.107-12.667 0-1.751-0.345-3.485-1.015-5.102s-1.652-3.088-2.89-4.326-2.708-2.22-4.326-2.89c-1.618-0.67-3.352-1.015-5.102-1.015z"></path>
</symbol>
<symbol id="icon-html" viewBox="0 0 32 32">
  <path fill="#e44f26" style="fill: var(--color6, #e44f26)" d="M5.902 27.201l-2.247-25.201h24.69l-2.25 25.197-10.11 2.803-10.083-2.799z"></path>
  <path fill="#f1662a" style="fill: var(--color7, #f1662a)" d="M16 27.858l8.17-2.265 1.922-21.532h-10.092v23.797z"></path>
  <path fill="#ebebeb" style="fill: var(--color4, #ebebeb)" d="M16 13.407h-4.090l-0.282-3.165h4.372v-3.091h-7.75l0.074 0.83 0.759 8.517h6.917v-3.091zM16 21.434l-0.014 0.004-3.442-0.929-0.22-2.465h-3.103l0.433 4.852 6.332 1.758 0.014-0.004v-3.216z"></path>
  <path fill="#fff" style="fill: var(--color3, #fff)" d="M15.989 13.407v3.091h3.806l-0.358 4.009-3.448 0.93v3.216l6.337-1.757 0.046-0.522 0.726-8.137 0.076-0.83h-7.185zM15.989 7.151v3.091h7.466l0.062-0.694 0.141-1.567 0.074-0.83h-7.743z"></path>
</symbol>
<symbol id="icon-react" viewBox="0 0 32 32">
  <path fill="#61dafb" style="fill: var(--color8, #61dafb)" d="M3.414 14.566c-0.635 0.539-0.898 1.056-0.898 1.526s0.263 0.986 0.898 1.526c0.635 0.539 1.591 1.052 2.826 1.496 2.466 0.885 5.917 1.445 9.76 1.445s7.294-0.56 9.76-1.445c1.235-0.443 2.191-0.957 2.826-1.496s0.898-1.056 0.898-1.526-0.263-0.986-0.898-1.526c-0.635-0.539-1.591-1.053-2.826-1.496-2.466-0.885-5.917-1.445-9.76-1.445s-7.294 0.56-9.76 1.445c-1.235 0.443-2.191 0.957-2.826 1.496zM5.782 11.942c2.647-0.95 6.26-1.525 10.218-1.525s7.572 0.575 10.219 1.525c1.321 0.474 2.434 1.053 3.229 1.728s1.322 1.491 1.322 2.422-0.528 1.748-1.322 2.422c-0.794 0.674-1.908 1.253-3.229 1.728-2.647 0.95-6.26 1.525-10.218 1.525s-7.572-0.575-10.219-1.525c-1.321-0.474-2.434-1.054-3.229-1.728s-1.322-1.491-1.322-2.422 0.528-1.748 1.322-2.422c0.794-0.674 1.908-1.254 3.229-1.728z"></path>
  <path fill="#61dafb" style="fill: var(--color8, #61dafb)" d="M11.113 5.082c-0.815-0.248-1.422-0.203-1.855 0.031s-0.777 0.707-0.956 1.494c-0.179 0.787-0.174 1.821 0.035 3.049 0.418 2.45 1.627 5.54 3.549 8.669s4.163 5.658 6.212 7.223c1.026 0.784 1.977 1.305 2.791 1.553s1.422 0.203 1.855-0.032 0.777-0.707 0.956-1.494c0.179-0.787 0.174-1.821-0.035-3.049-0.418-2.45-1.627-5.54-3.549-8.669s-4.163-5.658-6.212-7.223c-1.026-0.784-1.977-1.305-2.791-1.553zM14.714 5.698c2.198 1.68 4.535 4.334 6.514 7.556s3.256 6.452 3.704 9.081c0.224 1.313 0.247 2.509 0.023 3.492s-0.713 1.822-1.57 2.287c-0.857 0.465-1.874 0.444-2.892 0.135s-2.108-0.926-3.206-1.765c-2.198-1.68-4.535-4.334-6.514-7.556s-3.256-6.452-3.704-9.081c-0.224-1.313-0.247-2.509-0.023-3.492s0.713-1.822 1.57-2.287 1.874-0.444 2.892-0.135c1.018 0.31 2.108 0.926 3.206 1.765z"></path>
  <path fill="#61dafb" style="fill: var(--color8, #61dafb)" d="M16.001 18.566c1.454 0 2.633-1.108 2.633-2.475s-1.179-2.475-2.633-2.475c-1.454 0-2.633 1.108-2.633 2.475s1.179 2.475 2.633 2.475z"></path>
  <path fill="#61dafb" style="fill: var(--color8, #61dafb)" d="M23.7 6.607c-0.179-0.787-0.524-1.259-0.956-1.494s-1.040-0.279-1.855-0.031c-0.814 0.248-1.765 0.769-2.791 1.553-2.049 1.565-4.29 4.094-6.212 7.223s-3.131 6.218-3.549 8.669c-0.209 1.227-0.214 2.262-0.035 3.049s0.524 1.259 0.956 1.494 1.040 0.279 1.855 0.032c0.814-0.248 1.765-0.769 2.791-1.553 2.049-1.565 4.29-4.094 6.212-7.223s3.131-6.218 3.549-8.669c0.209-1.227 0.214-2.262 0.035-3.049zM24.933 9.847c-0.448 2.63-1.725 5.858-3.704 9.081s-4.316 5.877-6.514 7.556c-1.097 0.838-2.188 1.455-3.206 1.765s-2.035 0.331-2.892-0.135-1.346-1.304-1.57-2.287c-0.224-0.984-0.201-2.18 0.023-3.492 0.448-2.63 1.725-5.858 3.704-9.081s4.316-5.877 6.514-7.556c1.097-0.838 2.188-1.455 3.206-1.765s2.035-0.331 2.892 0.135c0.857 0.465 1.346 1.304 1.57 2.287s0.201 2.18-0.023 3.492z"></path>
</symbol>
<symbol id="icon-sass" viewBox="0 0 32 32">
  <path fill="#c69" style="fill: var(--color9, #c69)" d="M16 2c2.769 0 5.476 0.821 7.778 2.359s4.097 3.725 5.156 6.283c1.060 2.558 1.337 5.373 0.797 8.089s-1.874 5.21-3.832 7.168-4.453 3.291-7.168 3.831c-2.716 0.54-5.531 0.263-8.089-0.797s-4.745-2.854-6.283-5.156-2.359-5.009-2.359-7.778c0-3.713 1.475-7.274 4.101-9.899s6.186-4.101 9.899-4.101z"></path>
  <path fill="#fff" style="fill: var(--color3, #fff)" d="M24.782 7.992c-0.634-2.486-4.757-3.3-8.659-1.918-2.444 0.821-4.701 2.116-6.644 3.811-2.149 2.010-2.492 3.76-2.351 4.491 0.5 2.58 4.033 4.266 5.486 5.517v0.007c-0.428 0.211-3.564 1.8-4.3 3.42-0.774 1.712 0.123 2.94 0.718 3.105 0.893 0.215 1.832 0.145 2.683-0.2s1.574-0.948 2.065-1.725c0.406-0.629 0.66-1.344 0.742-2.088s-0.011-1.497-0.27-2.2c0.7-0.178 1.427-0.22 2.143-0.123 2.456 0.287 2.938 1.82 2.846 2.462-0.043 0.229-0.135 0.445-0.27 0.635s-0.308 0.348-0.509 0.465c-0.172 0.107-0.225 0.143-0.21 0.223 0.021 0.115 0.1 0.111 0.247 0.086 0.369-0.116 0.694-0.341 0.933-0.646s0.379-0.674 0.403-1.061c0.059-1.5-1.382-3.186-3.934-3.143-0.741-0.021-1.481 0.080-2.189 0.3-0.036-0.041-0.072-0.081-0.108-0.12-1.578-1.683-4.494-2.874-4.371-5.137 0.045-0.823 0.331-2.989 5.6-5.617 4.32-2.153 7.778-1.56 8.376-0.247 0.854 1.876-1.848 5.361-6.334 5.864-0.496 0.101-1.008 0.088-1.498-0.036s-0.947-0.357-1.335-0.682c-0.236-0.26-0.271-0.271-0.359-0.223-0.143 0.079-0.052 0.309 0 0.445 0.172 0.31 0.404 0.582 0.682 0.8s0.598 0.38 0.939 0.473c1.764 0.383 3.603 0.201 5.258-0.52 2.721-1.049 4.843-3.974 4.22-6.419zM13.218 20.663c0.199 0.685 0.188 1.413-0.029 2.092-0.023 0.071-0.049 0.141-0.077 0.21s-0.058 0.136-0.091 0.2c-0.168 0.344-0.386 0.662-0.647 0.943-0.813 0.887-1.95 1.223-2.437 0.94-0.526-0.305-0.263-1.556 0.68-2.553 0.725-0.716 1.56-1.311 2.474-1.762l0.127-0.070z"></path>
</symbol>
</defs>
</svg>
