<svg aria-hidden="true" style="position: absolute; width: 0; height: 0; overflow: hidden;" version="1.1" xmlns="http://www.w3.org/2000/svg" xmlns:xlink="http://www.w3.org/1999/xlink">
<defs>
<symbol id="icon-css" viewBox="0 0 32 32">
  <path fill="#1572b6" style="fill: var(--color1, #1572b6)" d="M5.902 27.201l-2.246-25.201h24.688l-2.249 25.197-10.11 2.803-10.083-2.799z"></path>
  <path fill="#33a9dc" style="fill: var(--color2, #33a9dc)" d="M16 27.858l8.17-2.265 1.922-21.532h-10.092v23.797z"></path>
  <path fill="#fff" style="fill: var(--color3, #fff)" d="M16 13.191h4.090l0.282-3.165h-4.372v-3.091h7.75l-0.074 0.829-0.759 8.518h-6.917v-3.091z"></path>
  <path fill="#ebebeb" style="fill: var(--color4, #ebebeb)" d="M16.019 21.218l-0.014 0.004-3.442-0.93-0.22-2.465h-3.103l0.433 4.853 6.331 1.758 0.015-0.004v-3.216z"></path>
  <path fill="#fff" style="fill: var(--color3, #fff)" d="M19.827 16.151l-0.372 4.139-3.447 0.93v3.216l6.336-1.756 0.047-0.522 0.537-6.007h-3.101z"></path>
  <path fill="#ebebeb" style="fill: var(--color4, #ebebeb)" d="M16.011 6.935v3.091h-7.466l-0.062-0.695-0.141-1.567-0.074-0.829h7.743zM16 13.191v3.091h-3.399l-0.062-0.695-0.14-1.567-0.074-0.829h3.675z"></path>
</symbol>
<symbol id="icon-github" viewBox="0 0 32 32">
  <path d="M16 2.667c-1.751 0-3.485 0.345-5.102 1.015s-3.088 1.652-4.326 2.89c-2.5 2.5-3.905 5.892-3.905 9.428 0 5.893 3.827 10.893 9.12 12.667 0.667 0.107 0.88-0.307 0.88-0.667v-2.253c-3.693 0.8-4.48-1.787-4.48-1.787-0.613-1.547-1.48-1.96-1.48-1.96-1.213-0.827 0.093-0.8 0.093-0.8 1.333 0.093 2.040 1.373 2.040 1.373 1.16 2.027 3.12 1.427 3.88 1.107 0.12-0.867 0.467-1.453 0.84-1.787-2.96-0.333-6.067-1.48-6.067-6.56 0-1.48 0.507-2.667 1.373-3.613-0.133-0.333-0.6-1.72 0.133-3.52 0 0 1.12-0.36 3.667 1.36 1.053-0.293 2.2-0.44 3.333-0.44s2.28 0.147 3.333 0.44c2.547-1.72 3.667-1.36 3.667-1.36 0.733 1.8 0.267 3.187 0.133 3.52 0.867 0.947 1.373 2.133 1.373 3.613 0 5.093-3.12 6.213-6.093 6.547 0.48 0.413 0.92 1.227 0.92 2.467v3.653c0 0.36 0.213 0.787 0.893 0.667 5.293-1.787 9.107-6.773 9.107-12.667 0-1.751-0.345-3.485-1.015-5.102s-1.652-3.088-2.89-4.326-2.708-2.22-4.326-2.89c-1.618-0.67-3.352-1.015-5.102-1.015z"></path>
</symbol>
<symbol id="icon-github-btn" viewBox="0 0 32 32">
  <path d="M16 2.667c-1.751 0-3.485 0.345-5.102 1.015s-3.088 1.652-4.326 2.89c-2.5 2.5-3.905 5.892-3.905 9.428 0 5.893 3.827 10.893 9.12 12.667 0.667 0.107 0.88-0.307 0.88-0.667v-2.253c-3.693 0.8-4.48-1.787-4.48-1.787-0.613-1.547-1.48-1.96-1.48-1.96-1.213-0.827 0.093-0.8 0.093-0.8 1.333 0.093 2.040 1.373 2.040 1.373 1.16 2.027 3.12 1.427 3.88 1.107 0.12-0.867 0.467-1.453 0.84-1.787-2.96-0.333-6.067-1.48-6.067-6.56 0-1.48 0.507-2.667 1.373-3.613-0.133-0.333-0.6-1.72 0.133-3.52 0 0 1.12-0.36 3.667 1.36 1.053-0.293 2.2-0.44 3.333-0.44s2.28 0.147 3.333 0.44c2.547-1.72 3.667-1.36 3.667-1.36 0.733 1.8 0.267 3.187 0.133 3.52 0.867 0.947 1.373 2.133 1.373 3.613 0 5.093-3.12 6.213-6.093 6.547 0.48 0.413 0.92 1.227 0.92 2.467v3.653c0 0.36 0.213 0.787 0.893 0.667 5.293-1.787 9.107-6.773 9.107-12.667 0-1.751-0.345-3.485-1.015-5.102s-1.652-3.088-2.89-4.326-2.708-2.22-4.326-2.89c-1.618-0.67-3.352-1.015-5.102-1.015z"></path>
</symbol>
<symbol id="icon-html" viewBox="0 0 32 32">
  <path fill="#e44f26" style="fill: var(--color6, #e44f26)" d="M5.902 27.201l-2.247-25.201h24.69l-2.25 25.197-10.11 2.803-10.083-2.799z"></path>
  <path fill="#f1662a" style="fill: var(--color7, #f1662a)" d="M16 27.858l8.17-2.265 1.922-21.532h-10.092v23.797z"></path>
  <path fill="#ebebeb" style="fill: var(--color4, #ebebeb)" d="M16 13.407h-4.090l-0.282-3.165h4.372v-3.091h-7.75l0.074 0.83 0.759 8.517h6.917v-3.091zM16 21.434l-0.014 0.004-3.442-0.929-0.22-2.465h-3.103l0.433 4.852 6.332 1.758 0.014-0.004v-3.216z"></path>
  <path fill="#fff" style="fill: var(--color3, #fff)" d="M15.989 13.407v3.091h3.806l-0.358 4.009-3.448 0.93v3.216l6.337-1.757 0.046-0.522 0.726-8.137 0.076-0.83h-7.185zM15.989 7.151v3.091h7.466l0.062-0.694 0.141-1.567 0.074-0.83h-7.743z"></path>
</symbol>
<symbol id="icon-sass" viewBox="0 0 32 32">
  <path fill="#c69" style="fill: var(--color9, #c69)" d="M16 2c2.769 0 5.476 0.821 7.778 2.359s4.097 3.725 5.156 6.283c1.060 2.558 1.337 5.373 0.797 8.089s-1.874 5.21-3.832 7.168-4.453 3.291-7.168 3.831c-2.716 0.54-5.531 0.263-8.089-0.797s-4.745-2.854-6.283-5.156-2.359-5.009-2.359-7.778c0-3.713 1.475-7.274 4.101-9.899s6.186-4.101 9.899-4.101z"></path>
  <path fill="#fff" style="fill: var(--color3, #fff)" d="M24.782 7.992c-0.634-2.486-4.757-3.3-8.659-1.918-2.444 0.821-4.701 2.116-6.644 3.811-2.149 2.010-2.492 3.76-2.351 4.491 0.5 2.58 4.033 4.266 5.486 5.517v0.007c-0.428 0.211-3.564 1.8-4.3 3.42-0.774 1.712 0.123 2.94 0.718 3.105 0.893 0.215 1.832 0.145 2.683-0.2s1.574-0.948 2.065-1.725c0.406-0.629 0.66-1.344 0.742-2.088s-0.011-1.497-0.27-2.2c0.7-0.178 1.427-0.22 2.143-0.123 2.456 0.287 2.938 1.82 2.846 2.462-0.043 0.229-0.135 0.445-0.27 0.635s-0.308 0.348-0.509 0.465c-0.172 0.107-0.225 0.143-0.21 0.223 0.021 0.115 0.1 0.111 0.247 0.086 0.369-0.116 0.694-0.341 0.933-0.646s0.379-0.674 0.403-1.061c0.059-1.5-1.382-3.186-3.934-3.143-0.741-0.021-1.481 0.080-2.189 0.3-0.036-0.041-0.072-0.081-0.108-0.12-1.578-1.683-4.494-2.874-4.371-5.137 0.045-0.823 0.331-2.989 5.6-5.617 4.32-2.153 7.778-1.56 8.376-0.247 0.854 1.876-1.848 5.361-6.334 5.864-0.496 0.101-1.008 0.088-1.498-0.036s-0.947-0.357-1.335-0.682c-0.236-0.26-0.271-0.271-0.359-0.223-0.143 0.079-0.052 0.309 0 0.445 0.172 0.31 0.404 0.582 0.682 0.8s0.598 0.38 0.939 0.473c1.764 0.383 3.603 0.201 5.258-0.52 2.721-1.049 4.843-3.974 4.22-6.419zM13.218 20.663c0.199 0.685 0.188 1.413-0.029 2.092-0.023 0.071-0.049 0.141-0.077 0.21s-0.058 0.136-0.091 0.2c-0.168 0.344-0.386 0.662-0.647 0.943-0.813 0.887-1.95 1.223-2.437 0.94-0.526-0.305-0.263-1.556 0.68-2.553 0.725-0.716 1.56-1.311 2.474-1.762l0.127-0.070z"></path>
</symbol>
<symbol id="icon-git" viewBox="0 0 73 32">
  <path fill="#2f2707" style="fill: var(--color1, #2f2707)" d="M43.71 10.663c-1.599 0-2.79 0.787-2.79 2.682 0 1.428 0.785 2.419 2.704 2.419 1.627 0 2.731-0.961 2.731-2.479 0-1.719-0.989-2.623-2.645-2.623zM40.513 24.044c-0.379 0.466-0.756 0.961-0.756 1.544 0 1.165 1.482 1.516 3.517 1.516 1.686 0 3.982-0.119 3.982-1.691 0-0.934-1.105-0.992-2.501-1.080l-4.243-0.29zM49.117 10.751c0.522 0.67 1.075 1.604 1.075 2.944 0 3.236-2.529 5.13-6.191 5.13-0.931 0-1.774-0.116-2.297-0.262l-0.96 1.544 2.848 0.175c5.029 0.322 7.993 0.468 7.993 4.343 0 3.353-2.935 5.247-7.993 5.247-5.261 0-7.267-1.341-7.267-3.643 0-1.312 0.581-2.010 1.599-2.974-0.959-0.407-1.279-1.135-1.279-1.923 0-0.642 0.319-1.224 0.843-1.779 0.523-0.553 1.104-1.107 1.802-1.749-1.424-0.7-2.5-2.215-2.5-4.373 0-3.351 2.209-5.653 6.656-5.653 1.25 0 2.006 0.115 2.675 0.291h5.669v2.477l-2.675 0.204zM56.905 5.454c-1.657 0-2.616-0.963-2.616-2.625 0-1.66 0.959-2.564 2.616-2.564 1.686 0 2.645 0.905 2.645 2.564 0 1.662-0.959 2.625-2.645 2.625zM53.155 22.971v-2.302l1.483-0.203c0.407-0.059 0.465-0.146 0.465-0.584v-8.57c0-0.32-0.087-0.525-0.379-0.611l-1.569-0.554 0.319-2.36h6.017v12.096c0 0.467 0.028 0.525 0.465 0.584l1.482 0.203v2.301h-8.285zM72.934 21.841c-1.25 0.612-3.081 1.166-4.739 1.166-3.459 0-4.766-1.398-4.766-4.693v-7.636c0-0.175 0-0.291-0.233-0.291h-2.034v-2.595c2.559-0.292 3.575-1.575 3.895-4.752h2.762v4.14c0 0.203 0 0.291 0.233 0.291h4.098v2.915h-4.331v6.966c0 1.72 0.407 2.39 1.976 2.39 0.815 0 1.657-0.203 2.354-0.466l0.786 2.566z"></path>
  <path fill="#de4c36" style="fill: var(--color2, #de4c36)" d="M29.865 14.192l-13.29-13.327c-0.182-0.183-0.398-0.327-0.636-0.426s-0.493-0.15-0.75-0.15c-0.258 0-0.512 0.051-0.75 0.15s-0.454 0.244-0.636 0.426l-2.76 2.768 3.501 3.511c0.412-0.14 0.854-0.162 1.277-0.063s0.811 0.315 1.118 0.623c0.309 0.31 0.525 0.701 0.622 1.129s0.074 0.874-0.069 1.288l3.373 3.384c0.816-0.282 1.758-0.099 2.41 0.555 0.217 0.217 0.389 0.475 0.506 0.759s0.178 0.588 0.178 0.895c0 0.307-0.060 0.611-0.178 0.895s-0.289 0.542-0.506 0.759c-0.381 0.383-0.883 0.621-1.42 0.674s-1.075-0.081-1.524-0.381c-0.449-0.3-0.78-0.747-0.938-1.264s-0.131-1.073 0.074-1.574l-3.146-3.155-0 8.304c0.228 0.113 0.436 0.262 0.617 0.442 0.217 0.217 0.388 0.475 0.506 0.759s0.178 0.588 0.178 0.895c0 0.307-0.060 0.611-0.178 0.895s-0.289 0.542-0.506 0.759c-0.911 0.914-2.389 0.914-3.299 0-0.272-0.272-0.472-0.608-0.584-0.977s-0.13-0.76-0.055-1.138 0.243-0.731 0.488-1.029c0.245-0.297 0.559-0.529 0.914-0.676v-8.381c-0.286-0.117-0.546-0.291-0.763-0.511-0.69-0.691-0.856-1.707-0.502-2.557l-3.451-3.461-9.113 9.138c-0.182 0.183-0.327 0.399-0.425 0.638s-0.149 0.494-0.149 0.753 0.051 0.514 0.149 0.753c0.099 0.238 0.243 0.455 0.425 0.638l13.29 13.328c0.368 0.369 0.866 0.576 1.386 0.576s1.018-0.207 1.386-0.576l13.228-13.265c0.368-0.369 0.574-0.869 0.574-1.391s-0.206-1.022-0.574-1.391z"></path>
</symbol>
<symbol id="icon-react" viewBox="0 0 32 32">
  <path fill="#7b7b7b" style="fill: var(--color1, #7b7b7b)" d="M16 2c2.769 0 5.476 0.821 7.778 2.359s4.097 3.725 5.156 6.283c1.060 2.558 1.337 5.373 0.797 8.089s-1.874 5.21-3.832 7.168-4.453 3.291-7.168 3.831c-2.716 0.54-5.531 0.263-8.089-0.797s-4.745-2.854-6.283-5.156-2.359-5.009-2.359-7.778c0-3.713 1.475-7.274 4.101-9.899s6.186-4.101 9.899-4.101z"></path>
  <path fill="#61dafb" style="fill: var(--color2, #61dafb)" d="M6.626 14.768c-0.473 0.435-0.669 0.853-0.669 1.232s0.196 0.797 0.669 1.232c0.473 0.436 1.185 0.85 2.105 1.208 1.837 0.715 4.407 1.167 7.269 1.167s5.433-0.452 7.269-1.167c0.92-0.358 1.632-0.773 2.105-1.208s0.669-0.853 0.669-1.232-0.196-0.796-0.669-1.232c-0.473-0.435-1.185-0.85-2.105-1.208-1.837-0.715-4.407-1.167-7.269-1.167s-5.433 0.452-7.269 1.167c-0.92 0.358-1.632 0.773-2.105 1.208zM8.389 12.649c1.971-0.767 4.662-1.231 7.611-1.231s5.639 0.464 7.611 1.231c0.984 0.383 1.813 0.851 2.405 1.395s0.985 1.204 0.985 1.956c0 0.751-0.393 1.411-0.985 1.956s-1.421 1.012-2.405 1.395c-1.971 0.767-4.662 1.231-7.611 1.231s-5.639-0.464-7.611-1.231c-0.984-0.383-1.813-0.851-2.405-1.395s-0.985-1.204-0.985-1.956c0-0.751 0.393-1.411 0.985-1.956s1.421-1.012 2.405-1.395z"></path>
  <path fill="#61dafb" style="fill: var(--color2, #61dafb)" d="M12.36 7.109c-0.607-0.2-1.059-0.164-1.381 0.025s-0.579 0.571-0.712 1.207c-0.133 0.635-0.13 1.471 0.026 2.462 0.311 1.979 1.212 4.474 2.643 7s3.101 4.569 4.626 5.833c0.764 0.633 1.472 1.054 2.079 1.254s1.059 0.164 1.381-0.026c0.322-0.19 0.579-0.571 0.712-1.207s0.13-1.471-0.026-2.462c-0.311-1.979-1.212-4.474-2.643-7s-3.101-4.569-4.627-5.833c-0.764-0.633-1.472-1.054-2.079-1.254zM15.042 7.607c1.637 1.356 3.377 3.5 4.852 6.102s2.425 5.21 2.759 7.334c0.167 1.060 0.184 2.026 0.017 2.82s-0.531 1.471-1.169 1.847c-0.638 0.376-1.396 0.359-2.154 0.109s-1.57-0.748-2.388-1.425c-1.637-1.356-3.377-3.5-4.852-6.102s-2.425-5.21-2.759-7.334c-0.167-1.060-0.184-2.026-0.017-2.82s0.531-1.471 1.169-1.847c0.638-0.376 1.396-0.359 2.154-0.109s1.57 0.748 2.388 1.425z"></path>
  <path fill="#61dafb" style="fill: var(--color2, #61dafb)" d="M16 17.998c1.083 0 1.961-0.895 1.961-1.999s-0.878-1.999-1.961-1.999c-1.083 0-1.961 0.895-1.961 1.999s0.878 1.999 1.961 1.999z"></path>
  <path fill="#61dafb" style="fill: var(--color2, #61dafb)" d="M21.734 8.341c-0.133-0.636-0.39-1.017-0.712-1.207s-0.775-0.225-1.381-0.025c-0.607 0.2-1.315 0.621-2.079 1.254-1.526 1.264-3.195 3.306-4.627 5.833s-2.332 5.021-2.643 7c-0.156 0.991-0.159 1.827-0.026 2.462s0.39 1.017 0.712 1.207c0.322 0.19 0.775 0.226 1.381 0.025s1.315-0.621 2.079-1.254c1.526-1.264 3.195-3.306 4.627-5.833s2.332-5.021 2.643-7c0.156-0.991 0.16-1.827 0.026-2.462zM22.652 10.958c-0.334 2.123-1.285 4.731-2.759 7.333s-3.214 4.746-4.852 6.102c-0.817 0.677-1.63 1.175-2.388 1.425s-1.516 0.267-2.154-0.109c-0.638-0.376-1.003-1.053-1.169-1.847s-0.15-1.76 0.017-2.82c0.334-2.123 1.285-4.731 2.759-7.334s3.214-4.746 4.851-6.102c0.817-0.677 1.63-1.175 2.388-1.425s1.516-0.267 2.154 0.109 1.003 1.053 1.169 1.847c0.167 0.794 0.15 1.76-0.017 2.82z"></path>
</symbol>
<symbol id="icon-figma" viewBox="0 0 32 32">
  <path fill="#0acf83" style="fill: var(--color3, #0acf83)" d="M11.794 28.5c2.3 0 4.167-1.867 4.167-4.167v-4.167h-4.167c-2.3 0-4.167 1.867-4.167 4.167s1.867 4.167 4.167 4.167z"></path>
  <path fill="#a259ff" style="fill: var(--color4, #a259ff)" d="M7.627 16c0-2.3 1.867-4.167 4.167-4.167h4.167v8.333h-4.167c-2.3 0-4.167-1.867-4.167-4.167z"></path>
  <path fill="#f24e1e" style="fill: var(--color5, #f24e1e)" d="M7.627 7.667c0-2.3 1.867-4.167 4.167-4.167h4.167v8.333h-4.167c-2.3 0-4.167-1.867-4.167-4.167z"></path>
  <path fill="#ff7262" style="fill: var(--color6, #ff7262)" d="M15.96 3.5h4.167c2.3 0 4.167 1.867 4.167 4.167s-1.867 4.167-4.167 4.167h-4.167v-8.333z"></path>
  <path fill="#1abcfe" style="fill: var(--color7, #1abcfe)" d="M24.293 16c0 2.3-1.867 4.167-4.167 4.167s-4.167-1.867-4.167-4.167c0-2.3 1.867-4.167 4.167-4.167s4.167 1.867 4.167 4.167z"></path>
</symbol>
<symbol id="icon-gsap" viewBox="0 0 90 32">
  <path fill="#0ae448" style="fill: var(--color8, #0ae448)" d="M26.017 14.946v0.014l-1.175 4.977c-0.063 0.282-0.352 0.488-0.684 0.488h-1.42c-0.051 0-0.101 0.016-0.142 0.047s-0.071 0.072-0.085 0.12c-1.309 4.335-3.081 7.314-5.422 9.103-1.991 1.523-4.445 2.234-7.724 2.234-2.946 0-4.932-0.925-6.617-2.751-2.227-2.413-3.147-6.364-2.59-11.123 1.005-8.935 5.753-17.952 14.894-17.952 2.781-0.023 4.964 0.814 6.483 2.485 1.606 1.769 2.421 4.431 2.426 7.917-0.004 0.153-0.069 0.298-0.181 0.405s-0.262 0.167-0.419 0.167h-6.698c-0.117-0.004-0.229-0.051-0.312-0.132s-0.13-0.191-0.133-0.305c-0.055-2.411-0.787-3.584-2.242-3.584-2.568 0-4.082 3.403-4.885 5.289-1.122 2.635-1.694 5.497-1.581 8.347 0.054 1.327 0.272 3.193 1.563 3.966 1.144 0.685 2.777 0.23 3.765-0.528 0.988-0.76 1.783-2.072 2.118-3.27 0.047-0.166 0.050-0.296 0.005-0.353-0.047-0.060-0.177-0.074-0.276-0.074h-1.72c-0.091 0-0.181-0.019-0.264-0.056s-0.156-0.092-0.215-0.159c-0.045-0.053-0.077-0.115-0.094-0.182s-0.017-0.137-0.001-0.204l1.176-4.986c0.058-0.255 0.295-0.448 0.587-0.482v-0.013h11.287c0.026 0 0.054 0 0.079 0.005 0.293 0.037 0.499 0.303 0.494 0.593h0.003z"></path>
  <path fill="#0ae448" style="fill: var(--color8, #0ae448)" d="M45.45 9.227c-0.005 0.152-0.071 0.295-0.182 0.401s-0.261 0.164-0.417 0.164h-6.169c-0.404 0-0.742-0.32-0.742-0.709 0-1.757-0.623-2.612-1.897-2.612s-2.096 0.764-2.12 2.098c-0.027 1.488 0.835 2.841 3.289 5.164 3.231 2.959 4.526 5.58 4.464 9.044-0.102 5.602-4.004 9.224-9.941 9.224-3.032 0-5.349-0.792-6.889-2.353-1.564-1.586-2.28-3.914-2.131-6.917 0.005-0.152 0.071-0.296 0.183-0.401s0.262-0.164 0.417-0.164h6.381c0.089 0.001 0.176 0.022 0.256 0.060s0.15 0.094 0.205 0.161c0.048 0.056 0.084 0.122 0.104 0.193s0.024 0.145 0.012 0.217c-0.071 1.084 0.122 1.893 0.56 2.341 0.28 0.29 0.67 0.437 1.156 0.437 1.179 0 1.87-0.813 1.896-2.229 0.022-1.225-0.375-2.298-2.536-4.468-2.792-2.662-5.295-5.413-5.218-9.739 0.046-2.509 1.067-4.803 2.875-6.461 1.912-1.751 4.527-2.677 7.562-2.677 3.041 0.021 5.345 0.868 6.85 2.517 1.425 1.563 2.11 3.82 2.035 6.709h-0.002z"></path>
  <path fill="#0ae448" style="fill: var(--color8, #0ae448)" d="M64.572 30.946l0.040-29.795c0.001-0.075-0.013-0.149-0.041-0.218s-0.071-0.132-0.125-0.185-0.118-0.095-0.189-0.123c-0.071-0.028-0.147-0.043-0.223-0.042h-9.548c-0.321 0-0.462 0.27-0.554 0.448l-13.83 29.746c-0.153 0.366 0.138 0.757 0.543 0.757h6.674c0.361 0 0.6-0.107 0.717-0.328l1.325-3.109c0.163-0.415 0.193-0.453 0.657-0.453h6.377c0.444 0 0.452 0.009 0.446 0.432l-0.143 2.891c-0.001 0.075 0.013 0.148 0.041 0.218s0.071 0.132 0.125 0.185c0.054 0.053 0.118 0.095 0.188 0.123s0.146 0.043 0.223 0.042h6.743c0.084 0.001 0.166-0.016 0.242-0.049s0.144-0.083 0.198-0.145c0.047-0.054 0.081-0.117 0.101-0.185s0.024-0.139 0.012-0.209zM52.76 20.998c-0.050 0-0.101-0.002-0.151-0.005-0.024-0.002-0.046-0.009-0.067-0.020s-0.038-0.027-0.051-0.046c-0.014-0.019-0.023-0.040-0.027-0.063s-0.003-0.046 0.003-0.068c0.013-0.043 0.032-0.101 0.059-0.173l4.781-11.55c0.043-0.114 0.093-0.225 0.149-0.334 0.078-0.156 0.172-0.166 0.201-0.051 0.025 0.096-0.548 11.859-0.548 11.859-0.045 0.441-0.066 0.459-0.51 0.495l-3.839-0.045z"></path>
  <path fill="#0ae448" style="fill: var(--color8, #0ae448)" d="M78.174 0.582h-5.069c-0.268 0-0.568 0.139-0.638 0.45l-7.054 29.899c-0.015 0.068-0.015 0.137 0.002 0.204s0.049 0.13 0.094 0.183c0.059 0.068 0.132 0.122 0.214 0.159s0.172 0.056 0.263 0.056h6.335c0.341 0 0.574-0.163 0.637-0.446l0.769-3.389c0.055-0.264-0.039-0.469-0.282-0.593-0.114-0.057-0.228-0.115-0.341-0.173l-2.614-1.329c-0.034-0.017-0.063-0.043-0.083-0.075s-0.030-0.069-0.029-0.107c0.001-0.056 0.025-0.108 0.066-0.147s0.096-0.060 0.153-0.060l3.472 0.015c1.038 0.005 2.077-0.066 3.099-0.25 7.19-1.296 11.965-6.917 12.103-14.566 0.118-6.528-3.615-9.836-11.091-9.836l-0.005 0.003zM76.449 18.374h-0.136c-0.305 0-0.358-0.032-0.367-0.043-0.005-0.008 2.002-8.611 2.003-8.623 0.051-0.249 0.049-0.391-0.108-0.476-0.201-0.109-3.132-1.617-3.132-1.617-0.034-0.018-0.062-0.044-0.082-0.076s-0.029-0.070-0.028-0.107c0.001-0.055 0.025-0.107 0.065-0.145s0.094-0.060 0.15-0.060h4.634c1.442 0.043 2.247 1.302 2.208 3.454-0.067 3.724-1.88 7.562-5.208 7.693z"></path>
</symbol>
<symbol id="icon-tailwind" viewBox="0 0 256 32">
  <path fill="#38bdf8" style="fill: var(--color9, #38bdf8)" d="M26.615 0c-7.098 0-11.533 3.491-13.308 10.473 2.662-3.491 5.767-4.8 9.315-3.928 2.025 0.498 3.472 1.943 5.073 3.543 2.61 2.605 5.63 5.621 12.226 5.621 7.097 0 11.533-3.491 13.307-10.472-2.661 3.491-5.766 4.8-9.314 3.927-2.026-0.498-3.473-1.943-5.074-3.542-2.61-2.607-5.629-5.622-12.225-5.622zM13.307 15.709c-7.097 0-11.533 3.491-13.307 10.473 2.662-3.491 5.767-4.8 9.314-3.928 2.026 0.498 3.473 1.943 5.074 3.543 2.61 2.605 5.629 5.621 12.226 5.621 7.097 0 11.532-3.49 13.307-10.472-2.662 3.491-5.767 4.8-9.315 3.928-2.024-0.498-3.472-1.944-5.073-3.543-2.61-2.605-5.63-5.622-12.226-5.622z"></path>
  <path fill="#000" style="fill: var(--color10, #000)" d="M76.032 12.31h-4.645v8.843c0 2.359 1.573 2.322 4.645 2.174v3.575c-6.219 0.737-8.691-0.958-8.691-5.749v-8.843h-3.446v-3.833h3.446v-4.949l4.046-1.18v6.128h4.645v3.833zM93.736 8.477h4.045v18.425h-4.045v-2.653c-1.424 1.952-3.634 3.132-6.555 3.132-5.094 0-9.327-4.237-9.327-9.692 0-5.49 4.233-9.691 9.327-9.691 2.922 0 5.132 1.179 6.555 3.096v-2.617zM87.818 23.585c3.371 0 5.918-2.469 5.918-5.896s-2.547-5.895-5.918-5.895c-3.371 0-5.918 2.469-5.918 5.895 0 3.427 2.547 5.896 5.918 5.896zM104.523 5.714c-1.423 0-2.583-1.179-2.583-2.542 0.003-0.676 0.277-1.323 0.761-1.799s1.14-0.744 1.822-0.743c0.683-0.001 1.338 0.266 1.823 0.743s0.758 1.124 0.762 1.8c0 1.363-1.161 2.542-2.585 2.542zM102.501 26.902v-18.425h4.046v18.425h-4.046zM111.229 26.902v-26.902h4.045v26.901l-4.045 0.001zM141.531 8.477h4.27l-5.881 18.425h-3.971l-3.896-12.418-3.933 12.418h-3.97l-5.882-18.425h4.27l3.634 12.712 3.933-12.712h3.858l3.895 12.712 3.671-12.712zM150.82 5.714c-1.424 0-2.585-1.179-2.585-2.542 0.003-0.676 0.277-1.323 0.762-1.8s1.14-0.744 1.823-0.743c0.683-0.001 1.339 0.266 1.823 0.743s0.758 1.124 0.762 1.8c0 1.363-1.161 2.542-2.585 2.542zM148.798 26.902v-18.425h4.045v18.425h-4.045zM167.376 7.998c4.195 0 7.192 2.801 7.192 7.591v11.311h-4.045v-10.907c0-2.8-1.648-4.274-4.195-4.274-2.66 0-4.757 1.547-4.757 5.306v9.876h-4.046v-18.425h4.046v2.359c1.236-1.916 3.258-2.838 5.805-2.838zM193.746 1.108h4.046v25.793h-4.046v-2.653c-1.422 1.953-3.634 3.132-6.555 3.132-5.093 0-9.326-4.237-9.326-9.692 0-5.49 4.233-9.691 9.326-9.691 2.921 0 5.132 1.179 6.555 3.096v-9.985zM187.828 23.585c3.371 0 5.918-2.469 5.918-5.896s-2.548-5.895-5.918-5.895c-3.371 0-5.918 2.469-5.918 5.895 0 3.427 2.548 5.896 5.918 5.896zM211.351 27.381c-5.657 0-9.89-4.237-9.89-9.692 0-5.49 4.233-9.691 9.89-9.691 3.669 0 6.853 1.879 8.352 4.754l-3.484 1.99c-0.823-1.732-2.658-2.838-4.907-2.838-3.294 0-5.804 2.469-5.804 5.785s2.51 5.786 5.804 5.786c2.249 0 4.084-1.143 4.983-2.838l3.483 1.953c-1.573 2.911-4.757 4.791-8.427 4.791zM226.444 13.562c0 3.354 10.076 1.326 10.076 8.145 0 3.685-3.259 5.674-7.303 5.674-3.746 0-6.443-1.659-7.641-4.312l3.483-1.989c0.599 1.658 2.098 2.653 4.158 2.653 1.797 0 3.182-0.589 3.182-2.065 0-3.278-10.075-1.436-10.075-8.032 0-3.464 3.033-5.638 6.855-5.638 3.070 0 5.618 1.401 6.93 3.833l-3.41 1.879c-0.674-1.437-1.986-2.101-3.52-2.101-1.461 0-2.736 0.627-2.736 1.953zM243.714 13.562c0 3.354 10.075 1.326 10.075 8.145 0 3.685-3.259 5.674-7.305 5.674-3.744 0-6.441-1.659-7.641-4.312l3.484-1.989c0.599 1.658 2.098 2.653 4.156 2.653 1.799 0 3.186-0.589 3.186-2.065 0-3.278-10.076-1.436-10.076-8.032 0-3.464 3.033-5.638 6.855-5.638 3.070 0 5.618 1.401 6.928 3.833l-3.408 1.879c-0.674-1.437-1.986-2.101-3.52-2.101-1.461 0-2.734 0.627-2.734 1.953z"></path>
</symbol>
<symbol id="icon-outside" viewBox="0 0 32 32">
  <path d="M29.598 14.191l-4.129-4.129-9.047 9.047c-1.563 1.563-3.098 2.563-4.656 1-1.563-1.562-0.563-3.094 1-4.656l9.047-9.047-4.067-4.068c-0.887-0.887-0.125-2.369 1.188-2.369h10.664c1.309 0 2.371 1.061 2.371 2.369v10.668c0 1.309-1.481 2.074-2.371 1.186zM3.969 27.969h20v-11.762l4 4v7.762c0 2.211-1.789 4-4 4h-20c-2.211 0-4-1.789-4-4v-20c0-2.209 1.789-4 4-4h7.762l4 4h-11.762v20z"></path>
</symbol>
<symbol id="icon-instagram" viewBox="0 0 32 32">
  <path d="M17.37 2.667c1.5 0.004 2.261 0.012 2.919 0.031l0.259 0.009c0.299 0.011 0.593 0.024 0.949 0.040 1.419 0.067 2.387 0.291 3.236 0.62 0.88 0.339 1.621 0.797 2.363 1.537 0.678 0.667 1.203 1.473 1.537 2.363 0.329 0.849 0.553 1.817 0.62 3.237 0.016 0.355 0.029 0.649 0.040 0.949l0.008 0.259c0.020 0.656 0.028 1.417 0.031 2.917l0.001 0.995v1.747c0.003 0.973-0.007 1.945-0.031 2.917l-0.008 0.259c-0.011 0.3-0.024 0.595-0.040 0.949-0.067 1.42-0.293 2.387-0.621 3.237-0.334 0.89-0.859 1.697-1.537 2.363-0.667 0.678-1.473 1.202-2.363 1.537-0.849 0.329-1.817 0.553-3.236 0.62-0.316 0.015-0.633 0.028-0.949 0.040l-0.259 0.008c-0.657 0.019-1.419 0.028-2.919 0.031l-2.74 0.001c-0.973 0.003-1.946-0.007-2.919-0.031l-0.259-0.008c-0.317-0.012-0.633-0.026-0.949-0.041-1.419-0.067-2.387-0.291-3.237-0.62-0.89-0.334-1.696-0.859-2.361-1.537-0.679-0.666-1.204-1.473-1.539-2.363-0.329-0.849-0.553-1.817-0.62-3.237-0.015-0.316-0.028-0.633-0.040-0.949l-0.007-0.259c-0.025-0.972-0.036-1.945-0.033-2.917v-2.741c-0.004-0.973 0.006-1.945 0.029-2.917l0.009-0.259c0.011-0.3 0.024-0.595 0.040-0.949 0.067-1.42 0.291-2.387 0.62-3.237 0.335-0.891 0.861-1.697 1.541-2.363 0.665-0.678 1.471-1.203 2.36-1.537 0.851-0.329 1.817-0.553 3.237-0.62 0.355-0.016 0.651-0.029 0.949-0.040l0.259-0.008c0.972-0.024 1.945-0.034 2.917-0.031l2.741-0.001zM15.999 9.333c-1.768 0-3.464 0.702-4.714 1.953s-1.953 2.946-1.953 4.714c0 1.768 0.702 3.464 1.953 4.714s2.946 1.953 4.714 1.953 3.464-0.702 4.714-1.953c1.25-1.25 1.953-2.946 1.953-4.714s-0.702-3.464-1.953-4.714c-1.25-1.25-2.946-1.953-4.714-1.953zM15.999 12c0.525-0 1.045 0.103 1.531 0.304s0.926 0.495 1.298 0.867c0.371 0.371 0.666 0.812 0.867 1.298s0.305 1.005 0.305 1.531-0.103 1.045-0.304 1.531c-0.201 0.485-0.495 0.926-0.867 1.298s-0.812 0.666-1.298 0.867c-0.485 0.201-1.005 0.305-1.531 0.305-1.061 0-2.078-0.421-2.828-1.172s-1.172-1.768-1.172-2.828c0-1.061 0.421-2.078 1.172-2.828s1.768-1.172 2.828-1.172zM23.001 7.333c-0.442 0-0.866 0.176-1.179 0.488s-0.488 0.736-0.488 1.178c0 0.442 0.176 0.866 0.488 1.178s0.737 0.488 1.179 0.488c0.442 0 0.866-0.176 1.179-0.488s0.488-0.736 0.488-1.178c0-0.442-0.176-0.866-0.488-1.178s-0.737-0.488-1.179-0.488z"></path>
</symbol>
<symbol id="icon-linkedin" viewBox="0 0 32 32">
  <path  d="M25.333 4c0.707 0 1.385 0.281 1.886 0.781s0.781 1.178 0.781 1.886v18.667c0 0.707-0.281 1.385-0.781 1.886s-1.178 0.781-1.886 0.781h-18.667c-0.707 0-1.386-0.281-1.886-0.781s-0.781-1.178-0.781-1.886v-18.667c0-0.707 0.281-1.386 0.781-1.886s1.178-0.781 1.886-0.781h18.667zM24.667 24.667v-7.067c0-1.153-0.458-2.258-1.273-3.074s-1.921-1.273-3.074-1.273c-1.133 0-2.453 0.693-3.093 1.733v-1.48h-3.72v11.16h3.72v-6.573c0-1.027 0.827-1.867 1.853-1.867 0.495 0 0.97 0.197 1.32 0.547s0.547 0.825 0.547 1.32v6.573h3.72zM9.173 11.413c0.594 0 1.164-0.236 1.584-0.656s0.656-0.99 0.656-1.584c0-1.24-1-2.253-2.24-2.253-0.598 0-1.171 0.237-1.593 0.66s-0.66 0.996-0.66 1.593c0 1.24 1.013 2.24 2.253 2.24zM11.027 24.667v-11.16h-3.693v11.16h3.693z"></path>
</symbol>
</defs>
</svg>
