<svg width="24" height="25" viewBox="0 0 24 25" fill="none" xmlns="http://www.w3.org/2000/svg">
<path fill-rule="evenodd" clip-rule="evenodd" d="M0 0V24.2483H11.7962V16.6132L14.843 12.5483L20.0835 24.2483H23.301L16.6954 9.75586L23.1303 0H19.7667L11.7962 12.0888V0H0ZM9.32204 6.13863L3.7639 8.20312V6.37844L5.8838 5.67985C5.98926 5.64509 6.14395 5.59991 6.34785 5.5443C6.54473 5.48869 6.75214 5.42961 6.97011 5.36705C7.18105 5.30449 7.37792 5.24888 7.56073 5.20022V5.13766C7.39198 5.089 7.20214 5.03687 6.9912 4.98126C6.78027 4.9187 6.57637 4.85961 6.37949 4.804C6.17559 4.74839 6.01036 4.69973 5.8838 4.65803L3.7639 3.96986V2.2703L9.32204 4.34522V6.13863ZM9.44783 11.3433C9.44783 11.9689 9.34588 12.5007 9.14198 12.9386C8.93104 13.3765 8.61112 13.7136 8.18222 13.95C7.75332 14.1794 7.20489 14.2941 6.53693 14.2941C5.88303 14.2941 5.34163 14.1794 4.91273 13.95C4.48382 13.7206 4.16391 13.3904 3.95297 12.9594C3.74204 12.5285 3.63657 12.0106 3.63657 11.4058C3.63657 10.808 3.73852 10.3041 3.94242 9.89397C4.14633 9.4769 4.45922 9.16062 4.88109 8.94513C5.30296 8.72965 5.84787 8.6219 6.51583 8.6219H6.88497V12.5632C7.18028 12.5632 7.42988 12.5215 7.63379 12.4381C7.83769 12.3547 7.99238 12.2261 8.09785 12.0523C8.20331 11.8785 8.25605 11.6457 8.25605 11.3537C8.25605 11.1799 8.23495 11.027 8.19277 10.8949C8.15058 10.7629 8.09081 10.6516 8.01347 10.5613C7.9291 10.4709 7.83066 10.4014 7.71816 10.3527C7.60566 10.3041 7.4791 10.2798 7.33848 10.2798L7.33848 8.6219C7.67598 8.6219 7.97832 8.68446 8.2455 8.80958C8.50565 8.92775 8.72714 9.10501 8.90995 9.34135C9.08573 9.57769 9.21932 9.86616 9.31072 10.2068C9.40213 10.5404 9.44783 10.9193 9.44783 11.3433ZM5.92521 12.5528V10.3632C5.7424 10.3632 5.5842 10.3875 5.45061 10.4362C5.30999 10.4779 5.19397 10.5439 5.10257 10.6343C5.01116 10.7177 4.94437 10.8219 4.90218 10.9471C4.85296 11.0652 4.82835 11.2043 4.82835 11.3641C4.82835 11.6144 4.87054 11.8229 4.95491 11.9897C5.03929 12.1566 5.16233 12.2852 5.32405 12.3755C5.48577 12.4659 5.68615 12.525 5.92521 12.5528ZM2.07595 21.7687H9.32157V18.7762C9.32157 17.9977 9.19149 17.3408 8.93134 16.8056C8.67118 16.2634 8.27392 15.8533 7.73955 15.5752C7.19815 15.2902 6.51613 15.1477 5.69348 15.1477C4.86381 15.1477 4.1853 15.2902 3.65796 15.5752C3.12359 15.8533 2.72633 16.2634 2.46618 16.8056C2.20602 17.3408 2.07595 17.9977 2.07595 18.7762V21.7687ZM7.84502 18.7971V19.9023L3.55249 19.9023V18.7971C3.55249 18.5051 3.59468 18.2514 3.67905 18.0359C3.76343 17.8204 3.88647 17.6397 4.04819 17.4937C4.20991 17.3478 4.41029 17.24 4.64935 17.1705C4.88841 17.101 5.16615 17.0662 5.48255 17.0662H5.92551C6.23488 17.0662 6.5091 17.101 6.74816 17.1705C6.98722 17.24 7.18761 17.3478 7.34932 17.4937C7.51104 17.6397 7.63409 17.8204 7.71846 18.0359C7.80283 18.2514 7.84502 18.5051 7.84502 18.7971Z" fill="#45CAFF"/>
</svg>
