<svg width="32" height="32" viewBox="0 0 32 32" fill="none" xmlns="http://www.w3.org/2000/svg">
<g clip-path="url(#clip0_418_159)">
  <path d="M6.02116 27.0671L4 2.04688L28.1379 2.09715L26.0008 27.0671L16.1601 29.9533L6.02116 27.0671Z" fill="#E9CA32"/>
  <path d="M16.1602 27.5369V4.42969L26.1003 4.46321L24.3277 25.1371L16.1602 27.5369Z" fill="#FFDE25"/>
<path d="M15.0954 7.17334H12.4674V22.5529L10.4235 22.1586V20.0883L7.99023 19.6939V24.3275L15.0954 26.2007V7.17334ZM17.0667 7.17334H24.3417L23.8551 10.1211H19.8439V14.9584H23.8551L23.3684 24.7218L17.0667 26.2007V23.1445L21.3245 21.6656L21.5704 17.6236L17.0667 18.2841V7.17334Z" fill="white"/>
</g>
<defs>
<clipPath id="clip0_418_159">
<rect width="24.1379" height="28" fill="white" transform="translate(4 2)"/>
</clipPath>
</defs>
</svg>
