<svg width="150" height="30" viewBox="0 0 150 30" fill="none" xmlns="http://www.w3.org/2000/svg">
<path d="M0 24.2483V0H11.7962V12.0888L19.7667 0H23.1303L16.6954 9.75586L23.301 24.2483H20.0835L14.843 12.5483L11.7962 16.6132V24.2483H0Z" fill="#86D4FB"/>
<path d="M9.32181 6.13863L3.76367 8.20312L3.76367 6.37844L5.88357 5.67985C5.98904 5.64509 6.14372 5.59991 6.34763 5.5443C6.5445 5.48869 6.75192 5.42961 6.96989 5.36705C7.18082 5.30449 7.37769 5.24888 7.5605 5.20022L7.5605 5.13766C7.39176 5.089 7.20191 5.03687 6.99098 4.98126C6.78004 4.9187 6.57614 4.85961 6.37927 4.804C6.17536 4.74839 6.01013 4.69973 5.88357 4.65803L3.76367 3.96986L3.76367 2.2703L9.32181 4.34522L9.32181 6.13863Z" fill="#E9E9E9"/>
<path d="M9.44798 11.3437C9.44798 11.9693 9.34603 12.501 9.14213 12.939C8.93119 13.3769 8.61127 13.714 8.18237 13.9504C7.75347 14.1797 7.20504 14.2944 6.53708 14.2944C5.88318 14.2944 5.34178 14.1797 4.91288 13.9504C4.48397 13.721 4.16406 13.3908 3.95312 12.9598C3.74219 12.5288 3.63672 12.011 3.63672 11.4062C3.63672 10.8084 3.73867 10.3045 3.94257 9.89434C4.14648 9.47727 4.45937 9.16099 4.88124 8.94551C5.30311 8.73002 5.84802 8.62228 6.51598 8.62228L6.88512 8.62228L6.88512 12.5636C7.18043 12.5636 7.43004 12.5219 7.63394 12.4385C7.83784 12.3551 7.99253 12.2265 8.098 12.0527C8.20346 11.8789 8.2562 11.646 8.2562 11.3541C8.2562 11.1803 8.2351 11.0274 8.19292 10.8953C8.15073 10.7632 8.09096 10.652 8.01362 10.5617C7.92925 10.4713 7.83081 10.4018 7.71831 10.3531C7.60581 10.3045 7.47925 10.2801 7.33863 10.2801L7.33863 8.62228C7.67613 8.62228 7.97847 8.68484 8.24565 8.80996C8.5058 8.92813 8.72729 9.10538 8.9101 9.34172C9.08588 9.57806 9.21947 9.86654 9.31087 10.2071C9.40228 10.5408 9.44798 10.9196 9.44798 11.3437ZM5.92536 12.5532L5.92536 10.3635C5.74255 10.3635 5.58435 10.3879 5.45076 10.4365C5.31014 10.4782 5.19412 10.5443 5.10272 10.6346C5.01131 10.7181 4.94452 10.8223 4.90233 10.9474C4.85311 11.0656 4.8285 11.2046 4.8285 11.3645C4.8285 11.6148 4.87069 11.8233 4.95506 11.9901C5.03944 12.1569 5.16248 12.2855 5.3242 12.3759C5.48592 12.4663 5.68631 12.5254 5.92536 12.5532Z" fill="#E9E9E9"/>
<path d="M9.32179 21.769L2.07617 21.769L2.07617 18.7766C2.07617 17.998 2.20625 17.3411 2.4664 16.8059C2.72655 16.2637 3.12382 15.8536 3.65819 15.5756C4.18552 15.2906 4.86403 15.1481 5.69371 15.1481C6.51636 15.1481 7.19838 15.2906 7.73978 15.5756C8.27415 15.8536 8.67141 16.2637 8.93156 16.8059C9.19172 17.3411 9.32179 17.998 9.32179 18.7766L9.32179 21.769ZM7.84525 19.9027L7.84525 18.7974C7.84525 18.5055 7.80306 18.2518 7.71869 18.0363C7.63431 17.8208 7.51127 17.64 7.34955 17.4941C7.18783 17.3481 6.98744 17.2404 6.74838 17.1708C6.50932 17.1013 6.23511 17.0666 5.92574 17.0666L5.48277 17.0666C5.16637 17.0666 4.88864 17.1013 4.64958 17.1708C4.41052 17.2404 4.21013 17.3481 4.04842 17.4941C3.8867 17.64 3.76365 17.8208 3.67928 18.0363C3.5949 18.2518 3.55272 18.5055 3.55272 18.7974L3.55272 19.9027L7.84525 19.9027Z" fill="#E9E9E9"/>
<g clip-path="url(#clip0_378_140)">
<path d="M141.714 24.4075C141.325 24.4075 140.906 24.3609 140.455 24.2677C140.005 24.1745 139.578 24.0036 139.174 23.755C138.786 23.5065 138.467 23.1647 138.219 22.7298C137.97 22.2793 137.846 21.6968 137.846 20.9822C137.846 20.1434 138.04 19.4521 138.428 18.9084C138.817 18.3647 139.36 17.9376 140.059 17.6269C140.758 17.3162 141.589 17.0987 142.553 16.9745C143.531 16.8502 144.595 16.788 145.745 16.788V15.5764C145.745 15.1725 145.675 14.8152 145.535 14.5046C145.411 14.1939 145.17 13.9531 144.813 13.7822C144.471 13.6113 143.974 13.5259 143.321 13.5259C142.669 13.5259 142.156 13.6113 141.784 13.7822C141.426 13.9376 141.17 14.1395 141.015 14.388C140.875 14.6211 140.805 14.8774 140.805 15.157V15.5065H138.475C138.459 15.4288 138.452 15.3512 138.452 15.2735C138.452 15.1958 138.452 15.1026 138.452 14.9939C138.452 14.2638 138.653 13.6502 139.057 13.1531C139.477 12.6405 140.059 12.2521 140.805 11.988C141.551 11.724 142.413 11.5919 143.391 11.5919C144.448 11.5919 145.325 11.7473 146.024 12.0579C146.739 12.3531 147.275 12.7803 147.632 13.3395C147.989 13.8987 148.168 14.5745 148.168 15.3667V21.588C148.168 21.8832 148.238 22.0929 148.378 22.2172C148.533 22.3414 148.712 22.4036 148.914 22.4036H149.753V24.0346C149.566 24.1123 149.333 24.19 149.053 24.2677C148.774 24.3453 148.448 24.3842 148.075 24.3842C147.655 24.3842 147.298 24.3065 147.003 24.1512C146.723 24.0113 146.49 23.8094 146.304 23.5453C146.133 23.2657 146.017 22.955 145.954 22.6133H145.815C145.535 22.9706 145.193 23.289 144.789 23.5686C144.401 23.8327 143.951 24.0346 143.438 24.1745C142.925 24.3298 142.351 24.4075 141.714 24.4075ZM142.389 22.4036C142.871 22.4036 143.314 22.3337 143.718 22.1939C144.137 22.0385 144.494 21.8288 144.789 21.5647C145.085 21.2851 145.318 20.9589 145.488 20.5861C145.659 20.1978 145.745 19.7783 145.745 19.3279V18.5123C144.673 18.5123 143.733 18.5745 142.925 18.6987C142.118 18.823 141.488 19.056 141.038 19.3978C140.587 19.724 140.362 20.1822 140.362 20.7725C140.362 21.1298 140.44 21.4327 140.595 21.6812C140.751 21.9143 140.984 22.0929 141.294 22.2172C141.605 22.3414 141.97 22.4036 142.389 22.4036Z" fill="#525759"/>
<path d="M125.258 24.1278V11.8715H127.262L127.472 13.6191H127.635C127.93 13.1686 128.279 12.7958 128.683 12.5006C129.087 12.2055 129.53 11.9802 130.011 11.8249C130.508 11.6695 131.052 11.5919 131.642 11.5919C132.419 11.5919 133.103 11.7317 133.693 12.0113C134.283 12.2754 134.741 12.7103 135.068 13.3161C135.409 13.922 135.58 14.7375 135.58 15.7627V24.1278H133.157V16.1356C133.157 15.6695 133.095 15.2812 132.971 14.9705C132.862 14.6598 132.699 14.4113 132.481 14.2249C132.264 14.0385 132.007 13.9064 131.712 13.8288C131.417 13.7511 131.091 13.7123 130.734 13.7123C130.174 13.7123 129.662 13.8521 129.196 14.1317C128.745 14.3958 128.38 14.7686 128.101 15.2501C127.821 15.7317 127.681 16.2987 127.681 16.9511V24.1278H125.258Z" fill="#525759"/>
<path d="M114.57 28.3684C114.104 28.3684 113.716 28.3296 113.405 28.2519C113.095 28.1898 112.901 28.1509 112.823 28.1354V26.3878H113.988C114.33 26.3878 114.671 26.3102 115.013 26.1548C115.37 25.9995 115.689 25.7509 115.969 25.4092C116.248 25.0674 116.481 24.6403 116.668 24.1276L111.891 11.8713H114.431L116.807 17.9762C116.916 18.2558 117.033 18.6053 117.157 19.0247C117.297 19.4441 117.429 19.8713 117.553 20.3063C117.693 20.7412 117.809 21.1296 117.903 21.4713H118.019C118.097 21.2383 118.174 20.9742 118.252 20.6791C118.345 20.3684 118.438 20.05 118.532 19.7238C118.625 19.3975 118.718 19.0869 118.811 18.7917C118.904 18.481 118.982 18.217 119.044 17.9995L121.025 11.8713H123.495L119.347 23.6616C119.114 24.314 118.858 24.9276 118.578 25.5024C118.299 26.0772 117.972 26.5742 117.6 26.9937C117.242 27.4286 116.815 27.7626 116.318 27.9956C115.821 28.2441 115.238 28.3684 114.57 28.3684Z" fill="#525759"/>
<path d="M105.188 24.1278V11.8715H107.192L107.402 13.8521H107.542C107.681 13.4637 107.86 13.0987 108.077 12.7569C108.31 12.4152 108.606 12.1356 108.963 11.9181C109.336 11.7006 109.786 11.5919 110.314 11.5919C110.563 11.5919 110.78 11.6152 110.967 11.6618C111.169 11.7084 111.324 11.7472 111.433 11.7783V14.0618H110.617C110.12 14.0618 109.677 14.1394 109.289 14.2948C108.916 14.4501 108.598 14.6831 108.334 14.9938C108.085 15.289 107.899 15.654 107.775 16.089C107.666 16.5239 107.611 17.0132 107.611 17.5569V24.1278H105.188Z" fill="#525759"/>
<path d="M99.1199 24.1279V8.14339H101.73V24.1279H99.1199Z" fill="#525759"/>
<path d="M84.3032 24.4075C83.9148 24.4075 83.4954 24.3609 83.0449 24.2677C82.5945 24.1745 82.1673 24.0036 81.7634 23.755C81.375 23.5065 81.0566 23.1647 80.808 22.7298C80.5595 22.2793 80.4352 21.6968 80.4352 20.9822C80.4352 20.1434 80.6294 19.4521 81.0178 18.9084C81.4061 18.3647 81.9498 17.9376 82.6488 17.6269C83.3479 17.3162 84.1789 17.0987 85.142 16.9745C86.1207 16.8502 87.1847 16.788 88.3343 16.788V15.5764C88.3343 15.1725 88.2644 14.8152 88.1246 14.5046C88.0003 14.1939 87.7595 13.9531 87.4022 13.7822C87.0605 13.6113 86.5634 13.5259 85.911 13.5259C85.2585 13.5259 84.7459 13.6113 84.3731 13.7822C84.0158 13.9376 83.7595 14.1395 83.6042 14.388C83.4644 14.6211 83.3945 14.8774 83.3945 15.157V15.5065H81.0644C81.0488 15.4288 81.0411 15.3512 81.0411 15.2735C81.0411 15.1958 81.0411 15.1026 81.0411 14.9939C81.0411 14.2638 81.243 13.6502 81.6469 13.1531C82.0663 12.6405 82.6488 12.2521 83.3945 11.988C84.1401 11.724 85.0022 11.5919 85.9809 11.5919C87.0372 11.5919 87.9148 11.7473 88.6139 12.0579C89.3284 12.3531 89.8644 12.7803 90.2216 13.3395C90.5789 13.8987 90.7576 14.5745 90.7576 15.3667V21.588C90.7576 21.8832 90.8275 22.0929 90.9673 22.2172C91.1226 22.3414 91.3013 22.4036 91.5032 22.4036H92.342V24.0346C92.1556 24.1123 91.9226 24.19 91.643 24.2677C91.3634 24.3453 91.0372 24.3842 90.6644 24.3842C90.2449 24.3842 89.8877 24.3065 89.5925 24.1512C89.3129 24.0113 89.0799 23.8094 88.8935 23.5453C88.7226 23.2657 88.6061 22.955 88.544 22.6133H88.4042C88.1246 22.9706 87.7828 23.289 87.3789 23.5686C86.9906 23.8327 86.5401 24.0346 86.0275 24.1745C85.5148 24.3298 84.9401 24.4075 84.3032 24.4075ZM84.9789 22.4036C85.4605 22.4036 85.9032 22.3337 86.3071 22.1939C86.7265 22.0385 87.0838 21.8288 87.3789 21.5647C87.6741 21.2851 87.9071 20.9589 88.0779 20.5861C88.2488 20.1978 88.3343 19.7783 88.3343 19.3279V18.5123C87.2624 18.5123 86.3226 18.5745 85.5148 18.6987C84.7071 18.823 84.0779 19.056 83.6275 19.3978C83.177 19.724 82.9517 20.1822 82.9517 20.7725C82.9517 21.1298 83.0294 21.4327 83.1847 21.6812C83.3401 21.9143 83.5731 22.0929 83.8838 22.2172C84.1945 22.3414 84.5595 22.4036 84.9789 22.4036Z" fill="#525759"/>
<path d="M72.5404 24.1276L67.9967 11.8713H70.5366L72.6569 17.7199C72.7501 17.9995 72.8666 18.3645 73.0065 18.815C73.1463 19.25 73.2861 19.7005 73.4259 20.1665C73.5657 20.6325 73.6899 21.0519 73.7987 21.4247H73.9152C74.0084 21.0674 74.1171 20.6636 74.2414 20.2131C74.3812 19.7471 74.521 19.2888 74.6608 18.8383C74.8006 18.3878 74.9249 18.015 75.0336 17.7199L77.1307 11.8713H79.6006L75.0336 24.1276H72.5404Z" fill="#525759"/>
<path d="M61.0292 24.4075C59.7554 24.4075 58.6758 24.1822 57.7903 23.7317C56.9204 23.2657 56.2602 22.5589 55.8097 21.6113C55.3748 20.6638 55.1573 19.4599 55.1573 17.9997C55.1573 16.524 55.3748 15.3201 55.8097 14.388C56.2602 13.4405 56.9204 12.7414 57.7903 12.291C58.6758 11.8249 59.7554 11.5919 61.0292 11.5919C62.334 11.5919 63.4214 11.8249 64.2913 12.291C65.1612 12.7414 65.8136 13.4405 66.2486 14.388C66.6991 15.3201 66.9243 16.524 66.9243 17.9997C66.9243 19.4599 66.6991 20.6638 66.2486 21.6113C65.8136 22.5589 65.1612 23.2657 64.2913 23.7317C63.4214 24.1822 62.334 24.4075 61.0292 24.4075ZM61.0292 22.4036C61.8059 22.4036 62.4428 22.256 62.9398 21.9609C63.4369 21.6502 63.802 21.1842 64.035 20.5628C64.2835 19.9414 64.4078 19.157 64.4078 18.2094V17.79C64.4078 16.8424 64.2835 16.0579 64.035 15.4366C63.802 14.8152 63.4369 14.357 62.9398 14.0618C62.4428 13.7512 61.8059 13.5958 61.0292 13.5958C60.268 13.5958 59.6389 13.7512 59.1418 14.0618C58.6447 14.357 58.2719 14.8152 58.0233 15.4366C57.7903 16.0579 57.6738 16.8424 57.6738 17.79V18.2094C57.6738 19.157 57.7903 19.9414 58.0233 20.5628C58.2719 21.1842 58.6447 21.6502 59.1418 21.9609C59.6389 22.256 60.268 22.4036 61.0292 22.4036Z" fill="#525759"/>
<path d="M50.2579 24.1279V7.28125H52.6812V24.1279H50.2579Z" fill="#525759"/>
<path d="M37.6301 24.1279V22.9162L44.1543 13.8754H38.0728V11.8715H47.6495V13.0599L41.1019 22.124H47.9757V24.1279H37.6301Z" fill="#525759"/>
<path d="M30.6287 24.4075C29.3549 24.4075 28.2753 24.1822 27.3898 23.7317C26.5199 23.2657 25.8597 22.5589 25.4093 21.6113C24.9743 20.6638 24.7568 19.4599 24.7568 17.9997C24.7568 16.524 24.9743 15.3201 25.4093 14.388C25.8597 13.4405 26.5199 12.7414 27.3898 12.291C28.2753 11.8249 29.3549 11.5919 30.6287 11.5919C31.9335 11.5919 33.0209 11.8249 33.8908 12.291C34.7607 12.7414 35.4131 13.4405 35.8481 14.388C36.2986 15.3201 36.5238 16.524 36.5238 17.9997C36.5238 19.4599 36.2986 20.6638 35.8481 21.6113C35.4131 22.5589 34.7607 23.2657 33.8908 23.7317C33.0209 24.1822 31.9335 24.4075 30.6287 24.4075ZM30.6287 22.4036C31.4054 22.4036 32.0423 22.256 32.5394 21.9609C33.0364 21.6502 33.4015 21.1842 33.6345 20.5628C33.883 19.9414 34.0073 19.157 34.0073 18.2094V17.79C34.0073 16.8424 33.883 16.0579 33.6345 15.4366C33.4015 14.8152 33.0364 14.357 32.5394 14.0618C32.0423 13.7512 31.4054 13.5958 30.6287 13.5958C29.8675 13.5958 29.2384 13.7512 28.7413 14.0618C28.2442 14.357 27.8714 14.8152 27.6229 15.4366C27.3898 16.0579 27.2733 16.8424 27.2733 17.79V18.2094C27.2733 19.157 27.3898 19.9414 27.6229 20.5628C27.8714 21.1842 28.2442 21.6502 28.7413 21.9609C29.2384 22.256 29.8675 22.4036 30.6287 22.4036Z" fill="#525759"/>
</g>
<path d="M143.961 0.0946514H145.614C145.939 0.0946514 146.209 0.140768 146.422 0.233001C146.636 0.32038 146.803 0.43203 146.925 0.567953C147.051 0.699021 147.138 0.842224 147.187 0.997564C147.24 1.1529 147.267 1.29611 147.267 1.42718C147.267 1.57281 147.243 1.72329 147.194 1.87863C147.146 2.02912 147.068 2.16989 146.961 2.30096C146.854 2.43203 146.716 2.54125 146.546 2.62863C146.381 2.71601 146.182 2.76698 145.949 2.78154V2.81067L146.022 2.84708C146.08 2.87621 146.129 2.91261 146.167 2.9563C146.211 2.99999 146.264 3.07038 146.328 3.16747C146.396 3.26455 146.485 3.4029 146.597 3.58252C146.709 3.75727 146.866 3.99271 147.07 4.28883C147.138 4.39077 147.204 4.483 147.267 4.56553C147.33 4.6432 147.396 4.71116 147.464 4.76941C147.531 4.82281 147.604 4.86407 147.682 4.8932C147.76 4.92232 147.849 4.93688 147.951 4.93688C147.976 4.93688 148 4.93688 148.024 4.93688C148.048 4.93203 148.073 4.92718 148.097 4.92232V5.19174C148.029 5.23057 147.961 5.25485 147.893 5.26456C147.825 5.27426 147.738 5.27912 147.631 5.27912C147.485 5.27912 147.359 5.2597 147.252 5.22087C147.15 5.18203 147.058 5.13106 146.976 5.06795C146.893 4.99999 146.815 4.91989 146.743 4.82766C146.675 4.73543 146.604 4.63349 146.531 4.52184L145.956 3.66989C145.869 3.53397 145.794 3.41989 145.731 3.32766C145.667 3.23543 145.599 3.16019 145.527 3.10193C145.454 3.04368 145.371 3.00242 145.279 2.97815C145.192 2.95388 145.08 2.94174 144.944 2.94174H144.624V5.19174H143.961V0.0946514ZM144.624 0.41504V2.61407H145.374C145.568 2.61407 145.738 2.58009 145.883 2.51213C146.034 2.44417 146.16 2.35679 146.262 2.24999C146.364 2.13834 146.439 2.01698 146.488 1.88591C146.541 1.74999 146.568 1.6165 146.568 1.48543C146.568 1.33009 146.539 1.18688 146.481 1.05582C146.427 0.924749 146.347 0.813098 146.24 0.720865C146.133 0.623778 146.005 0.548535 145.854 0.495137C145.709 0.441739 145.544 0.41504 145.359 0.41504H144.624Z" fill="#525759"/>
<path d="M138.416 0.0946514H141.707V0.495137H139.079V2.32281H141.336V2.65776H139.079V4.79125H141.707V5.19174H138.416V0.0946514Z" fill="#525759"/>
<path d="M133.448 3.06553V5.19174H132.785V0.0946514H134.489C134.771 0.0946514 135.016 0.135914 135.225 0.218438C135.434 0.300962 135.606 0.412613 135.742 0.553389C135.883 0.689312 135.987 0.851933 136.055 1.04125C136.123 1.22572 136.157 1.41989 136.157 1.62378C136.157 1.83737 136.118 2.03883 136.04 2.22815C135.963 2.41261 135.846 2.57766 135.691 2.72329C135.54 2.86407 135.351 2.97572 135.123 3.05824C134.895 3.14077 134.633 3.18203 134.336 3.18203C134.162 3.18203 134.001 3.17232 133.856 3.1529C133.71 3.12863 133.574 3.09951 133.448 3.06553ZM133.448 0.41504V2.76698C133.55 2.80582 133.664 2.83252 133.79 2.84708C133.917 2.85679 134.055 2.86164 134.205 2.86164C134.424 2.86164 134.611 2.82523 134.766 2.75242C134.921 2.6796 135.05 2.58494 135.152 2.46844C135.254 2.35193 135.327 2.22329 135.37 2.08252C135.419 1.93688 135.443 1.79368 135.443 1.6529C135.443 1.50727 135.417 1.36164 135.363 1.21601C135.315 1.06553 135.239 0.93203 135.137 0.815525C135.035 0.694166 134.907 0.597079 134.751 0.524263C134.596 0.451448 134.417 0.41504 134.213 0.41504H133.448Z" fill="#525759"/>
<path d="M124.81 2.64325C124.81 2.36655 124.861 2.07286 124.963 1.76218C125.07 1.4515 125.235 1.16752 125.458 0.910237C125.681 0.648101 125.965 0.432081 126.31 0.262178C126.655 0.0922756 127.067 0.00732422 127.548 0.00732422C128.033 0.00732422 128.453 0.0947026 128.808 0.26946C129.167 0.439363 129.463 0.655383 129.696 0.917519C129.929 1.17965 130.101 1.46606 130.213 1.77674C130.325 2.08257 130.38 2.3714 130.38 2.64325C130.38 2.82286 130.354 3.01218 130.3 3.21121C130.252 3.41024 130.176 3.60927 130.075 3.80829C129.977 4.00247 129.851 4.18936 129.696 4.36897C129.541 4.54373 129.356 4.69907 129.142 4.83499C128.934 4.97092 128.696 5.08014 128.429 5.16266C128.167 5.24033 127.873 5.27917 127.548 5.27917C127.067 5.27917 126.655 5.19422 126.31 5.02431C125.965 4.84956 125.681 4.63111 125.458 4.36897C125.235 4.10684 125.07 3.82286 124.963 3.51703C124.861 3.20635 124.81 2.91509 124.81 2.64325ZM125.524 2.64325C125.524 2.98305 125.575 3.29616 125.676 3.58257C125.783 3.86412 125.926 4.10684 126.106 4.31072C126.291 4.51461 126.507 4.6748 126.754 4.7913C127.002 4.90296 127.271 4.95878 127.562 4.95878C127.849 4.95878 128.118 4.90296 128.371 4.7913C128.628 4.6748 128.851 4.51461 129.041 4.31072C129.235 4.10684 129.388 3.86412 129.499 3.58257C129.611 3.29616 129.667 2.98305 129.667 2.64325C129.667 2.30344 129.611 1.99276 129.499 1.71121C129.388 1.4248 129.235 1.17965 129.041 0.975771C128.851 0.771887 128.628 0.61412 128.371 0.50247C128.118 0.385965 127.849 0.327712 127.562 0.327712C127.271 0.327712 127.002 0.385965 126.754 0.50247C126.507 0.61412 126.291 0.771887 126.106 0.975771C125.926 1.17965 125.783 1.4248 125.676 1.71121C125.575 1.99276 125.524 2.30344 125.524 2.64325Z" fill="#525759"/>
<path d="M119.774 5.19174V0.0946514H120.437V4.79125H123.066V5.19174H119.774Z" fill="#525759"/>
<path d="M114.228 0.0946514H117.519V0.495137H114.891V2.32281H117.148V2.65776H114.891V4.79125H117.519V5.19174H114.228V0.0946514Z" fill="#525759"/>
<path d="M107.331 0.0946514H108.117L109.865 4.28883H109.894L111.591 0.0946514H111.969L109.901 5.19174H109.464L107.331 0.0946514Z" fill="#525759"/>
<path d="M102.442 0.0946514H105.733V0.495137H103.104V2.32281H105.362V2.65776H103.104V4.79125H105.733V5.19174H102.442V0.0946514Z" fill="#525759"/>
<path d="M95.7812 5.19174V0.0946514H97.456C97.8589 0.0946514 98.2279 0.160185 98.5628 0.291253C98.8978 0.417467 99.1842 0.594652 99.422 0.822807C99.6647 1.04611 99.8516 1.3131 99.9827 1.62378C100.119 1.93446 100.187 2.26941 100.187 2.62863C100.187 3.00242 100.116 3.34708 99.9754 3.66261C99.8395 3.97329 99.6502 4.24271 99.4075 4.47087C99.1696 4.69902 98.8905 4.8762 98.5701 5.00242C98.2497 5.12863 97.9075 5.19174 97.5434 5.19174H95.7812ZM96.4439 4.87135H97.2448C97.6429 4.87135 97.9803 4.80582 98.257 4.67475C98.5385 4.53883 98.7691 4.36407 98.9487 4.15048C99.1283 3.93688 99.2594 3.69902 99.3419 3.43688C99.4245 3.16989 99.4657 2.90533 99.4657 2.6432C99.4657 2.35193 99.4172 2.07281 99.3201 1.80582C99.223 1.53397 99.0798 1.29611 98.8905 1.09222C98.706 0.883487 98.4754 0.718438 98.1987 0.597079C97.922 0.47572 97.6041 0.41504 97.2448 0.41504H96.4439V4.87135Z" fill="#525759"/>
<path d="M88.5168 4.75485C88.2207 4.9733 87.9537 5.11408 87.7158 5.17718C87.4828 5.24029 87.2668 5.27184 87.0678 5.27184C86.7717 5.27184 86.5095 5.23301 86.2814 5.15534C86.0581 5.07282 85.8687 4.96602 85.7134 4.83495C85.5629 4.69903 85.4488 4.54612 85.3712 4.37621C85.2935 4.20631 85.2547 4.03398 85.2547 3.85922C85.2547 3.67476 85.2886 3.50485 85.3566 3.34951C85.4294 3.19417 85.5265 3.05097 85.6479 2.9199C85.7741 2.78398 85.9197 2.66262 86.0848 2.55583C86.2498 2.44417 86.4294 2.34223 86.6236 2.25C86.4683 2.03155 86.3348 1.83252 86.2231 1.65291C86.1163 1.46845 86.0629 1.27427 86.0629 1.07039C86.0629 0.949029 86.0823 0.825243 86.1212 0.699029C86.1649 0.567961 86.2304 0.451456 86.3178 0.349515C86.41 0.247573 86.5241 0.165048 86.66 0.101942C86.8008 0.0339805 86.9683 0 87.1624 0C87.3129 0 87.4537 0.0242719 87.5848 0.0728158C87.7158 0.121359 87.8299 0.191748 87.927 0.283981C88.0241 0.376214 88.1017 0.487864 88.16 0.618932C88.2183 0.745146 88.2474 0.88835 88.2474 1.04854C88.2474 1.25243 88.177 1.45388 88.0362 1.65291C87.9003 1.84709 87.6624 2.02427 87.3226 2.18447L88.7716 4.09223C88.9173 3.89806 89.0289 3.67718 89.1066 3.42961C89.1843 3.17718 89.2304 2.8568 89.245 2.46845H89.8129C89.7886 2.73058 89.7377 2.96602 89.66 3.17476C89.5872 3.3835 89.5047 3.56796 89.4124 3.72816C89.325 3.88835 89.2377 4.02185 89.1503 4.12864C89.0678 4.23058 89.0047 4.30583 88.961 4.35437L89.6236 5.19175H88.8517L88.5168 4.75485ZM87.1988 0.320389C87.092 0.320389 86.9998 0.339806 86.9221 0.378641C86.8493 0.412622 86.7886 0.458738 86.7401 0.516991C86.6915 0.575243 86.6551 0.640777 86.6309 0.713593C86.6115 0.786408 86.6017 0.859223 86.6017 0.932039C86.6017 1.10194 86.6551 1.26942 86.7619 1.43447C86.8687 1.59466 86.9998 1.77184 87.1551 1.96602C87.2183 1.93204 87.2862 1.88592 87.359 1.82767C87.4367 1.76456 87.5071 1.69417 87.5702 1.61651C87.6333 1.53398 87.6843 1.44175 87.7231 1.33981C87.7668 1.23786 87.7886 1.12621 87.7886 1.00485C87.7886 0.941748 87.7789 0.871359 87.7595 0.793689C87.7401 0.711165 87.7085 0.635922 87.6649 0.567961C87.6212 0.5 87.5605 0.441748 87.4828 0.393204C87.41 0.34466 87.3153 0.320389 87.1988 0.320389ZM86.8056 2.50485C86.4513 2.68932 86.2061 2.87136 86.0702 3.05097C85.9391 3.23058 85.8736 3.42961 85.8736 3.64806C85.8736 3.84709 85.9149 4.02427 85.9974 4.17961C86.0799 4.3301 86.1867 4.45874 86.3178 4.56553C86.4537 4.67233 86.6017 4.75485 86.7619 4.81311C86.927 4.8665 87.0896 4.8932 87.2498 4.8932C87.2886 4.8932 87.3469 4.89078 87.4246 4.88592C87.5071 4.87621 87.5993 4.85922 87.7013 4.83495C87.8032 4.81068 87.9076 4.77427 88.0144 4.72573C88.126 4.67718 88.2328 4.60922 88.3348 4.52184L86.8056 2.50485Z" fill="#525759"/>
<path d="M75.5901 0.0946514H77.243C77.5682 0.0946514 77.8376 0.140768 78.0512 0.233001C78.2648 0.32038 78.4323 0.43203 78.5537 0.567953C78.6799 0.699021 78.7673 0.842224 78.8158 0.997564C78.8692 1.1529 78.8959 1.29611 78.8959 1.42718C78.8959 1.57281 78.8716 1.72329 78.8231 1.87863C78.7745 2.02912 78.6969 2.16989 78.5901 2.30096C78.4833 2.43203 78.3449 2.54125 78.175 2.62863C78.01 2.71601 77.8109 2.76698 77.5779 2.78154V2.81067L77.6507 2.84708C77.709 2.87621 77.7575 2.91261 77.7964 2.9563C77.8401 2.99999 77.8935 3.07038 77.9566 3.16747C78.0245 3.26455 78.1143 3.4029 78.226 3.58252C78.3376 3.75727 78.4954 3.99271 78.6993 4.28883C78.7673 4.39077 78.8328 4.483 78.8959 4.56553C78.959 4.6432 79.0245 4.71116 79.0925 4.76941C79.1605 4.82281 79.2333 4.86407 79.3109 4.8932C79.3886 4.92232 79.4784 4.93688 79.5804 4.93688C79.6046 4.93688 79.6289 4.93688 79.6532 4.93688C79.6774 4.93203 79.7017 4.92718 79.726 4.92232V5.19174C79.658 5.23057 79.5901 5.25485 79.5221 5.26456C79.4541 5.27426 79.3668 5.27912 79.26 5.27912C79.1143 5.27912 78.9881 5.2597 78.8813 5.22087C78.7794 5.18203 78.6872 5.13106 78.6046 5.06795C78.5221 4.99999 78.4444 4.91989 78.3716 4.82766C78.3037 4.73543 78.2333 4.63349 78.1605 4.52184L77.5852 3.66989C77.4978 3.53397 77.4226 3.41989 77.3595 3.32766C77.2964 3.23543 77.2284 3.16019 77.1556 3.10193C77.0828 3.04368 77.0003 3.00242 76.908 2.97815C76.8207 2.95388 76.709 2.94174 76.5731 2.94174H76.2527V5.19174H75.5901V0.0946514ZM76.2527 0.41504V2.61407H77.0027C77.1969 2.61407 77.3668 2.58009 77.5124 2.51213C77.6629 2.44417 77.7891 2.35679 77.891 2.24999C77.993 2.13834 78.0682 2.01698 78.1168 1.88591C78.1702 1.74999 78.1969 1.6165 78.1969 1.48543C78.1969 1.33009 78.1677 1.18688 78.1095 1.05582C78.0561 0.924749 77.976 0.813098 77.8692 0.720865C77.7624 0.623778 77.6338 0.548535 77.4833 0.495137C77.3376 0.441739 77.1726 0.41504 76.9881 0.41504H76.2527Z" fill="#525759"/>
<path d="M70.0439 0.0946514H73.3352V0.495137H70.7066V2.32281H72.9638V2.65776H70.7066V4.79125H73.3352V5.19174H70.0439V0.0946514Z" fill="#525759"/>
<path d="M66.7984 0.0947026H67.1333V5.27917H67.0969L63.0556 1.29616H63.0265V5.19179H62.6916V0.00732422H62.728L66.7692 3.99033H66.7984V0.0947026Z" fill="#525759"/>
<path d="M60.2138 2.91995V5.19179H59.5876V4.89325C59.4032 4.99033 59.1702 5.08014 58.8886 5.16266C58.607 5.24033 58.2842 5.27917 57.9202 5.27917C57.4347 5.27917 57.0172 5.20393 56.6677 5.05344C56.3182 4.8981 56.0294 4.69422 55.8012 4.44179C55.5779 4.18451 55.4104 3.89567 55.2988 3.57528C55.192 3.25004 55.1386 2.91509 55.1386 2.57043C55.1386 2.16752 55.209 1.8083 55.3498 1.49276C55.4905 1.17237 55.6871 0.902955 55.9396 0.684509C56.192 0.466062 56.4905 0.298586 56.8352 0.182082C57.1847 0.0655767 57.5658 0.00732422 57.9784 0.00732422C58.3376 0.00732422 58.6483 0.0485862 58.9104 0.13111C59.1774 0.20878 59.4007 0.305868 59.5803 0.422373C59.76 0.538877 59.9007 0.665091 60.0027 0.801013C60.1095 0.932081 60.1847 1.05101 60.2284 1.15781H59.7041C59.675 1.05587 59.6095 0.956353 59.5075 0.859266C59.4104 0.757324 59.2842 0.667518 59.1289 0.589848C58.9735 0.512179 58.7964 0.449072 58.5973 0.400528C58.3983 0.351984 58.1847 0.327712 57.9566 0.327712C57.6119 0.327712 57.3085 0.383538 57.0464 0.495188C56.7891 0.606839 56.5706 0.764606 56.391 0.968489C56.2114 1.17237 56.0755 1.41509 55.9833 1.69664C55.8959 1.9782 55.8522 2.28645 55.8522 2.6214C55.8522 2.96121 55.8983 3.27431 55.9905 3.56072C56.0876 3.84228 56.2308 4.08742 56.4201 4.29616C56.6095 4.50004 56.8473 4.66024 57.1337 4.77674C57.4202 4.89325 57.7551 4.9515 58.1386 4.9515C58.4299 4.9515 58.6896 4.91752 58.9177 4.84956C59.1459 4.7816 59.3692 4.67723 59.5876 4.53645V3.21849H58.7721V2.91995H60.2138Z" fill="#525759"/>
<path d="M51.7086 0.0946514H52.3712V5.19174H51.7086V0.0946514Z" fill="#525759"/>
<path d="M45.0965 3.90295H45.5917C45.5965 3.98548 45.6159 4.08742 45.6499 4.20878C45.6839 4.32528 45.7494 4.43936 45.8465 4.55101C45.9436 4.66266 46.0844 4.75975 46.2689 4.84228C46.4533 4.91995 46.6985 4.95878 47.0043 4.95878C47.3878 4.95878 47.6936 4.88596 47.9218 4.74033C48.1548 4.5947 48.2713 4.36412 48.2713 4.04859C48.2713 3.79616 48.1985 3.5947 48.0528 3.44422C47.9072 3.29373 47.7227 3.16752 47.4994 3.06558C47.281 2.95878 47.0431 2.86412 46.7858 2.7816C46.5286 2.69907 46.2883 2.59956 46.065 2.48305C45.8465 2.36655 45.6645 2.22092 45.5189 2.04616C45.3732 1.8714 45.3004 1.64082 45.3004 1.35441C45.3004 1.13596 45.3441 0.94179 45.4315 0.771887C45.5237 0.601984 45.6451 0.461208 45.7956 0.349557C45.9509 0.237907 46.1281 0.152955 46.3271 0.0947026C46.531 0.0364503 46.7446 0.00732422 46.9679 0.00732422C47.1815 0.00732422 47.3854 0.0340233 47.5795 0.0874212C47.7786 0.135965 47.9558 0.211207 48.1111 0.313149C48.2664 0.410237 48.3951 0.531596 48.497 0.677227C48.599 0.818004 48.6645 0.978198 48.6936 1.15781H48.1985C48.1596 0.871402 48.0286 0.662664 47.8053 0.531596C47.5868 0.395673 47.3198 0.327712 47.0043 0.327712C46.815 0.327712 46.6475 0.351984 46.5019 0.400528C46.3562 0.444217 46.2325 0.504897 46.1305 0.582567C46.0334 0.655382 45.9582 0.742761 45.9048 0.844703C45.8562 0.946644 45.832 1.05587 45.832 1.17237C45.832 1.38111 45.9072 1.54859 46.0577 1.6748C46.2082 1.80101 46.3951 1.91266 46.6184 2.00975C46.8465 2.10684 47.0917 2.19907 47.3538 2.28645C47.6208 2.37383 47.8659 2.48305 48.0892 2.61412C48.3174 2.74033 48.5067 2.90053 48.6572 3.0947C48.8077 3.28402 48.8829 3.52917 48.8829 3.83014C48.8829 4.04859 48.8392 4.24761 48.7519 4.42723C48.6645 4.60684 48.5407 4.75975 48.3805 4.88596C48.2203 5.01218 48.0261 5.10927 47.798 5.17723C47.5747 5.24519 47.3223 5.27917 47.0407 5.27917C46.764 5.27917 46.5091 5.24762 46.2761 5.18451C46.0431 5.11655 45.8392 5.02431 45.6645 4.90781C45.4946 4.78645 45.3587 4.64082 45.2567 4.47092C45.1596 4.30101 45.1062 4.11169 45.0965 3.90295Z" fill="#525759"/>
<path d="M40.1555 0.0946514H43.4468V0.495137H40.8181V2.32281H43.0754V2.65776H40.8181V4.79125H43.4468V5.19174H40.1555V0.0946514Z" fill="#525759"/>
<path d="M33.4961 5.19174V0.0946514H35.1709C35.5738 0.0946514 35.9427 0.160185 36.2776 0.291253C36.6126 0.417467 36.899 0.594652 37.1369 0.822807C37.3796 1.04611 37.5665 1.3131 37.6975 1.62378C37.8335 1.93446 37.9014 2.26941 37.9014 2.62863C37.9014 3.00242 37.831 3.34708 37.6903 3.66261C37.5543 3.97329 37.365 4.24271 37.1223 4.47087C36.8844 4.69902 36.6053 4.8762 36.2849 5.00242C35.9645 5.12863 35.6223 5.19174 35.2582 5.19174H33.4961ZM34.1587 4.87135H34.9597C35.3577 4.87135 35.6951 4.80582 35.9718 4.67475C36.2534 4.53883 36.484 4.36407 36.6636 4.15048C36.8432 3.93688 36.9742 3.69902 37.0568 3.43688C37.1393 3.16989 37.1806 2.90533 37.1806 2.6432C37.1806 2.35193 37.132 2.07281 37.0349 1.80582C36.9378 1.53397 36.7946 1.29611 36.6053 1.09222C36.4209 0.883487 36.1903 0.718438 35.9136 0.597079C35.6369 0.47572 35.3189 0.41504 34.9597 0.41504H34.1587V4.87135Z" fill="#525759"/>
<defs>
<clipPath id="clip0_378_140">
<rect width="125.243" height="21.8447" fill="white" transform="translate(24.7568 7.28125)"/>
</clipPath>
</defs>
</svg>
